<?xml version="1.0" standalone="no"?>
<!DOCTYPE svg PUBLIC "-//W3C//DTD SVG 1.1//EN" "http://www.w3.org/Graphics/SVG/1.1/DTD/svg11.dtd" >
<svg xmlns="http://www.w3.org/2000/svg">
<metadata></metadata>
<defs>
<font id="charis_sil_compactitalic" horiz-adv-x="1067" >
<font-face units-per-em="2048" ascent="1638" descent="-410" />
<missing-glyph horiz-adv-x="600" />
<glyph unicode="A&#x300;" horiz-adv-x="1378" d="M766 1155l-303 -532h391zM801 0v86l94 10q45 6 39 39l-62 391h-464l-209 -391q-11 -20 -0.5 -28t39.5 -11l94 -10v-86h-441v86l115 12l756 1309h164l221 -1272q3 -20 11 -28.5t30 -10.5l94 -10v-86h-481zM920 1528l-297 195q-21 14 -34 34.5t-13 51.5q0 15 4.5 31t15 29 t28 21.5t44.5 8.5q22 0 37.5 -4t27.5 -10.5t21.5 -16t18.5 -20.5l274 -320h-127z" />
<glyph unicode="A&#x301;" horiz-adv-x="1378" d="M766 1155l-303 -532h391zM801 0v86l94 10q45 6 39 39l-62 391h-464l-209 -391q-11 -20 -0.5 -28t39.5 -11l94 -10v-86h-441v86l115 12l756 1309h164l221 -1272q3 -20 11 -28.5t30 -10.5l94 -10v-86h-481zM1177 1811q0 -29 -13 -48.5t-36 -35.5l-307 -199h-144l279 320 q10 12 21 21t24.5 16t31 10.5t40.5 3.5q27 0 46.5 -8t32 -20.5t19 -28.5t6.5 -31z" />
<glyph unicode="A&#x302;" horiz-adv-x="1378" d="M766 1155l-303 -532h391zM801 0v86l94 10q45 6 39 39l-62 391h-464l-209 -391q-11 -20 -0.5 -28t39.5 -11l94 -10v-86h-441v86l115 12l756 1309h164l221 -1272q3 -20 11 -28.5t30 -10.5l94 -10v-86h-481zM1051 1528l-168 189l-246 -189h-143l338 347h161l201 -347h-143z " />
<glyph unicode="A&#x303;" horiz-adv-x="1378" d="M766 1155l-303 -532h391zM801 0v86l94 10q45 6 39 39l-62 391h-464l-209 -391q-11 -20 -0.5 -28t39.5 -11l94 -10v-86h-441v86l115 12l756 1309h164l221 -1272q3 -20 11 -28.5t30 -10.5l94 -10v-86h-481zM1274 1815q-22 -45 -50.5 -84.5t-65 -69t-81.5 -46.5t-100 -17 q-42 0 -73 13.5t-63 33.5q-13 9 -26 17t-28.5 15t-34 11t-42.5 4q-13 0 -29.5 -7t-32.5 -19.5t-30 -29.5t-22 -38h-109q21 45 49.5 84.5t64.5 69t81 46.5t100 17q42 0 73.5 -13.5t63.5 -35.5q26 -15 55 -30t76 -15q14 0 30.5 7t32.5 19.5t29.5 29.5t22.5 38h109z" />
<glyph unicode="A&#x308;" horiz-adv-x="1378" d="M766 1155l-303 -532h391zM801 0v86l94 10q45 6 39 39l-62 391h-464l-209 -391q-11 -20 -0.5 -28t39.5 -11l94 -10v-86h-441v86l115 12l756 1309h164l221 -1272q3 -20 11 -28.5t30 -10.5l94 -10v-86h-481zM781 1713q0 -23 -9 -44t-24.5 -37t-36 -25t-43.5 -9q-22 0 -42 9 t-35 25t-24 36t-9 43q0 22 9 42.5t24 36.5t35 25.5t42 9.5q23 0 43.5 -9t36 -24t24.5 -35.5t9 -43.5zM1205 1713q0 -23 -8.5 -44t-23.5 -37t-35.5 -25t-43.5 -9t-43.5 9t-35.5 25t-24 37t-9 44q0 21 9.5 41.5t25 36t36 25t41.5 9.5q23 0 43.5 -9t35.5 -24t23.5 -35.5 t8.5 -43.5z" />
<glyph unicode="A&#x30a;" horiz-adv-x="1378" d="M766 1155l-303 -532h391zM801 0v86l94 10q45 6 39 39l-62 391h-464l-209 -391q-11 -20 -0.5 -28t39.5 -11l94 -10v-86h-441v86l115 12l756 1309h164l221 -1272q3 -20 11 -28.5t30 -10.5l94 -10v-86h-481zM1030 1797q0 48 -31 76t-78 28q-32 0 -61.5 -13t-53 -35 t-37.5 -51t-14 -61q0 -48 32.5 -77t78.5 -29q31 0 61 13.5t52.5 36t36.5 51.5t14 61zM850 1528q-43 0 -79.5 14.5t-63 40.5t-41.5 62t-15 78q0 56 23.5 107.5t63 91t91 63t107.5 23.5q43 0 79.5 -14.5t63.5 -41t42 -62.5t15 -79q0 -57 -23.5 -108t-63.5 -90t-91.5 -62 t-107.5 -23z" />
<glyph unicode="C&#x327;" horiz-adv-x="1290" d="M817 -229q0 -53 -23 -95.5t-63 -72t-92.5 -45t-110.5 -15.5q-23 0 -47.5 3t-46.5 6.5t-40.5 8t-29.5 7.5l19 82q23 -6 61 -14.5t72 -8.5q14 0 37 4t44.5 14.5t37.5 29.5t16 49q0 15 -6.5 25.5t-16 17t-21.5 9.5t-24 3q-9 0 -21 -5.5t-44 -21.5l42 222q-40 6 -76 16 q-82 23 -145 63t-109 95t-75 119.5t-43 135.5t-14 144q0 109 27 215t78 201.5t124 177t164.5 140.5t200 92.5t230.5 33.5q50 0 96 -5.5t93 -16t98 -26t110 -34.5l-55 -319h-121v190q0 16 -11.5 33t-25.5 22q-4 2 -18 10.5t-36.5 17.5t-52.5 16.5t-67 7.5q-79 0 -155 -25 t-144.5 -72t-126.5 -115t-100.5 -154.5t-66.5 -190.5t-24 -222q0 -116 33.5 -201t90.5 -141t133.5 -83t162.5 -27q33 0 60 4.5t46.5 10.5t31.5 11.5t16 7.5q12 2 26.5 14.5t20.5 26.5l88 234h121l-55 -332q-12 -4 -51.5 -17t-97 -27.5t-128.5 -26t-145 -11.5h-3l-16 -92 q8 2 15.5 3t15.5 1q137 0 137 -108z" />
<glyph unicode="E&#x300;" horiz-adv-x="1143" d="M1126 1067h-131v166q0 22 -8 30.5t-31 8.5h-393l-94 -504h274q22 0 33.5 8.5t18.5 30.5l39 137h114l-90 -469h-117l21 146q6 41 -39 41h-277l-106 -560h481q22 0 33.5 11.5t17.5 29.5l64 197h125l-68 -340h-1024v86l119 10q43 3 49 39l213 1102q3 17 -5 28t-34 13 l-114 10v86h991zM815 1528l-297 195q-21 14 -34 34.5t-13 51.5q0 15 4.5 31t15 29t28 21.5t44.5 8.5q22 0 37.5 -4t27.5 -10.5t21.5 -16t18.5 -20.5l274 -320h-127z" />
<glyph unicode="E&#x301;" horiz-adv-x="1143" d="M1126 1067h-131v166q0 22 -8 30.5t-31 8.5h-393l-94 -504h274q22 0 33.5 8.5t18.5 30.5l39 137h114l-90 -469h-117l21 146q6 41 -39 41h-277l-106 -560h481q22 0 33.5 11.5t17.5 29.5l64 197h125l-68 -340h-1024v86l119 10q43 3 49 39l213 1102q3 17 -5 28t-34 13 l-114 10v86h991zM1072 1811q0 -29 -13 -48.5t-36 -35.5l-307 -199h-144l279 320q10 12 21 21t24.5 16t31 10.5t40.5 3.5q27 0 46.5 -8t32 -20.5t19 -28.5t6.5 -31z" />
<glyph unicode="E&#x302;" horiz-adv-x="1143" d="M1126 1067h-131v166q0 22 -8 30.5t-31 8.5h-393l-94 -504h274q22 0 33.5 8.5t18.5 30.5l39 137h114l-90 -469h-117l21 146q6 41 -39 41h-277l-106 -560h481q22 0 33.5 11.5t17.5 29.5l64 197h125l-68 -340h-1024v86l119 10q43 3 49 39l213 1102q3 17 -5 28t-34 13 l-114 10v86h991zM946 1528l-168 189l-246 -189h-143l338 347h161l201 -347h-143z" />
<glyph unicode="E&#x308;" horiz-adv-x="1143" d="M1126 1067h-131v166q0 22 -8 30.5t-31 8.5h-393l-94 -504h274q22 0 33.5 8.5t18.5 30.5l39 137h114l-90 -469h-117l21 146q6 41 -39 41h-277l-106 -560h481q22 0 33.5 11.5t17.5 29.5l64 197h125l-68 -340h-1024v86l119 10q43 3 49 39l213 1102q3 17 -5 28t-34 13 l-114 10v86h991zM676 1713q0 -23 -9 -44t-24.5 -37t-36 -25t-43.5 -9q-22 0 -42 9t-35 25t-24 36t-9 43q0 22 9 42.5t24 36.5t35 25.5t42 9.5q23 0 43.5 -9t36 -24t24.5 -35.5t9 -43.5zM1100 1713q0 -23 -8.5 -44t-23.5 -37t-35.5 -25t-43.5 -9t-43.5 9t-35.5 25t-24 37 t-9 44q0 21 9.5 41.5t25 36t36 25t41.5 9.5q23 0 43.5 -9t35.5 -24t23.5 -35.5t8.5 -43.5z" />
<glyph unicode="I&#x300;" horiz-adv-x="643" d="M598 1278q-20 -2 -28 -11.5t-13 -29.5l-213 -1102q-3 -15 5 -26t36 -13l119 -10v-86h-535v86l129 10q19 2 27.5 11.5t11.5 27.5l213 1102q3 17 -5 28t-34 13l-114 10v86h532v-86zM569 1528l-297 195q-21 14 -34 34.5t-13 51.5q0 15 4.5 31t15 29t28 21.5t44.5 8.5 q22 0 37.5 -4t27.5 -10.5t21.5 -16t18.5 -20.5l274 -320h-127z" />
<glyph unicode="I&#x301;" horiz-adv-x="643" d="M598 1278q-20 -2 -28 -11.5t-13 -29.5l-213 -1102q-3 -15 5 -26t36 -13l119 -10v-86h-535v86l129 10q19 2 27.5 11.5t11.5 27.5l213 1102q3 17 -5 28t-34 13l-114 10v86h532v-86zM826 1811q0 -29 -13 -48.5t-36 -35.5l-307 -199h-144l279 320q10 12 21 21t24.5 16 t31 10.5t40.5 3.5q27 0 46.5 -8t32 -20.5t19 -28.5t6.5 -31z" />
<glyph unicode="I&#x302;" horiz-adv-x="643" d="M598 1278q-20 -2 -28 -11.5t-13 -29.5l-213 -1102q-3 -15 5 -26t36 -13l119 -10v-86h-535v86l129 10q19 2 27.5 11.5t11.5 27.5l213 1102q3 17 -5 28t-34 13l-114 10v86h532v-86zM700 1528l-168 189l-246 -189h-143l338 347h161l201 -347h-143z" />
<glyph unicode="I&#x308;" horiz-adv-x="643" d="M598 1278q-20 -2 -28 -11.5t-13 -29.5l-213 -1102q-3 -15 5 -26t36 -13l119 -10v-86h-535v86l129 10q19 2 27.5 11.5t11.5 27.5l213 1102q3 17 -5 28t-34 13l-114 10v86h532v-86zM430 1713q0 -23 -9 -44t-24.5 -37t-36 -25t-43.5 -9q-22 0 -42 9t-35 25t-24 36t-9 43 q0 22 9 42.5t24 36.5t35 25.5t42 9.5q23 0 43.5 -9t36 -24t24.5 -35.5t9 -43.5zM854 1713q0 -23 -8.5 -44t-23.5 -37t-35.5 -25t-43.5 -9t-43.5 9t-35.5 25t-24 37t-9 44q0 21 9.5 41.5t25 36t36 25t41.5 9.5q23 0 43.5 -9t35.5 -24t23.5 -35.5t8.5 -43.5z" />
<glyph unicode="N&#x303;" horiz-adv-x="1456" d="M1430 1278q-20 -2 -33.5 -11.5t-18.5 -29.5l-241 -1237h-148l-516 1087l-182 -952q-3 -15 5 -26t36 -13l114 -10v-86h-475v86l117 10q42 3 51 39l211 1102q3 17 -5 28t-34 13l-114 10v86h395v-53l461 -977l174 893q3 17 -5 28t-34 13l-117 10v86h475v-86zM1321 1815 q-22 -45 -50.5 -84.5t-65 -69t-81.5 -46.5t-100 -17q-42 0 -73 13.5t-63 33.5q-13 9 -26 17t-28.5 15t-34 11t-42.5 4q-13 0 -29.5 -7t-32.5 -19.5t-30 -29.5t-22 -38h-109q21 45 49.5 84.5t64.5 69t81 46.5t100 17q42 0 73.5 -13.5t63.5 -35.5q26 -15 55 -30t76 -15 q14 0 30.5 7t32.5 19.5t29.5 29.5t22.5 38h109z" />
<glyph unicode="O&#x300;" horiz-adv-x="1454" d="M1182 854q0 102 -25.5 185t-71 142.5t-108 91.5t-135.5 32q-75 0 -142 -33t-124 -90t-102.5 -133.5t-77.5 -163.5t-49 -180.5t-17 -184.5q0 -104 26.5 -186.5t72 -140t107.5 -88.5t134 -31q75 0 142 33.5t124 91.5t102.5 134.5t77.5 163.5t49 178.5t17 178.5zM1415 854 q0 -108 -23 -215.5t-67 -206.5t-109 -183.5t-149.5 -147.5t-188 -98.5t-223.5 -35.5q-123 0 -225 40.5t-176 115.5t-115 180t-41 234q0 110 25 217t72.5 204t115 179t152 142t185 94t212.5 34q127 0 230 -43.5t175 -118.5t111 -176t39 -215zM974 1528l-297 195 q-21 14 -34 34.5t-13 51.5q0 15 4.5 31t15 29t28 21.5t44.5 8.5q22 0 37.5 -4t27.5 -10.5t21.5 -16t18.5 -20.5l274 -320h-127z" />
<glyph unicode="O&#x301;" horiz-adv-x="1454" d="M1182 854q0 102 -25.5 185t-71 142.5t-108 91.5t-135.5 32q-75 0 -142 -33t-124 -90t-102.5 -133.5t-77.5 -163.5t-49 -180.5t-17 -184.5q0 -104 26.5 -186.5t72 -140t107.5 -88.5t134 -31q75 0 142 33.5t124 91.5t102.5 134.5t77.5 163.5t49 178.5t17 178.5zM1415 854 q0 -108 -23 -215.5t-67 -206.5t-109 -183.5t-149.5 -147.5t-188 -98.5t-223.5 -35.5q-123 0 -225 40.5t-176 115.5t-115 180t-41 234q0 110 25 217t72.5 204t115 179t152 142t185 94t212.5 34q127 0 230 -43.5t175 -118.5t111 -176t39 -215zM1231 1811q0 -29 -13 -48.5 t-36 -35.5l-307 -199h-144l279 320q10 12 21 21t24.5 16t31 10.5t40.5 3.5q27 0 46.5 -8t32 -20.5t19 -28.5t6.5 -31z" />
<glyph unicode="O&#x302;" horiz-adv-x="1454" d="M1182 854q0 102 -25.5 185t-71 142.5t-108 91.5t-135.5 32q-75 0 -142 -33t-124 -90t-102.5 -133.5t-77.5 -163.5t-49 -180.5t-17 -184.5q0 -104 26.5 -186.5t72 -140t107.5 -88.5t134 -31q75 0 142 33.5t124 91.5t102.5 134.5t77.5 163.5t49 178.5t17 178.5zM1415 854 q0 -108 -23 -215.5t-67 -206.5t-109 -183.5t-149.5 -147.5t-188 -98.5t-223.5 -35.5q-123 0 -225 40.5t-176 115.5t-115 180t-41 234q0 110 25 217t72.5 204t115 179t152 142t185 94t212.5 34q127 0 230 -43.5t175 -118.5t111 -176t39 -215zM1105 1528l-168 189l-246 -189 h-143l338 347h161l201 -347h-143z" />
<glyph unicode="O&#x303;" horiz-adv-x="1454" d="M1182 854q0 102 -25.5 185t-71 142.5t-108 91.5t-135.5 32q-75 0 -142 -33t-124 -90t-102.5 -133.5t-77.5 -163.5t-49 -180.5t-17 -184.5q0 -104 26.5 -186.5t72 -140t107.5 -88.5t134 -31q75 0 142 33.5t124 91.5t102.5 134.5t77.5 163.5t49 178.5t17 178.5zM1415 854 q0 -108 -23 -215.5t-67 -206.5t-109 -183.5t-149.5 -147.5t-188 -98.5t-223.5 -35.5q-123 0 -225 40.5t-176 115.5t-115 180t-41 234q0 110 25 217t72.5 204t115 179t152 142t185 94t212.5 34q127 0 230 -43.5t175 -118.5t111 -176t39 -215zM1328 1815q-22 -45 -50.5 -84.5 t-65 -69t-81.5 -46.5t-100 -17q-42 0 -73 13.5t-63 33.5q-13 9 -26 17t-28.5 15t-34 11t-42.5 4q-13 0 -29.5 -7t-32.5 -19.5t-30 -29.5t-22 -38h-109q21 45 49.5 84.5t64.5 69t81 46.5t100 17q42 0 73.5 -13.5t63.5 -35.5q26 -15 55 -30t76 -15q14 0 30.5 7t32.5 19.5 t29.5 29.5t22.5 38h109z" />
<glyph unicode="O&#x308;" horiz-adv-x="1454" d="M1182 854q0 102 -25.5 185t-71 142.5t-108 91.5t-135.5 32q-75 0 -142 -33t-124 -90t-102.5 -133.5t-77.5 -163.5t-49 -180.5t-17 -184.5q0 -104 26.5 -186.5t72 -140t107.5 -88.5t134 -31q75 0 142 33.5t124 91.5t102.5 134.5t77.5 163.5t49 178.5t17 178.5zM1415 854 q0 -108 -23 -215.5t-67 -206.5t-109 -183.5t-149.5 -147.5t-188 -98.5t-223.5 -35.5q-123 0 -225 40.5t-176 115.5t-115 180t-41 234q0 110 25 217t72.5 204t115 179t152 142t185 94t212.5 34q127 0 230 -43.5t175 -118.5t111 -176t39 -215zM835 1713q0 -23 -9 -44 t-24.5 -37t-36 -25t-43.5 -9q-22 0 -42 9t-35 25t-24 36t-9 43q0 22 9 42.5t24 36.5t35 25.5t42 9.5q23 0 43.5 -9t36 -24t24.5 -35.5t9 -43.5zM1259 1713q0 -23 -8.5 -44t-23.5 -37t-35.5 -25t-43.5 -9t-43.5 9t-35.5 25t-24 37t-9 44q0 21 9.5 41.5t25 36t36 25t41.5 9.5 q23 0 43.5 -9t35.5 -24t23.5 -35.5t8.5 -43.5z" />
<glyph unicode="U&#x300;" horiz-adv-x="1448" d="M1415 1278q-18 -2 -32 -11.5t-17 -29.5l-158 -799q-21 -111 -67 -198.5t-117.5 -148t-168 -92.5t-218.5 -32q-95 0 -176.5 19.5t-142.5 62.5t-95.5 111t-34.5 166q0 31 6.5 87t20.5 128l143 696q3 17 -5 28t-36 13l-114 10v86h532v-86l-121 -10q-18 -2 -32 -11.5 t-17 -29.5l-141 -696q-12 -60 -17.5 -107.5t-5.5 -75.5q0 -65 20.5 -113t58 -80.5t91 -48.5t119.5 -16q100 0 167.5 33.5t112.5 89.5t71 130.5t42 156.5l144 727q3 17 -5 28t-36 13l-115 10v86h463v-86zM981 1528l-297 195q-21 14 -34 34.5t-13 51.5q0 15 4.5 31t15 29 t28 21.5t44.5 8.5q22 0 37.5 -4t27.5 -10.5t21.5 -16t18.5 -20.5l274 -320h-127z" />
<glyph unicode="U&#x301;" horiz-adv-x="1448" d="M1415 1278q-18 -2 -32 -11.5t-17 -29.5l-158 -799q-21 -111 -67 -198.5t-117.5 -148t-168 -92.5t-218.5 -32q-95 0 -176.5 19.5t-142.5 62.5t-95.5 111t-34.5 166q0 31 6.5 87t20.5 128l143 696q3 17 -5 28t-36 13l-114 10v86h532v-86l-121 -10q-18 -2 -32 -11.5 t-17 -29.5l-141 -696q-12 -60 -17.5 -107.5t-5.5 -75.5q0 -65 20.5 -113t58 -80.5t91 -48.5t119.5 -16q100 0 167.5 33.5t112.5 89.5t71 130.5t42 156.5l144 727q3 17 -5 28t-36 13l-115 10v86h463v-86zM1238 1811q0 -29 -13 -48.5t-36 -35.5l-307 -199h-144l279 320 q10 12 21 21t24.5 16t31 10.5t40.5 3.5q27 0 46.5 -8t32 -20.5t19 -28.5t6.5 -31z" />
<glyph unicode="U&#x302;" horiz-adv-x="1448" d="M1415 1278q-18 -2 -32 -11.5t-17 -29.5l-158 -799q-21 -111 -67 -198.5t-117.5 -148t-168 -92.5t-218.5 -32q-95 0 -176.5 19.5t-142.5 62.5t-95.5 111t-34.5 166q0 31 6.5 87t20.5 128l143 696q3 17 -5 28t-36 13l-114 10v86h532v-86l-121 -10q-18 -2 -32 -11.5 t-17 -29.5l-141 -696q-12 -60 -17.5 -107.5t-5.5 -75.5q0 -65 20.5 -113t58 -80.5t91 -48.5t119.5 -16q100 0 167.5 33.5t112.5 89.5t71 130.5t42 156.5l144 727q3 17 -5 28t-36 13l-115 10v86h463v-86zM1112 1528l-168 189l-246 -189h-143l338 347h161l201 -347h-143z" />
<glyph unicode="U&#x308;" horiz-adv-x="1448" d="M1415 1278q-18 -2 -32 -11.5t-17 -29.5l-158 -799q-21 -111 -67 -198.5t-117.5 -148t-168 -92.5t-218.5 -32q-95 0 -176.5 19.5t-142.5 62.5t-95.5 111t-34.5 166q0 31 6.5 87t20.5 128l143 696q3 17 -5 28t-36 13l-114 10v86h532v-86l-121 -10q-18 -2 -32 -11.5 t-17 -29.5l-141 -696q-12 -60 -17.5 -107.5t-5.5 -75.5q0 -65 20.5 -113t58 -80.5t91 -48.5t119.5 -16q100 0 167.5 33.5t112.5 89.5t71 130.5t42 156.5l144 727q3 17 -5 28t-36 13l-115 10v86h463v-86zM842 1713q0 -23 -9 -44t-24.5 -37t-36 -25t-43.5 -9q-22 0 -42 9 t-35 25t-24 36t-9 43q0 22 9 42.5t24 36.5t35 25.5t42 9.5q23 0 43.5 -9t36 -24t24.5 -35.5t9 -43.5zM1266 1713q0 -23 -8.5 -44t-23.5 -37t-35.5 -25t-43.5 -9t-43.5 9t-35.5 25t-24 37t-9 44q0 21 9.5 41.5t25 36t36 25t41.5 9.5q23 0 43.5 -9t35.5 -24t23.5 -35.5 t8.5 -43.5z" />
<glyph unicode="Y&#x301;" horiz-adv-x="1309" d="M1341 1280q-15 -2 -30 -12.5t-23 -18.5l-520 -674l-86 -440q-5 -15 4 -26t35 -13l115 -10v-86h-533v86l119 10q18 2 31 11.5t18 27.5l84 422l-229 692q-7 20 -17.5 24.5t-21.5 6.5l-115 8v86h530v-86l-131 -8q-17 -2 -25.5 -13t-2.5 -28l168 -532l395 532q4 7 7 14 t2 12.5t-6.5 9.5t-18.5 5l-127 8v86h493v-86zM1166 1811q0 -29 -13 -48.5t-36 -35.5l-307 -199h-144l279 320q10 12 21 21t24.5 16t31 10.5t40.5 3.5q27 0 46.5 -8t32 -20.5t19 -28.5t6.5 -31z" />
<glyph unicode="a&#x300;" d="M760 803q1 5 -7.5 23t-20.5 37.5t-25.5 34.5t-22.5 15q-78 0 -139.5 -25.5t-107.5 -69t-78.5 -100.5t-52.5 -119t-29 -125t-9 -120q0 -43 7 -86t24.5 -78t48 -57t78.5 -22q36 0 72 16t67 37t54 42t34 32zM1061 55q-12 -5 -44 -18.5t-71.5 -27t-80 -24t-70.5 -10.5 q-37 0 -62.5 9t-42 27t-25.5 44t-12 60q-23 -22 -54 -46.5t-68.5 -45.5t-80 -34.5t-88.5 -13.5q-60 0 -105.5 17t-78.5 45.5t-54.5 66t-34.5 78t-18 82t-5 78.5q0 79 17 159.5t50.5 155t83.5 139.5t115.5 113t146 75.5t176.5 27.5q28 0 55.5 -6.5t51.5 -17t44 -23.5t34 -27 l30 49h140q-5 -12 -11 -28.5t-12 -33.5t-10.5 -32t-5.5 -23q-7 -27 -20 -81.5t-27.5 -122.5t-30 -142.5t-27.5 -141t-20 -118t-8 -74.5q0 -54 23 -74t65 -20q10 0 29.5 4.5t40.5 10.5t39 11t26 7v-74zM786 1128l-297 195q-21 14 -34 34.5t-13 51.5q0 15 4.5 31t15 29 t28 21.5t44.5 8.5q22 0 37.5 -4t27.5 -10.5t21.5 -16t18.5 -20.5l274 -320h-127z" />
<glyph unicode="a&#x301;" d="M760 803q1 5 -7.5 23t-20.5 37.5t-25.5 34.5t-22.5 15q-78 0 -139.5 -25.5t-107.5 -69t-78.5 -100.5t-52.5 -119t-29 -125t-9 -120q0 -43 7 -86t24.5 -78t48 -57t78.5 -22q36 0 72 16t67 37t54 42t34 32zM1061 55q-12 -5 -44 -18.5t-71.5 -27t-80 -24t-70.5 -10.5 q-37 0 -62.5 9t-42 27t-25.5 44t-12 60q-23 -22 -54 -46.5t-68.5 -45.5t-80 -34.5t-88.5 -13.5q-60 0 -105.5 17t-78.5 45.5t-54.5 66t-34.5 78t-18 82t-5 78.5q0 79 17 159.5t50.5 155t83.5 139.5t115.5 113t146 75.5t176.5 27.5q28 0 55.5 -6.5t51.5 -17t44 -23.5t34 -27 l30 49h140q-5 -12 -11 -28.5t-12 -33.5t-10.5 -32t-5.5 -23q-7 -27 -20 -81.5t-27.5 -122.5t-30 -142.5t-27.5 -141t-20 -118t-8 -74.5q0 -54 23 -74t65 -20q10 0 29.5 4.5t40.5 10.5t39 11t26 7v-74zM1043 1411q0 -29 -13 -48.5t-36 -35.5l-307 -199h-144l279 320 q10 12 21 21t24.5 16t31 10.5t40.5 3.5q27 0 46.5 -8t32 -20.5t19 -28.5t6.5 -31z" />
<glyph unicode="a&#x302;" d="M760 803q1 5 -7.5 23t-20.5 37.5t-25.5 34.5t-22.5 15q-78 0 -139.5 -25.5t-107.5 -69t-78.5 -100.5t-52.5 -119t-29 -125t-9 -120q0 -43 7 -86t24.5 -78t48 -57t78.5 -22q36 0 72 16t67 37t54 42t34 32zM1061 55q-12 -5 -44 -18.5t-71.5 -27t-80 -24t-70.5 -10.5 q-37 0 -62.5 9t-42 27t-25.5 44t-12 60q-23 -22 -54 -46.5t-68.5 -45.5t-80 -34.5t-88.5 -13.5q-60 0 -105.5 17t-78.5 45.5t-54.5 66t-34.5 78t-18 82t-5 78.5q0 79 17 159.5t50.5 155t83.5 139.5t115.5 113t146 75.5t176.5 27.5q28 0 55.5 -6.5t51.5 -17t44 -23.5t34 -27 l30 49h140q-5 -12 -11 -28.5t-12 -33.5t-10.5 -32t-5.5 -23q-7 -27 -20 -81.5t-27.5 -122.5t-30 -142.5t-27.5 -141t-20 -118t-8 -74.5q0 -54 23 -74t65 -20q10 0 29.5 4.5t40.5 10.5t39 11t26 7v-74zM917 1128l-168 189l-246 -189h-143l338 347h161l201 -347h-143z" />
<glyph unicode="a&#x303;" d="M760 803q1 5 -7.5 23t-20.5 37.5t-25.5 34.5t-22.5 15q-78 0 -139.5 -25.5t-107.5 -69t-78.5 -100.5t-52.5 -119t-29 -125t-9 -120q0 -43 7 -86t24.5 -78t48 -57t78.5 -22q36 0 72 16t67 37t54 42t34 32zM1061 55q-12 -5 -44 -18.5t-71.5 -27t-80 -24t-70.5 -10.5 q-37 0 -62.5 9t-42 27t-25.5 44t-12 60q-23 -22 -54 -46.5t-68.5 -45.5t-80 -34.5t-88.5 -13.5q-60 0 -105.5 17t-78.5 45.5t-54.5 66t-34.5 78t-18 82t-5 78.5q0 79 17 159.5t50.5 155t83.5 139.5t115.5 113t146 75.5t176.5 27.5q28 0 55.5 -6.5t51.5 -17t44 -23.5t34 -27 l30 49h140q-5 -12 -11 -28.5t-12 -33.5t-10.5 -32t-5.5 -23q-7 -27 -20 -81.5t-27.5 -122.5t-30 -142.5t-27.5 -141t-20 -118t-8 -74.5q0 -54 23 -74t65 -20q10 0 29.5 4.5t40.5 10.5t39 11t26 7v-74zM1140 1415q-22 -45 -50.5 -84.5t-65 -69t-81.5 -46.5t-100 -17 q-42 0 -73 13.5t-63 33.5q-13 9 -26 17t-28.5 15t-34 11t-42.5 4q-13 0 -29.5 -7t-32.5 -19.5t-30 -29.5t-22 -38h-109q21 45 49.5 84.5t64.5 69t81 46.5t100 17q42 0 73.5 -13.5t63.5 -35.5q26 -15 55 -30t76 -15q14 0 30.5 7t32.5 19.5t29.5 29.5t22.5 38h109z" />
<glyph unicode="a&#x308;" d="M760 803q1 5 -7.5 23t-20.5 37.5t-25.5 34.5t-22.5 15q-78 0 -139.5 -25.5t-107.5 -69t-78.5 -100.5t-52.5 -119t-29 -125t-9 -120q0 -43 7 -86t24.5 -78t48 -57t78.5 -22q36 0 72 16t67 37t54 42t34 32zM1061 55q-12 -5 -44 -18.5t-71.5 -27t-80 -24t-70.5 -10.5 q-37 0 -62.5 9t-42 27t-25.5 44t-12 60q-23 -22 -54 -46.5t-68.5 -45.5t-80 -34.5t-88.5 -13.5q-60 0 -105.5 17t-78.5 45.5t-54.5 66t-34.5 78t-18 82t-5 78.5q0 79 17 159.5t50.5 155t83.5 139.5t115.5 113t146 75.5t176.5 27.5q28 0 55.5 -6.5t51.5 -17t44 -23.5t34 -27 l30 49h140q-5 -12 -11 -28.5t-12 -33.5t-10.5 -32t-5.5 -23q-7 -27 -20 -81.5t-27.5 -122.5t-30 -142.5t-27.5 -141t-20 -118t-8 -74.5q0 -54 23 -74t65 -20q10 0 29.5 4.5t40.5 10.5t39 11t26 7v-74zM647 1313q0 -23 -9 -44t-24.5 -37t-36 -25t-43.5 -9q-22 0 -42 9t-35 25 t-24 36t-9 43q0 22 9 42.5t24 36.5t35 25.5t42 9.5q23 0 43.5 -9t36 -24t24.5 -35.5t9 -43.5zM1071 1313q0 -23 -8.5 -44t-23.5 -37t-35.5 -25t-43.5 -9t-43.5 9t-35.5 25t-24 37t-9 44q0 21 9.5 41.5t25 36t36 25t41.5 9.5q23 0 43.5 -9t35.5 -24t23.5 -35.5t8.5 -43.5z " />
<glyph unicode="a&#x30a;" d="M760 803q1 5 -7.5 23t-20.5 37.5t-25.5 34.5t-22.5 15q-78 0 -139.5 -25.5t-107.5 -69t-78.5 -100.5t-52.5 -119t-29 -125t-9 -120q0 -43 7 -86t24.5 -78t48 -57t78.5 -22q36 0 72 16t67 37t54 42t34 32zM1061 55q-12 -5 -44 -18.5t-71.5 -27t-80 -24t-70.5 -10.5 q-37 0 -62.5 9t-42 27t-25.5 44t-12 60q-23 -22 -54 -46.5t-68.5 -45.5t-80 -34.5t-88.5 -13.5q-60 0 -105.5 17t-78.5 45.5t-54.5 66t-34.5 78t-18 82t-5 78.5q0 79 17 159.5t50.5 155t83.5 139.5t115.5 113t146 75.5t176.5 27.5q28 0 55.5 -6.5t51.5 -17t44 -23.5t34 -27 l30 49h140q-5 -12 -11 -28.5t-12 -33.5t-10.5 -32t-5.5 -23q-7 -27 -20 -81.5t-27.5 -122.5t-30 -142.5t-27.5 -141t-20 -118t-8 -74.5q0 -54 23 -74t65 -20q10 0 29.5 4.5t40.5 10.5t39 11t26 7v-74zM896 1397q0 48 -31 76t-78 28q-32 0 -61.5 -13t-53 -35t-37.5 -51 t-14 -61q0 -48 32.5 -77t78.5 -29q31 0 61 13.5t52.5 36t36.5 51.5t14 61zM716 1128q-43 0 -79.5 14.5t-63 40.5t-41.5 62t-15 78q0 56 23.5 107.5t63 91t91 63t107.5 23.5q43 0 79.5 -14.5t63.5 -41t42 -62.5t15 -79q0 -57 -23.5 -108t-63.5 -90t-91.5 -62t-107.5 -23z" />
<glyph unicode="c&#x327;" horiz-adv-x="891" d="M608 -229q0 -53 -23 -95.5t-63 -72t-92.5 -45t-110.5 -15.5q-23 0 -47.5 3t-46.5 6.5t-40.5 8t-29.5 7.5l19 82q23 -6 61 -14.5t72 -8.5q14 0 37 4t44.5 14.5t37.5 29.5t16 49q0 15 -6.5 25.5t-16 17t-21.5 9.5t-24 3q-9 0 -21 -5.5t-44 -21.5l42 224q-55 5 -102 24 q-58 26 -98.5 74.5t-62.5 119.5t-22 162q0 92 21.5 176t59.5 157t90 132.5t113 102t129 65.5t137 23q55 0 95 -14t65 -35t37 -46.5t12 -48.5q0 -20 -6 -41t-23.5 -39t-48 -32.5t-79.5 -20.5l-117 158q-55 -3 -98 -30.5t-75.5 -70.5t-55 -97.5t-36.5 -110.5t-20 -109t-6 -94 q0 -50 9.5 -98.5t31 -87t56 -62.5t85.5 -24q41 0 83 14.5t84.5 40.5t85.5 62t87 79v-129q-32 -31 -73 -66t-91 -65t-110 -50q-24 -8 -49 -12l-19 -108q8 2 15.5 3t15.5 1q137 0 137 -108z" />
<glyph unicode="e&#x300;" horiz-adv-x="889" d="M672 807q0 20 -8 39.5t-22 34.5t-35 24.5t-46 9.5q-34 0 -65 -18t-59.5 -48t-53 -69t-44 -82t-34.5 -87t-24 -83q65 6 134.5 30t126.5 61.5t93.5 85.5t36.5 102zM854 805q0 -56 -26 -103t-70.5 -85t-103 -67.5t-123 -50t-131.5 -33t-128 -15.5q-3 -20 -5.5 -48t-2.5 -47 q0 -56 13.5 -103t39 -81.5t61.5 -54t81 -19.5q69 0 152 50t196 149v-129q-29 -28 -71 -61.5t-95.5 -63t-116.5 -49t-133 -19.5q-31 0 -67.5 6t-72.5 21.5t-69.5 42.5t-59 68.5t-41 99t-15.5 135.5q0 81 19.5 161.5t55 154t85.5 137t110 110t128.5 73t141.5 26.5 q71 0 118.5 -23.5t76.5 -56.5t41 -68t12 -57zM681 1128l-297 195q-21 14 -34 34.5t-13 51.5q0 15 4.5 31t15 29t28 21.5t44.5 8.5q22 0 37.5 -4t27.5 -10.5t21.5 -16t18.5 -20.5l274 -320h-127z" />
<glyph unicode="e&#x301;" horiz-adv-x="889" d="M672 807q0 20 -8 39.5t-22 34.5t-35 24.5t-46 9.5q-34 0 -65 -18t-59.5 -48t-53 -69t-44 -82t-34.5 -87t-24 -83q65 6 134.5 30t126.5 61.5t93.5 85.5t36.5 102zM854 805q0 -56 -26 -103t-70.5 -85t-103 -67.5t-123 -50t-131.5 -33t-128 -15.5q-3 -20 -5.5 -48t-2.5 -47 q0 -56 13.5 -103t39 -81.5t61.5 -54t81 -19.5q69 0 152 50t196 149v-129q-29 -28 -71 -61.5t-95.5 -63t-116.5 -49t-133 -19.5q-31 0 -67.5 6t-72.5 21.5t-69.5 42.5t-59 68.5t-41 99t-15.5 135.5q0 81 19.5 161.5t55 154t85.5 137t110 110t128.5 73t141.5 26.5 q71 0 118.5 -23.5t76.5 -56.5t41 -68t12 -57zM938 1411q0 -29 -13 -48.5t-36 -35.5l-307 -199h-144l279 320q10 12 21 21t24.5 16t31 10.5t40.5 3.5q27 0 46.5 -8t32 -20.5t19 -28.5t6.5 -31z" />
<glyph unicode="e&#x302;" horiz-adv-x="889" d="M672 807q0 20 -8 39.5t-22 34.5t-35 24.5t-46 9.5q-34 0 -65 -18t-59.5 -48t-53 -69t-44 -82t-34.5 -87t-24 -83q65 6 134.5 30t126.5 61.5t93.5 85.5t36.5 102zM854 805q0 -56 -26 -103t-70.5 -85t-103 -67.5t-123 -50t-131.5 -33t-128 -15.5q-3 -20 -5.5 -48t-2.5 -47 q0 -56 13.5 -103t39 -81.5t61.5 -54t81 -19.5q69 0 152 50t196 149v-129q-29 -28 -71 -61.5t-95.5 -63t-116.5 -49t-133 -19.5q-31 0 -67.5 6t-72.5 21.5t-69.5 42.5t-59 68.5t-41 99t-15.5 135.5q0 81 19.5 161.5t55 154t85.5 137t110 110t128.5 73t141.5 26.5 q71 0 118.5 -23.5t76.5 -56.5t41 -68t12 -57zM812 1128l-168 189l-246 -189h-143l338 347h161l201 -347h-143z" />
<glyph unicode="e&#x308;" horiz-adv-x="889" d="M672 807q0 20 -8 39.5t-22 34.5t-35 24.5t-46 9.5q-34 0 -65 -18t-59.5 -48t-53 -69t-44 -82t-34.5 -87t-24 -83q65 6 134.5 30t126.5 61.5t93.5 85.5t36.5 102zM854 805q0 -56 -26 -103t-70.5 -85t-103 -67.5t-123 -50t-131.5 -33t-128 -15.5q-3 -20 -5.5 -48t-2.5 -47 q0 -56 13.5 -103t39 -81.5t61.5 -54t81 -19.5q69 0 152 50t196 149v-129q-29 -28 -71 -61.5t-95.5 -63t-116.5 -49t-133 -19.5q-31 0 -67.5 6t-72.5 21.5t-69.5 42.5t-59 68.5t-41 99t-15.5 135.5q0 81 19.5 161.5t55 154t85.5 137t110 110t128.5 73t141.5 26.5 q71 0 118.5 -23.5t76.5 -56.5t41 -68t12 -57zM542 1313q0 -23 -9 -44t-24.5 -37t-36 -25t-43.5 -9q-22 0 -42 9t-35 25t-24 36t-9 43q0 22 9 42.5t24 36.5t35 25.5t42 9.5q23 0 43.5 -9t36 -24t24.5 -35.5t9 -43.5zM966 1313q0 -23 -8.5 -44t-23.5 -37t-35.5 -25t-43.5 -9 t-43.5 9t-35.5 25t-24 37t-9 44q0 21 9.5 41.5t25 36t36 25t41.5 9.5q23 0 43.5 -9t35.5 -24t23.5 -35.5t8.5 -43.5z" />
<glyph unicode="i&#x300;" horiz-adv-x="545" d="M539 59q-12 -5 -44 -19t-75 -28.5t-90.5 -25.5t-89.5 -11q-53 0 -84 18t-46 47t-17 65t5 71l131 694l-176 19v59l309 64h84l-155 -819q-4 -21 0.5 -40t15 -33.5t27 -23t37.5 -8.5q18 0 42.5 6.5t49 15t45.5 16.5t31 11v-78zM461 1128l-297 195q-21 14 -34 34.5t-13 51.5 q0 15 4.5 31t15 29t28 21.5t44.5 8.5q22 0 37.5 -4t27.5 -10.5t21.5 -16t18.5 -20.5l274 -320h-127z" />
<glyph unicode="i&#x301;" horiz-adv-x="545" d="M539 59q-12 -5 -44 -19t-75 -28.5t-90.5 -25.5t-89.5 -11q-53 0 -84 18t-46 47t-17 65t5 71l131 694l-176 19v59l309 64h84l-155 -819q-4 -21 0.5 -40t15 -33.5t27 -23t37.5 -8.5q18 0 42.5 6.5t49 15t45.5 16.5t31 11v-78zM718 1411q0 -29 -13 -48.5t-36 -35.5 l-307 -199h-144l279 320q10 12 21 21t24.5 16t31 10.5t40.5 3.5q27 0 46.5 -8t32 -20.5t19 -28.5t6.5 -31z" />
<glyph unicode="i&#x302;" horiz-adv-x="545" d="M539 59q-12 -5 -44 -19t-75 -28.5t-90.5 -25.5t-89.5 -11q-53 0 -84 18t-46 47t-17 65t5 71l131 694l-176 19v59l309 64h84l-155 -819q-4 -21 0.5 -40t15 -33.5t27 -23t37.5 -8.5q18 0 42.5 6.5t49 15t45.5 16.5t31 11v-78zM592 1128l-168 189l-246 -189h-143l338 347 h161l201 -347h-143z" />
<glyph unicode="i&#x308;" horiz-adv-x="545" d="M539 59q-12 -5 -44 -19t-75 -28.5t-90.5 -25.5t-89.5 -11q-53 0 -84 18t-46 47t-17 65t5 71l131 694l-176 19v59l309 64h84l-155 -819q-4 -21 0.5 -40t15 -33.5t27 -23t37.5 -8.5q18 0 42.5 6.5t49 15t45.5 16.5t31 11v-78zM322 1313q0 -23 -9 -44t-24.5 -37t-36 -25 t-43.5 -9q-22 0 -42 9t-35 25t-24 36t-9 43q0 22 9 42.5t24 36.5t35 25.5t42 9.5q23 0 43.5 -9t36 -24t24.5 -35.5t9 -43.5zM746 1313q0 -23 -8.5 -44t-23.5 -37t-35.5 -25t-43.5 -9t-43.5 9t-35.5 25t-24 37t-9 44q0 21 9.5 41.5t25 36t36 25t41.5 9.5q23 0 43.5 -9 t35.5 -24t23.5 -35.5t8.5 -43.5z" />
<glyph unicode="n&#x303;" horiz-adv-x="1085" d="M1079 41q-13 -5 -45.5 -15.5t-72.5 -22t-82 -20t-74 -8.5q-18 0 -49.5 3.5t-60.5 16t-47 36.5t-9 65l125 629q7 41 0.5 68t-21 43.5t-33.5 23t-36 6.5q-25 0 -61.5 -14.5t-77 -38.5t-81.5 -56.5t-75 -68.5l-141 -688h-191l178 870l-172 19v59l309 64h82l-38 -191 q34 34 78 68.5t94 61.5t103.5 44t104.5 17q112 0 159.5 -62t23.5 -200l-109 -578q-5 -29 4.5 -46t25 -26t32.5 -11.5t26 -2.5q28 0 61 8t68 19zM1085 1415q-22 -45 -50.5 -84.5t-65 -69t-81.5 -46.5t-100 -17q-42 0 -73 13.5t-63 33.5q-13 9 -26 17t-28.5 15t-34 11t-42.5 4 q-13 0 -29.5 -7t-32.5 -19.5t-30 -29.5t-22 -38h-109q21 45 49.5 84.5t64.5 69t81 46.5t100 17q42 0 73.5 -13.5t63.5 -35.5q26 -15 55 -30t76 -15q14 0 30.5 7t32.5 19.5t29.5 29.5t22.5 38h109z" />
<glyph unicode="o&#x300;" horiz-adv-x="1036" d="M766 623q0 73 -14 129t-38 94t-57.5 58t-72.5 20q-67 0 -124.5 -48.5t-99.5 -127t-66 -177t-24 -198.5q0 -76 14 -133t39 -95.5t58 -57.5t72 -19q48 0 90.5 24.5t77 66t61.5 96.5t46 116.5t28.5 126.5t9.5 125zM973 614q0 -83 -18.5 -162.5t-53 -150.5t-83 -130.5 t-109 -103t-131.5 -68t-150 -24.5q-84 0 -152 27t-115 77.5t-72.5 122t-25.5 160.5q0 83 18 163.5t51.5 152.5t81.5 133.5t108.5 106t132 69.5t151.5 25q74 0 140.5 -23t117 -72t80 -124t29.5 -179zM724 1128l-297 195q-21 14 -34 34.5t-13 51.5q0 15 4.5 31t15 29t28 21.5 t44.5 8.5q22 0 37.5 -4t27.5 -10.5t21.5 -16t18.5 -20.5l274 -320h-127z" />
<glyph unicode="o&#x301;" horiz-adv-x="1036" d="M766 623q0 73 -14 129t-38 94t-57.5 58t-72.5 20q-67 0 -124.5 -48.5t-99.5 -127t-66 -177t-24 -198.5q0 -76 14 -133t39 -95.5t58 -57.5t72 -19q48 0 90.5 24.5t77 66t61.5 96.5t46 116.5t28.5 126.5t9.5 125zM973 614q0 -83 -18.5 -162.5t-53 -150.5t-83 -130.5 t-109 -103t-131.5 -68t-150 -24.5q-84 0 -152 27t-115 77.5t-72.5 122t-25.5 160.5q0 83 18 163.5t51.5 152.5t81.5 133.5t108.5 106t132 69.5t151.5 25q74 0 140.5 -23t117 -72t80 -124t29.5 -179zM981 1411q0 -29 -13 -48.5t-36 -35.5l-307 -199h-144l279 320q10 12 21 21 t24.5 16t31 10.5t40.5 3.5q27 0 46.5 -8t32 -20.5t19 -28.5t6.5 -31z" />
<glyph unicode="o&#x302;" horiz-adv-x="1036" d="M766 623q0 73 -14 129t-38 94t-57.5 58t-72.5 20q-67 0 -124.5 -48.5t-99.5 -127t-66 -177t-24 -198.5q0 -76 14 -133t39 -95.5t58 -57.5t72 -19q48 0 90.5 24.5t77 66t61.5 96.5t46 116.5t28.5 126.5t9.5 125zM973 614q0 -83 -18.5 -162.5t-53 -150.5t-83 -130.5 t-109 -103t-131.5 -68t-150 -24.5q-84 0 -152 27t-115 77.5t-72.5 122t-25.5 160.5q0 83 18 163.5t51.5 152.5t81.5 133.5t108.5 106t132 69.5t151.5 25q74 0 140.5 -23t117 -72t80 -124t29.5 -179zM855 1128l-168 189l-246 -189h-143l338 347h161l201 -347h-143z" />
<glyph unicode="o&#x303;" horiz-adv-x="1036" d="M766 623q0 73 -14 129t-38 94t-57.5 58t-72.5 20q-67 0 -124.5 -48.5t-99.5 -127t-66 -177t-24 -198.5q0 -76 14 -133t39 -95.5t58 -57.5t72 -19q48 0 90.5 24.5t77 66t61.5 96.5t46 116.5t28.5 126.5t9.5 125zM973 614q0 -83 -18.5 -162.5t-53 -150.5t-83 -130.5 t-109 -103t-131.5 -68t-150 -24.5q-84 0 -152 27t-115 77.5t-72.5 122t-25.5 160.5q0 83 18 163.5t51.5 152.5t81.5 133.5t108.5 106t132 69.5t151.5 25q74 0 140.5 -23t117 -72t80 -124t29.5 -179zM1078 1415q-22 -45 -50.5 -84.5t-65 -69t-81.5 -46.5t-100 -17 q-42 0 -73 13.5t-63 33.5q-13 9 -26 17t-28.5 15t-34 11t-42.5 4q-13 0 -29.5 -7t-32.5 -19.5t-30 -29.5t-22 -38h-109q21 45 49.5 84.5t64.5 69t81 46.5t100 17q42 0 73.5 -13.5t63.5 -35.5q26 -15 55 -30t76 -15q14 0 30.5 7t32.5 19.5t29.5 29.5t22.5 38h109z" />
<glyph unicode="o&#x308;" horiz-adv-x="1036" d="M766 623q0 73 -14 129t-38 94t-57.5 58t-72.5 20q-67 0 -124.5 -48.5t-99.5 -127t-66 -177t-24 -198.5q0 -76 14 -133t39 -95.5t58 -57.5t72 -19q48 0 90.5 24.5t77 66t61.5 96.5t46 116.5t28.5 126.5t9.5 125zM973 614q0 -83 -18.5 -162.5t-53 -150.5t-83 -130.5 t-109 -103t-131.5 -68t-150 -24.5q-84 0 -152 27t-115 77.5t-72.5 122t-25.5 160.5q0 83 18 163.5t51.5 152.5t81.5 133.5t108.5 106t132 69.5t151.5 25q74 0 140.5 -23t117 -72t80 -124t29.5 -179zM585 1313q0 -23 -9 -44t-24.5 -37t-36 -25t-43.5 -9q-22 0 -42 9t-35 25 t-24 36t-9 43q0 22 9 42.5t24 36.5t35 25.5t42 9.5q23 0 43.5 -9t36 -24t24.5 -35.5t9 -43.5zM1009 1313q0 -23 -8.5 -44t-23.5 -37t-35.5 -25t-43.5 -9t-43.5 9t-35.5 25t-24 37t-9 44q0 21 9.5 41.5t25 36t36 25t41.5 9.5q23 0 43.5 -9t35.5 -24t23.5 -35.5t8.5 -43.5z " />
<glyph unicode="u&#x300;" horiz-adv-x="1079" d="M1073 49q-19 -11 -52.5 -24t-72.5 -24t-79.5 -18.5t-73.5 -7.5q-58 0 -86 19.5t-38.5 45t-9.5 51.5t1 38q-81 -77 -169.5 -115.5t-191.5 -38.5q-71 0 -116 25t-68 63t-28 83t3 85l133 639l-172 19v59l309 64h84l-163 -781q-6 -26 2.5 -49.5t25 -41t37.5 -28t41 -10.5 q37 0 74.5 10.5t74.5 28.5t71 41.5t63 50.5l155 754h191l-164 -788q-7 -32 0 -53.5t21.5 -35.5t33 -20t35.5 -6q20 0 53 6t76 31v-72zM737 1128l-297 195q-21 14 -34 34.5t-13 51.5q0 15 4.5 31t15 29t28 21.5t44.5 8.5q22 0 37.5 -4t27.5 -10.5t21.5 -16t18.5 -20.5 l274 -320h-127z" />
<glyph unicode="u&#x301;" horiz-adv-x="1079" d="M1073 49q-19 -11 -52.5 -24t-72.5 -24t-79.5 -18.5t-73.5 -7.5q-58 0 -86 19.5t-38.5 45t-9.5 51.5t1 38q-81 -77 -169.5 -115.5t-191.5 -38.5q-71 0 -116 25t-68 63t-28 83t3 85l133 639l-172 19v59l309 64h84l-163 -781q-6 -26 2.5 -49.5t25 -41t37.5 -28t41 -10.5 q37 0 74.5 10.5t74.5 28.5t71 41.5t63 50.5l155 754h191l-164 -788q-7 -32 0 -53.5t21.5 -35.5t33 -20t35.5 -6q20 0 53 6t76 31v-72zM994 1411q0 -29 -13 -48.5t-36 -35.5l-307 -199h-144l279 320q10 12 21 21t24.5 16t31 10.5t40.5 3.5q27 0 46.5 -8t32 -20.5t19 -28.5 t6.5 -31z" />
<glyph unicode="u&#x302;" horiz-adv-x="1079" d="M1073 49q-19 -11 -52.5 -24t-72.5 -24t-79.5 -18.5t-73.5 -7.5q-58 0 -86 19.5t-38.5 45t-9.5 51.5t1 38q-81 -77 -169.5 -115.5t-191.5 -38.5q-71 0 -116 25t-68 63t-28 83t3 85l133 639l-172 19v59l309 64h84l-163 -781q-6 -26 2.5 -49.5t25 -41t37.5 -28t41 -10.5 q37 0 74.5 10.5t74.5 28.5t71 41.5t63 50.5l155 754h191l-164 -788q-7 -32 0 -53.5t21.5 -35.5t33 -20t35.5 -6q20 0 53 6t76 31v-72zM868 1128l-168 189l-246 -189h-143l338 347h161l201 -347h-143z" />
<glyph unicode="u&#x308;" horiz-adv-x="1079" d="M1073 49q-19 -11 -52.5 -24t-72.5 -24t-79.5 -18.5t-73.5 -7.5q-58 0 -86 19.5t-38.5 45t-9.5 51.5t1 38q-81 -77 -169.5 -115.5t-191.5 -38.5q-71 0 -116 25t-68 63t-28 83t3 85l133 639l-172 19v59l309 64h84l-163 -781q-6 -26 2.5 -49.5t25 -41t37.5 -28t41 -10.5 q37 0 74.5 10.5t74.5 28.5t71 41.5t63 50.5l155 754h191l-164 -788q-7 -32 0 -53.5t21.5 -35.5t33 -20t35.5 -6q20 0 53 6t76 31v-72zM598 1313q0 -23 -9 -44t-24.5 -37t-36 -25t-43.5 -9q-22 0 -42 9t-35 25t-24 36t-9 43q0 22 9 42.5t24 36.5t35 25.5t42 9.5q23 0 43.5 -9 t36 -24t24.5 -35.5t9 -43.5zM1022 1313q0 -23 -8.5 -44t-23.5 -37t-35.5 -25t-43.5 -9t-43.5 9t-35.5 25t-24 37t-9 44q0 21 9.5 41.5t25 36t36 25t41.5 9.5q23 0 43.5 -9t35.5 -24t23.5 -35.5t8.5 -43.5z" />
<glyph unicode="y&#x301;" horiz-adv-x="1018" d="M971 846q-12 -12 -35 -44t-47.5 -72t-48 -82.5t-37.5 -74.5q-22 -49 -51.5 -119t-66 -150.5t-79.5 -167t-92 -169.5q-48 -81 -102.5 -159.5t-115.5 -140t-128.5 -99t-140.5 -37.5q-56 0 -93 14t-59 34.5t-30.5 44t-8.5 42.5q0 23 10.5 44.5t29.5 38t45 26.5t56 12 l119 -119q32 3 63 25.5t65.5 67.5t75.5 113t93 163q-2 12 -10 53.5t-19.5 101t-26 131.5t-30.5 146q-16 72 -33.5 144.5t-34 130.5t-29.5 95t-20 38l-186 14v51l28 9q20 7 44 14.5t51 16t51 15t43.5 11t28.5 4.5q33 0 58 -15.5t44.5 -44.5t36 -69.5t31.5 -91.5 q26 -91 54 -225.5t58 -299.5l312 746h59l170 -56v-47zM952 1411q0 -29 -13 -48.5t-36 -35.5l-307 -199h-144l279 320q10 12 21 21t24.5 16t31 10.5t40.5 3.5q27 0 46.5 -8t32 -20.5t19 -28.5t6.5 -31z" />
<glyph unicode="y&#x308;" horiz-adv-x="1018" d="M971 846q-12 -12 -35 -44t-47.5 -72t-48 -82.5t-37.5 -74.5q-22 -49 -51.5 -119t-66 -150.5t-79.5 -167t-92 -169.5q-48 -81 -102.5 -159.5t-115.5 -140t-128.5 -99t-140.5 -37.5q-56 0 -93 14t-59 34.5t-30.5 44t-8.5 42.5q0 23 10.5 44.5t29.5 38t45 26.5t56 12 l119 -119q32 3 63 25.5t65.5 67.5t75.5 113t93 163q-2 12 -10 53.5t-19.5 101t-26 131.5t-30.5 146q-16 72 -33.5 144.5t-34 130.5t-29.5 95t-20 38l-186 14v51l28 9q20 7 44 14.5t51 16t51 15t43.5 11t28.5 4.5q33 0 58 -15.5t44.5 -44.5t36 -69.5t31.5 -91.5 q26 -91 54 -225.5t58 -299.5l312 746h59l170 -56v-47zM556 1313q0 -23 -9 -44t-24.5 -37t-36 -25t-43.5 -9q-22 0 -42 9t-35 25t-24 36t-9 43q0 22 9 42.5t24 36.5t35 25.5t42 9.5q23 0 43.5 -9t36 -24t24.5 -35.5t9 -43.5zM980 1313q0 -23 -8.5 -44t-23.5 -37t-35.5 -25 t-43.5 -9t-43.5 9t-35.5 25t-24 37t-9 44q0 21 9.5 41.5t25 36t36 25t41.5 9.5q23 0 43.5 -9t35.5 -24t23.5 -35.5t8.5 -43.5z" />
<glyph unicode="A&#x304;" horiz-adv-x="1378" d="M766 1155l-303 -532h391zM801 0v86l94 10q45 6 39 39l-62 391h-464l-209 -391q-11 -20 -0.5 -28t39.5 -11l94 -10v-86h-441v86l115 12l756 1309h164l221 -1272q3 -20 11 -28.5t30 -10.5l94 -10v-86h-481zM1169 1600h-620l29 135h617z" />
<glyph unicode="a&#x304;" d="M760 803q1 5 -7.5 23t-20.5 37.5t-25.5 34.5t-22.5 15q-78 0 -139.5 -25.5t-107.5 -69t-78.5 -100.5t-52.5 -119t-29 -125t-9 -120q0 -43 7 -86t24.5 -78t48 -57t78.5 -22q36 0 72 16t67 37t54 42t34 32zM1061 55q-12 -5 -44 -18.5t-71.5 -27t-80 -24t-70.5 -10.5 q-37 0 -62.5 9t-42 27t-25.5 44t-12 60q-23 -22 -54 -46.5t-68.5 -45.5t-80 -34.5t-88.5 -13.5q-60 0 -105.5 17t-78.5 45.5t-54.5 66t-34.5 78t-18 82t-5 78.5q0 79 17 159.5t50.5 155t83.5 139.5t115.5 113t146 75.5t176.5 27.5q28 0 55.5 -6.5t51.5 -17t44 -23.5t34 -27 l30 49h140q-5 -12 -11 -28.5t-12 -33.5t-10.5 -32t-5.5 -23q-7 -27 -20 -81.5t-27.5 -122.5t-30 -142.5t-27.5 -141t-20 -118t-8 -74.5q0 -54 23 -74t65 -20q10 0 29.5 4.5t40.5 10.5t39 11t26 7v-74zM1035 1200h-620l29 135h617z" />
<glyph unicode="A&#x306;" horiz-adv-x="1378" d="M766 1155l-303 -532h391zM801 0v86l94 10q45 6 39 39l-62 391h-464l-209 -391q-11 -20 -0.5 -28t39.5 -11l94 -10v-86h-441v86l115 12l756 1309h164l221 -1272q3 -20 11 -28.5t30 -10.5l94 -10v-86h-481zM1222 1823q-12 -52 -41.5 -104.5t-76 -95t-110 -69t-144.5 -26.5 q-73 0 -124 21t-82.5 55t-46 77t-14.5 87q0 12 1 26t3 29h107q2 -45 18.5 -75.5t41.5 -49t55.5 -26.5t60.5 -8q31 0 66.5 8t69 27t63 49.5t49.5 74.5h104z" />
<glyph unicode="a&#x306;" d="M760 803q1 5 -7.5 23t-20.5 37.5t-25.5 34.5t-22.5 15q-78 0 -139.5 -25.5t-107.5 -69t-78.5 -100.5t-52.5 -119t-29 -125t-9 -120q0 -43 7 -86t24.5 -78t48 -57t78.5 -22q36 0 72 16t67 37t54 42t34 32zM1061 55q-12 -5 -44 -18.5t-71.5 -27t-80 -24t-70.5 -10.5 q-37 0 -62.5 9t-42 27t-25.5 44t-12 60q-23 -22 -54 -46.5t-68.5 -45.5t-80 -34.5t-88.5 -13.5q-60 0 -105.5 17t-78.5 45.5t-54.5 66t-34.5 78t-18 82t-5 78.5q0 79 17 159.5t50.5 155t83.5 139.5t115.5 113t146 75.5t176.5 27.5q28 0 55.5 -6.5t51.5 -17t44 -23.5t34 -27 l30 49h140q-5 -12 -11 -28.5t-12 -33.5t-10.5 -32t-5.5 -23q-7 -27 -20 -81.5t-27.5 -122.5t-30 -142.5t-27.5 -141t-20 -118t-8 -74.5q0 -54 23 -74t65 -20q10 0 29.5 4.5t40.5 10.5t39 11t26 7v-74zM1088 1423q-12 -52 -41.5 -104.5t-76 -95t-110 -69t-144.5 -26.5 q-73 0 -124 21t-82.5 55t-46 77t-14.5 87q0 12 1 26t3 29h107q2 -45 18.5 -75.5t41.5 -49t55.5 -26.5t60.5 -8q31 0 66.5 8t69 27t63 49.5t49.5 74.5h104z" />
<glyph unicode="A&#x328;" horiz-adv-x="1378" d="M766 1155l-303 -532h391zM801 0v86l94 10q45 6 39 39l-62 391h-464l-209 -391q-11 -20 -0.5 -28t39.5 -11l94 -10v-86h-441v86l115 12l756 1309h164l221 -1272q3 -20 11 -28.5t30 -10.5l94 -10v-86h-481zM1148 0q-29 -22 -58 -49.5t-52.5 -59.5t-38.5 -68t-15 -75 q0 -37 24 -53.5t58 -16.5q20 0 38.5 3t37.5 8l-18 -117q-26 -6 -54.5 -10t-56.5 -4q-33 0 -63.5 7t-53.5 22.5t-37 41.5t-14 64q0 45 17 89.5t44 84t61.5 73.5t70.5 60h110z" />
<glyph unicode="a&#x328;" d="M1061 55q-12 -5 -44 -18.5t-72 -27.5q-25 -9 -52 -16q-24 -19 -48 -42q-29 -28 -52.5 -60t-38.5 -68t-15 -75q0 -37 24 -53.5t58 -16.5q20 0 38.5 3t37.5 8l-18 -117q-26 -6 -54.5 -10t-56.5 -4q-33 0 -63.5 7t-53.5 22.5t-37 41.5t-14 64q0 45 17 89.5t44 84t61 73.5 q20 20 41 37q-17 2 -31 7q-25 9 -41.5 27t-25.5 44t-12 60q-23 -22 -54 -46.5t-68.5 -45.5t-80 -34.5t-88.5 -13.5q-60 0 -105.5 17t-78.5 45.5t-54.5 66t-34.5 78t-18 82t-5 78.5q0 79 17 159.5t50.5 155t83.5 139.5t115.5 113t146 75.5t176.5 27.5q28 0 55.5 -6.5 t51.5 -17t44 -23.5t34 -27l30 49h140q-5 -12 -11 -28.5t-12 -33.5t-10.5 -32t-5.5 -23q-7 -27 -20 -81.5t-27.5 -122.5t-30 -142.5t-27.5 -141t-20 -118t-8 -74.5q0 -54 23 -74t65 -20q10 0 29.5 4.5t40.5 10.5t39 11t26 7v-74zM760 803q1 5 -7.5 23t-20.5 37.5t-25.5 34.5 t-22.5 15q-78 0 -139.5 -25.5t-107.5 -69t-78.5 -100.5t-52.5 -119t-29 -125t-9 -120q0 -43 7 -86t24.5 -78t48 -57t78.5 -22q36 0 72 16t67 37t54 42t34 32z" />
<glyph unicode="C&#x301;" horiz-adv-x="1290" d="M1264 1006h-121v190q0 16 -11.5 33t-25.5 22q-4 2 -18 10.5t-36.5 17.5t-52.5 16.5t-67 7.5q-79 0 -155 -25t-144.5 -72t-126.5 -115t-100.5 -154.5t-66.5 -190.5t-24 -222q0 -116 33.5 -201t90.5 -141t133.5 -83t162.5 -27q33 0 60 4.5t46.5 10.5t31.5 11.5t16 7.5 q12 2 26.5 14.5t20.5 26.5l88 234h121l-55 -332q-12 -4 -51.5 -17t-97 -27.5t-128.5 -26t-145 -11.5q-102 0 -184 23t-145 63t-109 95t-75 119.5t-43 135.5t-14 144q0 109 27 215t78 201.5t124 177t164.5 140.5t200 92.5t230.5 33.5q50 0 96 -5.5t93 -16t98 -26t110 -34.5z M1240 1811q0 -29 -13 -48.5t-36 -35.5l-307 -199h-144l279 320q10 12 21 21t24.5 16t31 10.5t40.5 3.5q27 0 46.5 -8t32 -20.5t19 -28.5t6.5 -31z" />
<glyph unicode="c&#x301;" horiz-adv-x="891" d="M825 868q0 -20 -6 -41t-23.5 -39t-48 -32.5t-79.5 -20.5l-117 158q-55 -3 -98 -30.5t-75.5 -70.5t-55 -97.5t-36.5 -110.5t-20 -109t-6 -94q0 -50 9.5 -98.5t31 -87t56 -62.5t85.5 -24q41 0 83 14.5t84.5 40.5t85.5 62t87 79v-129q-32 -31 -73 -66t-91 -65t-109.5 -50 t-127.5 -20q-73 0 -131.5 25.5t-99 74t-62.5 119.5t-22 162q0 92 21.5 176t59.5 157t90 132.5t113 102t129 65.5t137 23q55 0 95 -14t65 -35t37 -46.5t12 -48.5zM953 1411q0 -29 -13 -48.5t-36 -35.5l-307 -199h-144l279 320q10 12 21 21t24.5 16t31 10.5t40.5 3.5 q27 0 46.5 -8t32 -20.5t19 -28.5t6.5 -31z" />
<glyph unicode="C&#x302;" horiz-adv-x="1290" d="M1264 1006h-121v190q0 16 -11.5 33t-25.5 22q-4 2 -18 10.5t-36.5 17.5t-52.5 16.5t-67 7.5q-79 0 -155 -25t-144.5 -72t-126.5 -115t-100.5 -154.5t-66.5 -190.5t-24 -222q0 -116 33.5 -201t90.5 -141t133.5 -83t162.5 -27q33 0 60 4.5t46.5 10.5t31.5 11.5t16 7.5 q12 2 26.5 14.5t20.5 26.5l88 234h121l-55 -332q-12 -4 -51.5 -17t-97 -27.5t-128.5 -26t-145 -11.5q-102 0 -184 23t-145 63t-109 95t-75 119.5t-43 135.5t-14 144q0 109 27 215t78 201.5t124 177t164.5 140.5t200 92.5t230.5 33.5q50 0 96 -5.5t93 -16t98 -26t110 -34.5z M1114 1528l-168 189l-246 -189h-143l338 347h161l201 -347h-143z" />
<glyph unicode="c&#x302;" horiz-adv-x="891" d="M825 868q0 -20 -6 -41t-23.5 -39t-48 -32.5t-79.5 -20.5l-117 158q-55 -3 -98 -30.5t-75.5 -70.5t-55 -97.5t-36.5 -110.5t-20 -109t-6 -94q0 -50 9.5 -98.5t31 -87t56 -62.5t85.5 -24q41 0 83 14.5t84.5 40.5t85.5 62t87 79v-129q-32 -31 -73 -66t-91 -65t-109.5 -50 t-127.5 -20q-73 0 -131.5 25.5t-99 74t-62.5 119.5t-22 162q0 92 21.5 176t59.5 157t90 132.5t113 102t129 65.5t137 23q55 0 95 -14t65 -35t37 -46.5t12 -48.5zM827 1128l-168 189l-246 -189h-143l338 347h161l201 -347h-143z" />
<glyph unicode="C&#x307;" horiz-adv-x="1290" d="M1264 1006h-121v190q0 16 -11.5 33t-25.5 22q-4 2 -18 10.5t-36.5 17.5t-52.5 16.5t-67 7.5q-79 0 -155 -25t-144.5 -72t-126.5 -115t-100.5 -154.5t-66.5 -190.5t-24 -222q0 -116 33.5 -201t90.5 -141t133.5 -83t162.5 -27q33 0 60 4.5t46.5 10.5t31.5 11.5t16 7.5 q12 2 26.5 14.5t20.5 26.5l88 234h121l-55 -332q-12 -4 -51.5 -17t-97 -27.5t-128.5 -26t-145 -11.5q-102 0 -184 23t-145 63t-109 95t-75 119.5t-43 135.5t-14 144q0 109 27 215t78 201.5t124 177t164.5 140.5t200 92.5t230.5 33.5q50 0 96 -5.5t93 -16t98 -26t110 -34.5z M1060 1713q0 -24 -9 -45t-24.5 -36.5t-36.5 -24.5t-45 -9t-44.5 9t-36 24.5t-24.5 36.5t-9 45t8.5 45t24 37t36.5 25.5t45 9.5t45 -9t36.5 -25t24.5 -37.5t9 -45.5z" />
<glyph unicode="c&#x307;" horiz-adv-x="891" d="M825 868q0 -20 -6 -41t-23.5 -39t-48 -32.5t-79.5 -20.5l-117 158q-55 -3 -98 -30.5t-75.5 -70.5t-55 -97.5t-36.5 -110.5t-20 -109t-6 -94q0 -50 9.5 -98.5t31 -87t56 -62.5t85.5 -24q41 0 83 14.5t84.5 40.5t85.5 62t87 79v-129q-32 -31 -73 -66t-91 -65t-109.5 -50 t-127.5 -20q-73 0 -131.5 25.5t-99 74t-62.5 119.5t-22 162q0 92 21.5 176t59.5 157t90 132.5t113 102t129 65.5t137 23q55 0 95 -14t65 -35t37 -46.5t12 -48.5zM773 1313q0 -24 -9 -45t-24.5 -36.5t-36.5 -24.5t-45 -9t-44.5 9t-36 24.5t-24.5 36.5t-9 45t8.5 45t24 37 t36.5 25.5t45 9.5t45 -9t36.5 -25t24.5 -37.5t9 -45.5z" />
<glyph unicode="C&#x30c;" horiz-adv-x="1290" d="M1264 1006h-121v190q0 16 -11.5 33t-25.5 22q-4 2 -18 10.5t-36.5 17.5t-52.5 16.5t-67 7.5q-79 0 -155 -25t-144.5 -72t-126.5 -115t-100.5 -154.5t-66.5 -190.5t-24 -222q0 -116 33.5 -201t90.5 -141t133.5 -83t162.5 -27q33 0 60 4.5t46.5 10.5t31.5 11.5t16 7.5 q12 2 26.5 14.5t20.5 26.5l88 234h121l-55 -332q-12 -4 -51.5 -17t-97 -27.5t-128.5 -26t-145 -11.5q-102 0 -184 23t-145 63t-109 95t-75 119.5t-43 135.5t-14 144q0 109 27 215t78 201.5t124 177t164.5 140.5t200 92.5t230.5 33.5q50 0 96 -5.5t93 -16t98 -26t110 -34.5z M990 1528h-162l-201 347h144l170 -189l243 189h146z" />
<glyph unicode="c&#x30c;" horiz-adv-x="891" d="M825 868q0 -20 -6 -41t-23.5 -39t-48 -32.5t-79.5 -20.5l-117 158q-55 -3 -98 -30.5t-75.5 -70.5t-55 -97.5t-36.5 -110.5t-20 -109t-6 -94q0 -50 9.5 -98.5t31 -87t56 -62.5t85.5 -24q41 0 83 14.5t84.5 40.5t85.5 62t87 79v-129q-32 -31 -73 -66t-91 -65t-109.5 -50 t-127.5 -20q-73 0 -131.5 25.5t-99 74t-62.5 119.5t-22 162q0 92 21.5 176t59.5 157t90 132.5t113 102t129 65.5t137 23q55 0 95 -14t65 -35t37 -46.5t12 -48.5zM703 1128h-162l-201 347h144l170 -189l243 189h146z" />
<glyph unicode="D&#x30c;" horiz-adv-x="1374" d="M1116 868q0 128 -39 206t-105 121t-153 58.5t-182 18.5h-74l-225 -1166h149q155 2 273 66.5t197 170.5t119 242.5t40 282.5zM1337 850q0 -126 -29 -238t-84 -206.5t-133.5 -169.5t-177 -127.5t-215 -80.5t-247.5 -28h-482v86l127 10q20 2 28 11.5t13 27.5l213 1102 q3 17 -5 28t-36 13l-114 10v86h489q140 0 259.5 -27t207 -89t137 -162t49.5 -246zM903 1528h-162l-201 347h144l170 -189l243 189h146z" />
<glyph unicode="d&#x30c;" horiz-adv-x="1386" d="M850 176q-5 -29 3 -47t21.5 -28.5t28 -14.5t21.5 -4t28.5 5.5t45.5 12.5t45 13l28 8v-76q-12 -5 -44 -16.5t-71 -23.5t-80.5 -21t-72.5 -9q-47 0 -77 11.5t-47 32t-23.5 48.5t-6.5 62q-27 -29 -59.5 -56.5t-69.5 -49t-78 -35t-84 -13.5q-86 0 -142.5 33t-89.5 86 t-46.5 118t-13.5 130q0 81 17.5 162.5t52 156t84.5 138.5t114 111.5t142.5 74.5t168.5 27q23 0 45 -4.5t42 -10.5t37 -13t30 -11l69 395l-186 18v62l317 61h84zM770 807q1 4 -11.5 22.5t-32 38.5t-42.5 36t-43 16q-75 0 -143 -43.5t-120 -119.5t-83 -179.5t-31 -223.5 q0 -66 13.5 -114t36 -79t51.5 -46t59 -15q28 0 60.5 14t65.5 37.5t65.5 54t60.5 62.5zM1421 1425q0 -65 -25 -115t-66.5 -87t-95.5 -60.5t-112 -34.5l12 68q42 13 71 26.5t49.5 33t33 48t20.5 72.5h-108q-9 11 -13 26.5t-4 29.5q0 25 10.5 46.5t27.5 37t40 24t47 8.5 q57 0 85 -33.5t28 -89.5z" />
<glyph unicode="E&#x304;" horiz-adv-x="1143" d="M1126 1067h-131v166q0 22 -8 30.5t-31 8.5h-393l-94 -504h274q22 0 33.5 8.5t18.5 30.5l39 137h114l-90 -469h-117l21 146q6 41 -39 41h-277l-106 -560h481q22 0 33.5 11.5t17.5 29.5l64 197h125l-68 -340h-1024v86l119 10q43 3 49 39l213 1102q3 17 -5 28t-34 13 l-114 10v86h991zM1064 1600h-620l29 135h617z" />
<glyph unicode="e&#x304;" horiz-adv-x="889" d="M672 807q0 20 -8 39.5t-22 34.5t-35 24.5t-46 9.5q-34 0 -65 -18t-59.5 -48t-53 -69t-44 -82t-34.5 -87t-24 -83q65 6 134.5 30t126.5 61.5t93.5 85.5t36.5 102zM854 805q0 -56 -26 -103t-70.5 -85t-103 -67.5t-123 -50t-131.5 -33t-128 -15.5q-3 -20 -5.5 -48t-2.5 -47 q0 -56 13.5 -103t39 -81.5t61.5 -54t81 -19.5q69 0 152 50t196 149v-129q-29 -28 -71 -61.5t-95.5 -63t-116.5 -49t-133 -19.5q-31 0 -67.5 6t-72.5 21.5t-69.5 42.5t-59 68.5t-41 99t-15.5 135.5q0 81 19.5 161.5t55 154t85.5 137t110 110t128.5 73t141.5 26.5 q71 0 118.5 -23.5t76.5 -56.5t41 -68t12 -57zM930 1200h-620l29 135h617z" />
<glyph unicode="E&#x306;" horiz-adv-x="1143" d="M1126 1067h-131v166q0 22 -8 30.5t-31 8.5h-393l-94 -504h274q22 0 33.5 8.5t18.5 30.5l39 137h114l-90 -469h-117l21 146q6 41 -39 41h-277l-106 -560h481q22 0 33.5 11.5t17.5 29.5l64 197h125l-68 -340h-1024v86l119 10q43 3 49 39l213 1102q3 17 -5 28t-34 13 l-114 10v86h991zM1117 1823q-12 -52 -41.5 -104.5t-76 -95t-110 -69t-144.5 -26.5q-73 0 -124 21t-82.5 55t-46 77t-14.5 87q0 12 1 26t3 29h107q2 -45 18.5 -75.5t41.5 -49t55.5 -26.5t60.5 -8q31 0 66.5 8t69 27t63 49.5t49.5 74.5h104z" />
<glyph unicode="e&#x306;" horiz-adv-x="889" d="M672 807q0 20 -8 39.5t-22 34.5t-35 24.5t-46 9.5q-34 0 -65 -18t-59.5 -48t-53 -69t-44 -82t-34.5 -87t-24 -83q65 6 134.5 30t126.5 61.5t93.5 85.5t36.5 102zM854 805q0 -56 -26 -103t-70.5 -85t-103 -67.5t-123 -50t-131.5 -33t-128 -15.5q-3 -20 -5.5 -48t-2.5 -47 q0 -56 13.5 -103t39 -81.5t61.5 -54t81 -19.5q69 0 152 50t196 149v-129q-29 -28 -71 -61.5t-95.5 -63t-116.5 -49t-133 -19.5q-31 0 -67.5 6t-72.5 21.5t-69.5 42.5t-59 68.5t-41 99t-15.5 135.5q0 81 19.5 161.5t55 154t85.5 137t110 110t128.5 73t141.5 26.5 q71 0 118.5 -23.5t76.5 -56.5t41 -68t12 -57zM983 1423q-12 -52 -41.5 -104.5t-76 -95t-110 -69t-144.5 -26.5q-73 0 -124 21t-82.5 55t-46 77t-14.5 87q0 12 1 26t3 29h107q2 -45 18.5 -75.5t41.5 -49t55.5 -26.5t60.5 -8q31 0 66.5 8t69 27t63 49.5t49.5 74.5h104z" />
<glyph unicode="E&#x307;" horiz-adv-x="1143" d="M1126 1067h-131v166q0 22 -8 30.5t-31 8.5h-393l-94 -504h274q22 0 33.5 8.5t18.5 30.5l39 137h114l-90 -469h-117l21 146q6 41 -39 41h-277l-106 -560h481q22 0 33.5 11.5t17.5 29.5l64 197h125l-68 -340h-1024v86l119 10q43 3 49 39l213 1102q3 17 -5 28t-34 13 l-114 10v86h991zM892 1713q0 -24 -9 -45t-24.5 -36.5t-36.5 -24.5t-45 -9t-44.5 9t-36 24.5t-24.5 36.5t-9 45t8.5 45t24 37t36.5 25.5t45 9.5t45 -9t36.5 -25t24.5 -37.5t9 -45.5z" />
<glyph unicode="e&#x307;" horiz-adv-x="889" d="M672 807q0 20 -8 39.5t-22 34.5t-35 24.5t-46 9.5q-34 0 -65 -18t-59.5 -48t-53 -69t-44 -82t-34.5 -87t-24 -83q65 6 134.5 30t126.5 61.5t93.5 85.5t36.5 102zM854 805q0 -56 -26 -103t-70.5 -85t-103 -67.5t-123 -50t-131.5 -33t-128 -15.5q-3 -20 -5.5 -48t-2.5 -47 q0 -56 13.5 -103t39 -81.5t61.5 -54t81 -19.5q69 0 152 50t196 149v-129q-29 -28 -71 -61.5t-95.5 -63t-116.5 -49t-133 -19.5q-31 0 -67.5 6t-72.5 21.5t-69.5 42.5t-59 68.5t-41 99t-15.5 135.5q0 81 19.5 161.5t55 154t85.5 137t110 110t128.5 73t141.5 26.5 q71 0 118.5 -23.5t76.5 -56.5t41 -68t12 -57zM758 1313q0 -24 -9 -45t-24.5 -36.5t-36.5 -24.5t-45 -9t-44.5 9t-36 24.5t-24.5 36.5t-9 45t8.5 45t24 37t36.5 25.5t45 9.5t45 -9t36.5 -25t24.5 -37.5t9 -45.5z" />
<glyph unicode="E&#x328;" horiz-adv-x="1143" d="M1126 1067h-131v166q0 22 -8 30.5t-31 8.5h-393l-94 -504h274q22 0 33.5 8.5t18.5 30.5l39 137h114l-90 -469h-117l21 146q6 41 -39 41h-277l-106 -560h481q22 0 33.5 11.5t17.5 29.5l64 197h125l-68 -340h-1024v86l119 10q43 3 49 39l213 1102q3 17 -5 28t-34 13 l-114 10v86h991zM821 0q-29 -22 -58 -49.5t-52.5 -59.5t-38.5 -68t-15 -75q0 -37 24 -53.5t58 -16.5q20 0 38.5 3t37.5 8l-18 -117q-26 -6 -54.5 -10t-56.5 -4q-33 0 -63.5 7t-53.5 22.5t-37 41.5t-14 64q0 45 17 89.5t44 84t61.5 73.5t70.5 60h110z" />
<glyph unicode="e&#x328;" horiz-adv-x="889" d="M854 805q0 -56 -26 -103t-70.5 -85t-103 -67.5t-123 -50t-131.5 -33t-128 -15.5q-3 -20 -5.5 -48t-2.5 -47q0 -56 13.5 -103t39 -81.5t61.5 -54t81 -19.5q69 0 152 50t196 149v-129q-29 -28 -71 -61.5t-96 -63.5q-3 -1 -6 -3q-36 -23 -70 -49q-46 -37 -80 -78 t-53.5 -83.5t-19.5 -81.5q0 -37 24 -53.5t58 -16.5q20 0 38.5 3t37.5 8l-18 -117q-26 -6 -54.5 -10t-56.5 -4q-33 0 -63.5 7t-53.5 22.5t-37 41.5t-14 64q0 45 17 89.5t44 84t61 73.5q20 20 41 37q-22 -2 -44 -2q-31 0 -67.5 6t-72.5 21.5t-69.5 42.5t-59 68.5t-41 99 t-15.5 135.5q0 81 19.5 161.5t55 154t85.5 137t110 110t128.5 73t141.5 26.5q71 0 118.5 -23.5t76.5 -56.5t41 -68t12 -57zM672 807q0 20 -8 39.5t-22 34.5t-35 24.5t-46 9.5q-34 0 -65 -18t-59.5 -48t-53 -69t-44 -82t-34.5 -87t-24 -83q65 6 134.5 30t126.5 61.5 t93.5 85.5t36.5 102z" />
<glyph unicode="E&#x30c;" horiz-adv-x="1143" d="M1126 1067h-131v166q0 22 -8 30.5t-31 8.5h-393l-94 -504h274q22 0 33.5 8.5t18.5 30.5l39 137h114l-90 -469h-117l21 146q6 41 -39 41h-277l-106 -560h481q22 0 33.5 11.5t17.5 29.5l64 197h125l-68 -340h-1024v86l119 10q43 3 49 39l213 1102q3 17 -5 28t-34 13 l-114 10v86h991zM822 1528h-162l-201 347h144l170 -189l243 189h146z" />
<glyph unicode="e&#x30c;" horiz-adv-x="889" d="M672 807q0 20 -8 39.5t-22 34.5t-35 24.5t-46 9.5q-34 0 -65 -18t-59.5 -48t-53 -69t-44 -82t-34.5 -87t-24 -83q65 6 134.5 30t126.5 61.5t93.5 85.5t36.5 102zM854 805q0 -56 -26 -103t-70.5 -85t-103 -67.5t-123 -50t-131.5 -33t-128 -15.5q-3 -20 -5.5 -48t-2.5 -47 q0 -56 13.5 -103t39 -81.5t61.5 -54t81 -19.5q69 0 152 50t196 149v-129q-29 -28 -71 -61.5t-95.5 -63t-116.5 -49t-133 -19.5q-31 0 -67.5 6t-72.5 21.5t-69.5 42.5t-59 68.5t-41 99t-15.5 135.5q0 81 19.5 161.5t55 154t85.5 137t110 110t128.5 73t141.5 26.5 q71 0 118.5 -23.5t76.5 -56.5t41 -68t12 -57zM688 1128h-162l-201 347h144l170 -189l243 189h146z" />
<glyph unicode="G&#x302;" horiz-adv-x="1409" d="M1266 567q-20 -2 -33.5 -10.5t-18.5 -28.5l-92 -481q-10 -3 -35 -9.5t-60 -15.5t-77.5 -18.5t-88.5 -18t-92.5 -13.5t-88.5 -5q-117 0 -205.5 27t-153 72.5t-107.5 105t-69 124.5t-36.5 130.5t-10.5 122.5q0 131 35 245.5t96.5 210t145 170t182 126.5t206.5 79t218 27 q50 0 93.5 -4t87.5 -12.5t92.5 -22t107.5 -31.5l-64 -329h-139l6 188q2 23 -9 37.5t-30 19.5q-4 1 -17 8t-34.5 15t-51.5 14t-67 6q-77 0 -153.5 -25t-147 -72t-131 -115.5t-105 -155t-70 -190.5t-25.5 -222q0 -83 19 -147.5t51 -113.5t73 -83t85 -55.5t88 -31t81 -9.5 q31 0 62.5 4t59.5 10t50.5 12t34.5 9l80 417q3 17 -5 27t-36 12l-113 11v86h528v-86zM1144 1528l-168 189l-246 -189h-143l338 347h161l201 -347h-143z" />
<glyph unicode="g&#x302;" horiz-adv-x="901" d="M657 -180q0 37 -22 68t-82 59l-256 116q-49 -12 -81.5 -33t-51.5 -47.5t-27 -56.5t-8 -61q0 -35 15 -77t46.5 -78t79.5 -60.5t113 -24.5q74 0 126 21t85 51t48 63.5t15 59.5zM635 735q0 38 -7 72.5t-21.5 61t-37 42t-53.5 15.5q-37 0 -76 -27t-71.5 -74t-53 -110 t-20.5 -135q0 -37 8 -68.5t23.5 -54t37 -35t48.5 -12.5q51 0 92.5 32.5t70.5 81.5t44.5 106t15.5 105zM805 862q9 -23 17.5 -59t8.5 -78q0 -98 -36 -171t-97 -122t-141.5 -73.5t-169.5 -24.5q-7 -15 -12 -33t-8 -35.5t-4 -32t2 -22.5l274 -125q47 -21 85.5 -42.5t66 -47 t42.5 -58t15 -77.5q0 -44 -20.5 -85.5t-56 -78t-85 -67.5t-107 -53t-121 -34t-128.5 -12q-101 0 -175 25t-122.5 66t-72 95t-23.5 113q0 52 21.5 96t58.5 79t86.5 62t105.5 46q-5 24 -0.5 56.5t15 66t27.5 64.5t38 52q-41 18 -76 41.5t-60.5 54t-40 70t-14.5 88.5 q0 75 28 147.5t81.5 130t130 93t174.5 35.5q37 0 69.5 -6.5t59 -15t46 -17.5t28.5 -15h278v-96h-188zM787 1128l-168 189l-246 -189h-143l338 347h161l201 -347h-143z" />
<glyph unicode="G&#x306;" horiz-adv-x="1409" d="M1266 567q-20 -2 -33.5 -10.5t-18.5 -28.5l-92 -481q-10 -3 -35 -9.5t-60 -15.5t-77.5 -18.5t-88.5 -18t-92.5 -13.5t-88.5 -5q-117 0 -205.5 27t-153 72.5t-107.5 105t-69 124.5t-36.5 130.5t-10.5 122.5q0 131 35 245.5t96.5 210t145 170t182 126.5t206.5 79t218 27 q50 0 93.5 -4t87.5 -12.5t92.5 -22t107.5 -31.5l-64 -329h-139l6 188q2 23 -9 37.5t-30 19.5q-4 1 -17 8t-34.5 15t-51.5 14t-67 6q-77 0 -153.5 -25t-147 -72t-131 -115.5t-105 -155t-70 -190.5t-25.5 -222q0 -83 19 -147.5t51 -113.5t73 -83t85 -55.5t88 -31t81 -9.5 q31 0 62.5 4t59.5 10t50.5 12t34.5 9l80 417q3 17 -5 27t-36 12l-113 11v86h528v-86zM1315 1823q-12 -52 -41.5 -104.5t-76 -95t-110 -69t-144.5 -26.5q-73 0 -124 21t-82.5 55t-46 77t-14.5 87q0 12 1 26t3 29h107q2 -45 18.5 -75.5t41.5 -49t55.5 -26.5t60.5 -8 q31 0 66.5 8t69 27t63 49.5t49.5 74.5h104z" />
<glyph unicode="g&#x306;" horiz-adv-x="901" d="M657 -180q0 37 -22 68t-82 59l-256 116q-49 -12 -81.5 -33t-51.5 -47.5t-27 -56.5t-8 -61q0 -35 15 -77t46.5 -78t79.5 -60.5t113 -24.5q74 0 126 21t85 51t48 63.5t15 59.5zM635 735q0 38 -7 72.5t-21.5 61t-37 42t-53.5 15.5q-37 0 -76 -27t-71.5 -74t-53 -110 t-20.5 -135q0 -37 8 -68.5t23.5 -54t37 -35t48.5 -12.5q51 0 92.5 32.5t70.5 81.5t44.5 106t15.5 105zM805 862q9 -23 17.5 -59t8.5 -78q0 -98 -36 -171t-97 -122t-141.5 -73.5t-169.5 -24.5q-7 -15 -12 -33t-8 -35.5t-4 -32t2 -22.5l274 -125q47 -21 85.5 -42.5t66 -47 t42.5 -58t15 -77.5q0 -44 -20.5 -85.5t-56 -78t-85 -67.5t-107 -53t-121 -34t-128.5 -12q-101 0 -175 25t-122.5 66t-72 95t-23.5 113q0 52 21.5 96t58.5 79t86.5 62t105.5 46q-5 24 -0.5 56.5t15 66t27.5 64.5t38 52q-41 18 -76 41.5t-60.5 54t-40 70t-14.5 88.5 q0 75 28 147.5t81.5 130t130 93t174.5 35.5q37 0 69.5 -6.5t59 -15t46 -17.5t28.5 -15h278v-96h-188zM958 1423q-12 -52 -41.5 -104.5t-76 -95t-110 -69t-144.5 -26.5q-73 0 -124 21t-82.5 55t-46 77t-14.5 87q0 12 1 26t3 29h107q2 -45 18.5 -75.5t41.5 -49t55.5 -26.5 t60.5 -8q31 0 66.5 8t69 27t63 49.5t49.5 74.5h104z" />
<glyph unicode="G&#x307;" horiz-adv-x="1409" d="M1266 567q-20 -2 -33.5 -10.5t-18.5 -28.5l-92 -481q-10 -3 -35 -9.5t-60 -15.5t-77.5 -18.5t-88.5 -18t-92.5 -13.5t-88.5 -5q-117 0 -205.5 27t-153 72.5t-107.5 105t-69 124.5t-36.5 130.5t-10.5 122.5q0 131 35 245.5t96.5 210t145 170t182 126.5t206.5 79t218 27 q50 0 93.5 -4t87.5 -12.5t92.5 -22t107.5 -31.5l-64 -329h-139l6 188q2 23 -9 37.5t-30 19.5q-4 1 -17 8t-34.5 15t-51.5 14t-67 6q-77 0 -153.5 -25t-147 -72t-131 -115.5t-105 -155t-70 -190.5t-25.5 -222q0 -83 19 -147.5t51 -113.5t73 -83t85 -55.5t88 -31t81 -9.5 q31 0 62.5 4t59.5 10t50.5 12t34.5 9l80 417q3 17 -5 27t-36 12l-113 11v86h528v-86zM1090 1713q0 -24 -9 -45t-24.5 -36.5t-36.5 -24.5t-45 -9t-44.5 9t-36 24.5t-24.5 36.5t-9 45t8.5 45t24 37t36.5 25.5t45 9.5t45 -9t36.5 -25t24.5 -37.5t9 -45.5z" />
<glyph unicode="g&#x307;" horiz-adv-x="901" d="M657 -180q0 37 -22 68t-82 59l-256 116q-49 -12 -81.5 -33t-51.5 -47.5t-27 -56.5t-8 -61q0 -35 15 -77t46.5 -78t79.5 -60.5t113 -24.5q74 0 126 21t85 51t48 63.5t15 59.5zM635 735q0 38 -7 72.5t-21.5 61t-37 42t-53.5 15.5q-37 0 -76 -27t-71.5 -74t-53 -110 t-20.5 -135q0 -37 8 -68.5t23.5 -54t37 -35t48.5 -12.5q51 0 92.5 32.5t70.5 81.5t44.5 106t15.5 105zM805 862q9 -23 17.5 -59t8.5 -78q0 -98 -36 -171t-97 -122t-141.5 -73.5t-169.5 -24.5q-7 -15 -12 -33t-8 -35.5t-4 -32t2 -22.5l274 -125q47 -21 85.5 -42.5t66 -47 t42.5 -58t15 -77.5q0 -44 -20.5 -85.5t-56 -78t-85 -67.5t-107 -53t-121 -34t-128.5 -12q-101 0 -175 25t-122.5 66t-72 95t-23.5 113q0 52 21.5 96t58.5 79t86.5 62t105.5 46q-5 24 -0.5 56.5t15 66t27.5 64.5t38 52q-41 18 -76 41.5t-60.5 54t-40 70t-14.5 88.5 q0 75 28 147.5t81.5 130t130 93t174.5 35.5q37 0 69.5 -6.5t59 -15t46 -17.5t28.5 -15h278v-96h-188zM733 1313q0 -24 -9 -45t-24.5 -36.5t-36.5 -24.5t-45 -9t-44.5 9t-36 24.5t-24.5 36.5t-9 45t8.5 45t24 37t36.5 25.5t45 9.5t45 -9t36.5 -25t24.5 -37.5t9 -45.5z" />
<glyph unicode="G&#x327;" horiz-adv-x="1409" d="M1266 567q-20 -2 -33.5 -10.5t-18.5 -28.5l-92 -481q-10 -3 -35 -9.5t-60 -15.5t-77.5 -18.5t-88.5 -18t-92.5 -13.5t-88.5 -5q-117 0 -205.5 27t-153 72.5t-107.5 105t-69 124.5t-36.5 130.5t-10.5 122.5q0 131 35 245.5t96.5 210t145 170t182 126.5t206.5 79t218 27 q50 0 93.5 -4t87.5 -12.5t92.5 -22t107.5 -31.5l-64 -329h-139l6 188q2 23 -9 37.5t-30 19.5q-4 1 -17 8t-34.5 15t-51.5 14t-67 6q-77 0 -153.5 -25t-147 -72t-131 -115.5t-105 -155t-70 -190.5t-25.5 -222q0 -83 19 -147.5t51 -113.5t73 -83t85 -55.5t88 -31t81 -9.5 q31 0 62.5 4t59.5 10t50.5 12t34.5 9l80 417q3 17 -5 27t-36 12l-113 11v86h528v-86zM732 -248q0 -64 -25.5 -114t-67.5 -87t-96 -61t-112 -35l12 70q42 12 71 25t49.5 32.5t33 48t20.5 72.5h-108q-10 11 -13.5 26t-3.5 29q0 26 10.5 47.5t27.5 37t40 24t47 8.5 q57 0 86 -33.5t29 -89.5z" />
<glyph unicode="g&#x327;" horiz-adv-x="901" d="M657 -180q0 37 -22 68t-82 59l-256 116q-49 -12 -81.5 -33t-51.5 -47.5t-27 -56.5t-8 -61q0 -35 15 -77t46.5 -78t79.5 -60.5t113 -24.5q74 0 126 21t85 51t48 63.5t15 59.5zM635 735q0 38 -7 72.5t-21.5 61t-37 42t-53.5 15.5q-37 0 -76 -27t-71.5 -74t-53 -110 t-20.5 -135q0 -37 8 -68.5t23.5 -54t37 -35t48.5 -12.5q51 0 92.5 32.5t70.5 81.5t44.5 106t15.5 105zM805 862q9 -23 17.5 -59t8.5 -78q0 -98 -36 -171t-97 -122t-141.5 -73.5t-169.5 -24.5q-7 -15 -12 -33t-8 -35.5t-4 -32t2 -22.5l274 -125q47 -21 85.5 -42.5t66 -47 t42.5 -58t15 -77.5q0 -44 -20.5 -85.5t-56 -78t-85 -67.5t-107 -53t-121 -34t-128.5 -12q-101 0 -175 25t-122.5 66t-72 95t-23.5 113q0 52 21.5 96t58.5 79t86.5 62t105.5 46q-5 24 -0.5 56.5t15 66t27.5 64.5t38 52q-41 18 -76 41.5t-60.5 54t-40 70t-14.5 88.5 q0 75 28 147.5t81.5 130t130 93t174.5 35.5q37 0 69.5 -6.5t59 -15t46 -17.5t28.5 -15h278v-96h-188zM488 1251q0 64 25 114.5t66.5 87.5t95.5 60.5t112 34.5l-12 -68q-42 -13 -71 -26.5t-49.5 -33t-33 -48.5t-20.5 -72h108q9 -11 13 -26.5t4 -29.5q0 -25 -10.5 -46.5 t-27.5 -37t-40 -24t-47 -8.5q-57 0 -85 33.5t-28 89.5z" />
<glyph unicode="H&#x302;" horiz-adv-x="1485" d="M1452 1278q-19 -2 -31.5 -11.5t-17.5 -29.5l-213 -1102q-3 -15 5 -26t36 -13l115 -10v-86h-535v86l123 10q18 2 32 11.5t17 27.5l102 533h-639l-102 -533q-3 -15 5 -26t34 -13l119 -10v-86h-533v86l117 10q42 3 51 39l213 1102q3 17 -5 28t-36 13l-114 10v86h532v-86 l-121 -10q-18 -2 -32 -11.5t-17 -29.5l-90 -467h639l90 467q3 17 -5 28t-36 13l-117 10v86h533v-86zM1120 1528l-168 189l-246 -189h-143l338 347h161l201 -347h-143z" />
<glyph unicode="h&#x302;" horiz-adv-x="1073" d="M1069 51q-13 -5 -45.5 -17t-72.5 -25.5t-82 -23.5t-74 -10q-19 0 -48 5.5t-54.5 20t-40.5 40.5t-7 68l125 604q9 40 -1.5 71t-29.5 51.5t-42 31t-40 10.5q-24 0 -58.5 -12t-73 -33t-77.5 -50.5t-73 -64.5l-150 -717h-188l282 1368l-182 18v62l320 61h82l-138 -661 q31 34 73.5 64t91 52.5t101 35t103.5 12.5q56 0 99 -17.5t69.5 -52t34 -86.5t-7.5 -121l-113 -551q-6 -29 3 -48.5t24.5 -31t32.5 -16t26 -4.5q28 0 61 14t68 25zM959 1568l-168 189l-246 -189h-143l338 347h161l201 -347h-143z" />
<glyph unicode="I&#x303;" horiz-adv-x="643" d="M598 1278q-20 -2 -28 -11.5t-13 -29.5l-213 -1102q-3 -15 5 -26t36 -13l119 -10v-86h-535v86l129 10q19 2 27.5 11.5t11.5 27.5l213 1102q3 17 -5 28t-34 13l-114 10v86h532v-86zM923 1815q-22 -45 -50.5 -84.5t-65 -69t-81.5 -46.5t-100 -17q-42 0 -73 13.5t-63 33.5 q-13 9 -26 17t-28.5 15t-34 11t-42.5 4q-13 0 -29.5 -7t-32.5 -19.5t-30 -29.5t-22 -38h-109q21 45 49.5 84.5t64.5 69t81 46.5t100 17q42 0 73.5 -13.5t63.5 -35.5q26 -15 55 -30t76 -15q14 0 30.5 7t32.5 19.5t29.5 29.5t22.5 38h109z" />
<glyph unicode="i&#x303;" horiz-adv-x="545" d="M539 59q-12 -5 -44 -19t-75 -28.5t-90.5 -25.5t-89.5 -11q-53 0 -84 18t-46 47t-17 65t5 71l131 694l-176 19v59l309 64h84l-155 -819q-4 -21 0.5 -40t15 -33.5t27 -23t37.5 -8.5q18 0 42.5 6.5t49 15t45.5 16.5t31 11v-78zM816 1415q-22 -45 -50.5 -84.5t-65 -69 t-81.5 -46.5t-100 -17q-42 0 -73 13.5t-63 33.5q-13 9 -26 17t-28.5 15t-34 11t-42.5 4q-13 0 -29.5 -7t-32.5 -19.5t-30 -29.5t-22 -38h-109q21 45 49.5 84.5t64.5 69t81 46.5t100 17q42 0 73.5 -13.5t63.5 -35.5q26 -15 55 -30t76 -15q14 0 30.5 7t32.5 19.5t29.5 29.5 t22.5 38h109z" />
<glyph unicode="I&#x304;" horiz-adv-x="643" d="M598 1278q-20 -2 -28 -11.5t-13 -29.5l-213 -1102q-3 -15 5 -26t36 -13l119 -10v-86h-535v86l129 10q19 2 27.5 11.5t11.5 27.5l213 1102q3 17 -5 28t-34 13l-114 10v86h532v-86zM718 1600h-420l29 135h417z" />
<glyph unicode="i&#x304;" horiz-adv-x="545" d="M539 59q-12 -5 -44 -19t-75 -28.5t-90.5 -25.5t-89.5 -11q-53 0 -84 18t-46 47t-17 65t5 71l131 694l-176 19v59l309 64h84l-155 -819q-4 -21 0.5 -40t15 -33.5t27 -23t37.5 -8.5q18 0 42.5 6.5t49 15t45.5 16.5t31 11v-78zM610 1200h-420l29 135h417z" />
<glyph unicode="I&#x306;" horiz-adv-x="643" d="M598 1278q-20 -2 -28 -11.5t-13 -29.5l-213 -1102q-3 -15 5 -26t36 -13l119 -10v-86h-535v86l129 10q19 2 27.5 11.5t11.5 27.5l213 1102q3 17 -5 28t-34 13l-114 10v86h532v-86zM871 1823q-12 -52 -41.5 -104.5t-76 -95t-110 -69t-144.5 -26.5q-73 0 -124 21t-82.5 55 t-46 77t-14.5 87q0 12 1 26t3 29h107q2 -45 18.5 -75.5t41.5 -49t55.5 -26.5t60.5 -8q31 0 66.5 8t69 27t63 49.5t49.5 74.5h104z" />
<glyph unicode="i&#x306;" horiz-adv-x="545" d="M539 59q-12 -5 -44 -19t-75 -28.5t-90.5 -25.5t-89.5 -11q-53 0 -84 18t-46 47t-17 65t5 71l131 694l-176 19v59l309 64h84l-155 -819q-4 -21 0.5 -40t15 -33.5t27 -23t37.5 -8.5q18 0 42.5 6.5t49 15t45.5 16.5t31 11v-78zM763 1423q-12 -52 -41.5 -104.5t-76 -95 t-110 -69t-144.5 -26.5q-73 0 -124 21t-82.5 55t-46 77t-14.5 87q0 12 1 26t3 29h107q2 -45 18.5 -75.5t41.5 -49t55.5 -26.5t60.5 -8q31 0 66.5 8t69 27t63 49.5t49.5 74.5h104z" />
<glyph unicode="I&#x328;" horiz-adv-x="643" d="M598 1278q-20 -2 -28 -11.5t-13 -29.5l-213 -1102q-3 -15 5 -26t36 -13l119 -10v-86h-535v86l129 10q19 2 27.5 11.5t11.5 27.5l213 1102q3 17 -5 28t-34 13l-114 10v86h532v-86zM357 0q-29 -22 -58 -49.5t-52.5 -59.5t-38.5 -68t-15 -75q0 -37 24 -53.5t58 -16.5 q20 0 38.5 3t37.5 8l-18 -117q-26 -6 -54.5 -10t-56.5 -4q-33 0 -63.5 7t-53.5 22.5t-37 41.5t-14 64q0 45 17 89.5t44 84t61.5 73.5t70.5 60h110z" />
<glyph unicode="i&#x328;" horiz-adv-x="545" d="M539 59q-12 -5 -44 -19t-75 -29q-20 -6 -41 -12q-28 -22 -56 -48q-29 -28 -52.5 -60t-38.5 -68t-15 -75q0 -37 24 -53.5t58 -16.5q20 0 38.5 3t37.5 8l-18 -117q-26 -6 -54.5 -10t-56.5 -4q-33 0 -63.5 7t-53.5 22.5t-37 41.5t-14 64q0 45 17 89.5t44 84t61 73.5 q19 19 38 35q-52 1 -82 18q-31 18 -46 47t-17 65t5 71l131 694l-176 19v59l309 64h84l-155 -819q-4 -21 0.5 -40t15 -33.5t27 -23t37.5 -8.5q18 0 42.5 6.5t49 15t45.5 16.5t31 11v-78zM530 1313q0 -23 -8.5 -43.5t-24 -36.5t-38.5 -25.5t-53 -9.5q-63 0 -95 33.5t-32 81.5 q0 20 8.5 40t25 36.5t40.5 27t55 10.5q29 0 51.5 -10t38.5 -26t24 -36.5t8 -41.5z" />
<glyph unicode="I&#x307;" horiz-adv-x="643" d="M598 1278q-20 -2 -28 -11.5t-13 -29.5l-213 -1102q-3 -15 5 -26t36 -13l119 -10v-86h-535v86l129 10q19 2 27.5 11.5t11.5 27.5l213 1102q3 17 -5 28t-34 13l-114 10v86h532v-86zM646 1713q0 -24 -9 -45t-24.5 -36.5t-36.5 -24.5t-45 -9t-44.5 9t-36 24.5t-24.5 36.5 t-9 45t8.5 45t24 37t36.5 25.5t45 9.5t45 -9t36.5 -25t24.5 -37.5t9 -45.5z" />
<glyph unicode="J&#x302;" horiz-adv-x="958" d="M922 1278q-42 -3 -52 -41l-131 -713q-23 -127 -56 -230t-90 -175.5t-144.5 -112t-219.5 -39.5q-60 0 -107 8t-80.5 18.5t-54 21t-28.5 14.5l68 350h135v-250q0 -26 25 -40.5t57 -14.5q65 0 111 29t78 84t54.5 135.5t40.5 183.5l136 731q3 17 -5 28t-34 13l-119 10v86h532 v-86zM1022 1528l-168 189l-246 -189h-143l338 347h161l201 -347h-143z" />
<glyph unicode="j&#x302;" horiz-adv-x="559" d="M328 164q-9 -51 -27 -118t-45.5 -137.5t-65 -138t-85.5 -121t-106 -86t-126 -32.5q-65 0 -101 31t-36 78q0 19 6 34t15 26t18.5 19t17.5 13l205 -56q15 16 30.5 49t30.5 74.5t27 87.5t20 88l154 895l-172 19v59l309 64h76zM612 1128l-168 189l-246 -189h-143l338 347h161 l201 -347h-143z" />
<glyph unicode="K&#x327;" horiz-adv-x="1343" d="M1245 1272l-536 -518l284 -551q19 -38 36.5 -61.5t36.5 -37t40.5 -18t48.5 -4.5q19 0 40 1t46 3v-86q-48 -14 -100 -23.5t-92 -9.5q-45 0 -78.5 7t-61.5 24.5t-51 46.5t-47 74l-252 485h-125l-92 -469q-3 -15 6 -26t35 -13l119 -10v-86h-535v86l119 10q43 3 49 39 l215 1102q3 17 -5 28t-34 13l-114 10v86h532v-86l-121 -10q-20 -2 -33 -11.5t-18 -29.5l-104 -537h34l545 537q13 12 10.5 25.5t-24.5 15.5l-131 10v86h530v-86zM656 -248q0 -64 -25.5 -114t-67.5 -87t-96 -61t-112 -35l12 70q42 12 71 25t49.5 32.5t33 48t20.5 72.5h-108 q-10 11 -13.5 26t-3.5 29q0 26 10.5 47.5t27.5 37t40 24t47 8.5q57 0 86 -33.5t29 -89.5z" />
<glyph unicode="k&#x327;" horiz-adv-x="1042" d="M1018 47q-26 -13 -59.5 -26t-68.5 -23t-68.5 -16.5t-57.5 -6.5q-25 0 -49 8.5t-45.5 22t-39.5 31t-30 35.5q-14 21 -31.5 54.5t-37 73.5t-39.5 83.5t-38.5 84t-34 75.5t-26.5 57l-94 -84l-84 -416h-188l272 1368l-180 18v62l317 61h82l-190 -952l331 342q29 30 53 51.5 t46.5 35t45.5 20t50 6.5q34 0 59.5 -10t42 -26t24.5 -36t7 -39q0 -35 -32.5 -72.5t-104.5 -62.5l-70 74q-28 -22 -60.5 -49t-65.5 -55t-63 -55t-54 -48q13 -26 28.5 -65t33 -83.5t38 -91t43.5 -88.5q23 -43 48.5 -82.5t52.5 -70t55 -48.5t55 -18q11 0 27 2.5t34 6.5t35.5 10 t30.5 12v-70zM485 -248q0 -64 -25.5 -114t-67.5 -87t-96 -61t-112 -35l12 70q42 12 71 25t49.5 32.5t33 48t20.5 72.5h-108q-10 11 -13.5 26t-3.5 29q0 26 10.5 47.5t27.5 37t40 24t47 8.5q57 0 86 -33.5t29 -89.5z" />
<glyph unicode="L&#x301;" horiz-adv-x="1061" d="M915 0h-946v86l119 10q43 3 49 39l213 1102q3 17 -5 28t-34 13l-114 10v86h532v-86l-121 -10q-23 -2 -35.5 -14t-15.5 -27l-217 -1135h403q20 0 32.5 11.5t19.5 29.5l73 236h121zM1032 1811q0 -29 -13 -48.5t-36 -35.5l-307 -199h-144l279 320q10 12 21 21t24.5 16 t31 10.5t40.5 3.5q27 0 46.5 -8t32 -20.5t19 -28.5t6.5 -31z" />
<glyph unicode="l&#x301;" horiz-adv-x="543" d="M539 53q-12 -5 -45 -17.5t-74 -26t-85.5 -24t-80.5 -10.5q-47 0 -80 11t-54 31t-30.5 47.5t-9.5 60.5q0 31 6 72l225 1171l-182 18v62l320 61h79l-249 -1306q-4 -21 2 -41.5t19 -36t32 -25.5t41 -10q15 0 39.5 5.5t49.5 12.5t46.5 14t30.5 9v-78zM824 1891 q0 -29 -13 -48.5t-36 -35.5l-307 -199h-144l279 320q10 12 21 21t24.5 16t31 10.5t40.5 3.5q27 0 46.5 -8t32 -20.5t19 -28.5t6.5 -31z" />
<glyph unicode="L&#x327;" horiz-adv-x="1061" d="M915 0h-946v86l119 10q43 3 49 39l213 1102q3 17 -5 28t-34 13l-114 10v86h532v-86l-121 -10q-23 -2 -35.5 -14t-15.5 -27l-217 -1135h403q20 0 32.5 11.5t19.5 29.5l73 236h121zM494 -248q0 -64 -25.5 -114t-67.5 -87t-96 -61t-112 -35l12 70q42 12 71 25t49.5 32.5 t33 48t20.5 72.5h-108q-10 11 -13.5 26t-3.5 29q0 26 10.5 47.5t27.5 37t40 24t47 8.5q57 0 86 -33.5t29 -89.5z" />
<glyph unicode="l&#x327;" horiz-adv-x="543" d="M539 53q-12 -5 -45 -17.5t-74 -26t-85.5 -24t-80.5 -10.5q-47 0 -80 11t-54 31t-30.5 47.5t-9.5 60.5q0 31 6 72l225 1171l-182 18v62l320 61h79l-249 -1306q-4 -21 2 -41.5t19 -36t32 -25.5t41 -10q15 0 39.5 5.5t49.5 12.5t46.5 14t30.5 9v-78zM250 -248 q0 -64 -25.5 -114t-67.5 -87t-96 -61t-112 -35l12 70q42 12 71 25t49.5 32.5t33 48t20.5 72.5h-108q-10 11 -13.5 26t-3.5 29q0 26 10.5 47.5t27.5 37t40 24t47 8.5q57 0 86 -33.5t29 -89.5z" />
<glyph unicode="L&#x30c;" horiz-adv-x="1061" d="M1087 1335q0 -65 -25 -115t-66.5 -87t-95.5 -60.5t-112 -34.5l12 68q42 13 71 26.5t49.5 33t33 48t20.5 72.5h-108q-9 11 -13 26.5t-4 29.5q0 25 10.5 46.5t27.5 37t40 24t47 8.5q57 0 85 -33.5t28 -89.5zM915 0h-946v86l119 10q43 3 49 39l213 1102q3 17 -5 28t-34 13 l-114 10v86h532v-86l-121 -10q-23 -2 -35.5 -14t-15.5 -27l-217 -1135h403q20 0 32.5 11.5t19.5 29.5l73 236h121z" />
<glyph unicode="l&#x30c;" horiz-adv-x="839" d="M874 1425q0 -65 -25 -115t-66.5 -87t-95.5 -60.5t-112 -34.5l12 68q42 13 71 26.5t49.5 33t33 48t20.5 72.5h-108q-9 11 -13 26.5t-4 29.5q0 25 10.5 46.5t27.5 37t40 24t47 8.5q57 0 85 -33.5t28 -89.5zM539 53q-12 -5 -45 -17.5t-74 -26t-85.5 -24t-80.5 -10.5 q-47 0 -80 11t-54 31t-30.5 47.5t-9.5 60.5q0 31 6 72l225 1171l-182 18v62l320 61h79l-249 -1306q-4 -21 2 -41.5t19 -36t32 -25.5t41 -10q15 0 39.5 5.5t49.5 12.5t46.5 14t30.5 9v-78z" />
<glyph unicode="N&#x301;" horiz-adv-x="1456" d="M1430 1278q-20 -2 -33.5 -11.5t-18.5 -29.5l-241 -1237h-148l-516 1087l-182 -952q-3 -15 5 -26t36 -13l114 -10v-86h-475v86l117 10q42 3 51 39l211 1102q3 17 -5 28t-34 13l-114 10v86h395v-53l461 -977l174 893q3 17 -5 28t-34 13l-117 10v86h475v-86zM1224 1811 q0 -29 -13 -48.5t-36 -35.5l-307 -199h-144l279 320q10 12 21 21t24.5 16t31 10.5t40.5 3.5q27 0 46.5 -8t32 -20.5t19 -28.5t6.5 -31z" />
<glyph unicode="n&#x301;" horiz-adv-x="1085" d="M1079 41q-13 -5 -45.5 -15.5t-72.5 -22t-82 -20t-74 -8.5q-18 0 -49.5 3.5t-60.5 16t-47 36.5t-9 65l125 629q7 41 0.5 68t-21 43.5t-33.5 23t-36 6.5q-25 0 -61.5 -14.5t-77 -38.5t-81.5 -56.5t-75 -68.5l-141 -688h-191l178 870l-172 19v59l309 64h82l-38 -191 q34 34 78 68.5t94 61.5t103.5 44t104.5 17q112 0 159.5 -62t23.5 -200l-109 -578q-5 -29 4.5 -46t25 -26t32.5 -11.5t26 -2.5q28 0 61 8t68 19zM988 1411q0 -29 -13 -48.5t-36 -35.5l-307 -199h-144l279 320q10 12 21 21t24.5 16t31 10.5t40.5 3.5q27 0 46.5 -8t32 -20.5 t19 -28.5t6.5 -31z" />
<glyph unicode="N&#x327;" horiz-adv-x="1456" d="M1430 1278q-20 -2 -33.5 -11.5t-18.5 -29.5l-241 -1237h-148l-516 1087l-182 -952q-3 -15 5 -26t36 -13l114 -10v-86h-475v86l117 10q42 3 51 39l211 1102q3 17 -5 28t-34 13l-114 10v86h395v-53l461 -977l174 893q3 17 -5 28t-34 13l-117 10v86h475v-86zM686 -248 q0 -64 -25.5 -114t-67.5 -87t-96 -61t-112 -35l12 70q42 12 71 25t49.5 32.5t33 48t20.5 72.5h-108q-10 11 -13.5 26t-3.5 29q0 26 10.5 47.5t27.5 37t40 24t47 8.5q57 0 86 -33.5t29 -89.5z" />
<glyph unicode="n&#x327;" horiz-adv-x="1085" d="M1079 41q-13 -5 -45.5 -15.5t-72.5 -22t-82 -20t-74 -8.5q-18 0 -49.5 3.5t-60.5 16t-47 36.5t-9 65l125 629q7 41 0.5 68t-21 43.5t-33.5 23t-36 6.5q-25 0 -61.5 -14.5t-77 -38.5t-81.5 -56.5t-75 -68.5l-141 -688h-191l178 870l-172 19v59l309 64h82l-38 -191 q34 34 78 68.5t94 61.5t103.5 44t104.5 17q112 0 159.5 -62t23.5 -200l-109 -578q-5 -29 4.5 -46t25 -26t32.5 -11.5t26 -2.5q28 0 61 8t68 19zM498 -248q0 -64 -25.5 -114t-67.5 -87t-96 -61t-112 -35l12 70q42 12 71 25t49.5 32.5t33 48t20.5 72.5h-108q-10 11 -13.5 26 t-3.5 29q0 26 10.5 47.5t27.5 37t40 24t47 8.5q57 0 86 -33.5t29 -89.5z" />
<glyph unicode="N&#x30c;" horiz-adv-x="1456" d="M1430 1278q-20 -2 -33.5 -11.5t-18.5 -29.5l-241 -1237h-148l-516 1087l-182 -952q-3 -15 5 -26t36 -13l114 -10v-86h-475v86l117 10q42 3 51 39l211 1102q3 17 -5 28t-34 13l-114 10v86h395v-53l461 -977l174 893q3 17 -5 28t-34 13l-117 10v86h475v-86zM974 1528h-162 l-201 347h144l170 -189l243 189h146z" />
<glyph unicode="n&#x30c;" horiz-adv-x="1085" d="M1079 41q-13 -5 -45.5 -15.5t-72.5 -22t-82 -20t-74 -8.5q-18 0 -49.5 3.5t-60.5 16t-47 36.5t-9 65l125 629q7 41 0.5 68t-21 43.5t-33.5 23t-36 6.5q-25 0 -61.5 -14.5t-77 -38.5t-81.5 -56.5t-75 -68.5l-141 -688h-191l178 870l-172 19v59l309 64h82l-38 -191 q34 34 78 68.5t94 61.5t103.5 44t104.5 17q112 0 159.5 -62t23.5 -200l-109 -578q-5 -29 4.5 -46t25 -26t32.5 -11.5t26 -2.5q28 0 61 8t68 19zM738 1128h-162l-201 347h144l170 -189l243 189h146z" />
<glyph unicode="O&#x304;" horiz-adv-x="1454" d="M1182 854q0 102 -25.5 185t-71 142.5t-108 91.5t-135.5 32q-75 0 -142 -33t-124 -90t-102.5 -133.5t-77.5 -163.5t-49 -180.5t-17 -184.5q0 -104 26.5 -186.5t72 -140t107.5 -88.5t134 -31q75 0 142 33.5t124 91.5t102.5 134.5t77.5 163.5t49 178.5t17 178.5zM1415 854 q0 -108 -23 -215.5t-67 -206.5t-109 -183.5t-149.5 -147.5t-188 -98.5t-223.5 -35.5q-123 0 -225 40.5t-176 115.5t-115 180t-41 234q0 110 25 217t72.5 204t115 179t152 142t185 94t212.5 34q127 0 230 -43.5t175 -118.5t111 -176t39 -215zM1223 1600h-620l29 135h617z" />
<glyph unicode="o&#x304;" horiz-adv-x="1036" d="M766 623q0 73 -14 129t-38 94t-57.5 58t-72.5 20q-67 0 -124.5 -48.5t-99.5 -127t-66 -177t-24 -198.5q0 -76 14 -133t39 -95.5t58 -57.5t72 -19q48 0 90.5 24.5t77 66t61.5 96.5t46 116.5t28.5 126.5t9.5 125zM973 614q0 -83 -18.5 -162.5t-53 -150.5t-83 -130.5 t-109 -103t-131.5 -68t-150 -24.5q-84 0 -152 27t-115 77.5t-72.5 122t-25.5 160.5q0 83 18 163.5t51.5 152.5t81.5 133.5t108.5 106t132 69.5t151.5 25q74 0 140.5 -23t117 -72t80 -124t29.5 -179zM973 1200h-620l29 135h617z" />
<glyph unicode="O&#x306;" horiz-adv-x="1454" d="M1182 854q0 102 -25.5 185t-71 142.5t-108 91.5t-135.5 32q-75 0 -142 -33t-124 -90t-102.5 -133.5t-77.5 -163.5t-49 -180.5t-17 -184.5q0 -104 26.5 -186.5t72 -140t107.5 -88.5t134 -31q75 0 142 33.5t124 91.5t102.5 134.5t77.5 163.5t49 178.5t17 178.5zM1415 854 q0 -108 -23 -215.5t-67 -206.5t-109 -183.5t-149.5 -147.5t-188 -98.5t-223.5 -35.5q-123 0 -225 40.5t-176 115.5t-115 180t-41 234q0 110 25 217t72.5 204t115 179t152 142t185 94t212.5 34q127 0 230 -43.5t175 -118.5t111 -176t39 -215zM1276 1823q-12 -52 -41.5 -104.5 t-76 -95t-110 -69t-144.5 -26.5q-73 0 -124 21t-82.5 55t-46 77t-14.5 87q0 12 1 26t3 29h107q2 -45 18.5 -75.5t41.5 -49t55.5 -26.5t60.5 -8q31 0 66.5 8t69 27t63 49.5t49.5 74.5h104z" />
<glyph unicode="o&#x306;" horiz-adv-x="1036" d="M766 623q0 73 -14 129t-38 94t-57.5 58t-72.5 20q-67 0 -124.5 -48.5t-99.5 -127t-66 -177t-24 -198.5q0 -76 14 -133t39 -95.5t58 -57.5t72 -19q48 0 90.5 24.5t77 66t61.5 96.5t46 116.5t28.5 126.5t9.5 125zM973 614q0 -83 -18.5 -162.5t-53 -150.5t-83 -130.5 t-109 -103t-131.5 -68t-150 -24.5q-84 0 -152 27t-115 77.5t-72.5 122t-25.5 160.5q0 83 18 163.5t51.5 152.5t81.5 133.5t108.5 106t132 69.5t151.5 25q74 0 140.5 -23t117 -72t80 -124t29.5 -179zM1026 1423q-12 -52 -41.5 -104.5t-76 -95t-110 -69t-144.5 -26.5 q-73 0 -124 21t-82.5 55t-46 77t-14.5 87q0 12 1 26t3 29h107q2 -45 18.5 -75.5t41.5 -49t55.5 -26.5t60.5 -8q31 0 66.5 8t69 27t63 49.5t49.5 74.5h104z" />
<glyph unicode="O&#x30b;" horiz-adv-x="1454" d="M1182 854q0 102 -25.5 185t-71 142.5t-108 91.5t-135.5 32q-75 0 -142 -33t-124 -90t-102.5 -133.5t-77.5 -163.5t-49 -180.5t-17 -184.5q0 -104 26.5 -186.5t72 -140t107.5 -88.5t134 -31q75 0 142 33.5t124 91.5t102.5 134.5t77.5 163.5t49 178.5t17 178.5zM1415 854 q0 -108 -23 -215.5t-67 -206.5t-109 -183.5t-149.5 -147.5t-188 -98.5t-223.5 -35.5q-123 0 -225 40.5t-176 115.5t-115 180t-41 234q0 110 25 217t72.5 204t115 179t152 142t185 94t212.5 34q127 0 230 -43.5t175 -118.5t111 -176t39 -215zM1045 1811q0 -29 -13.5 -48.5 t-35.5 -35.5l-309 -199h-141l276 320q20 23 46.5 37t72.5 14q27 0 46.5 -8t32.5 -20.5t19 -28.5t6 -31zM1461 1811q0 -29 -13.5 -48.5t-35.5 -35.5l-307 -199h-144l279 320q10 12 21 21t24.5 16t31 10.5t40.5 3.5q27 0 46.5 -8t32 -20.5t19 -28.5t6.5 -31z" />
<glyph unicode="o&#x30b;" horiz-adv-x="1036" d="M766 623q0 73 -14 129t-38 94t-57.5 58t-72.5 20q-67 0 -124.5 -48.5t-99.5 -127t-66 -177t-24 -198.5q0 -76 14 -133t39 -95.5t58 -57.5t72 -19q48 0 90.5 24.5t77 66t61.5 96.5t46 116.5t28.5 126.5t9.5 125zM973 614q0 -83 -18.5 -162.5t-53 -150.5t-83 -130.5 t-109 -103t-131.5 -68t-150 -24.5q-84 0 -152 27t-115 77.5t-72.5 122t-25.5 160.5q0 83 18 163.5t51.5 152.5t81.5 133.5t108.5 106t132 69.5t151.5 25q74 0 140.5 -23t117 -72t80 -124t29.5 -179zM795 1411q0 -29 -13.5 -48.5t-35.5 -35.5l-309 -199h-141l276 320 q20 23 46.5 37t72.5 14q27 0 46.5 -8t32.5 -20.5t19 -28.5t6 -31zM1211 1411q0 -29 -13.5 -48.5t-35.5 -35.5l-307 -199h-144l279 320q10 12 21 21t24.5 16t31 10.5t40.5 3.5q27 0 46.5 -8t32 -20.5t19 -28.5t6.5 -31z" />
<glyph unicode="R&#x301;" horiz-adv-x="1313" d="M958 1042q0 75 -32.5 121t-83.5 71t-113 32.5t-121 5.5q-8 0 -22 -1t-23 -1l-104 -559h45q83 0 164 15t145.5 53t104.5 101.5t40 161.5zM1260 0q-42 -19 -78.5 -26t-71.5 -7q-93 0 -149.5 30t-89 78t-48 106.5t-26.5 115.5q-12 57 -26.5 112.5t-41 99t-70.5 70.5t-116 27 q-14 0 -32 -0.5t-35 -0.5q-19 -1 -40 -1l-88 -469q-3 -15 5 -26t34 -13l119 -10v-86h-533v86l117 10q42 3 51 39l209 1102q3 17 -5 28t-34 13l-114 10v86h548q85 0 165.5 -14t142.5 -49t99.5 -93.5t37.5 -146.5q0 -83 -33 -150t-90 -119.5t-133 -90.5t-162 -62 q63 -27 100.5 -60.5t60.5 -74.5t36 -91t28 -108q15 -57 33 -100.5t47.5 -72.5t73 -43.5t109.5 -14.5v-84zM1104 1811q0 -29 -13 -48.5t-36 -35.5l-307 -199h-144l279 320q10 12 21 21t24.5 16t31 10.5t40.5 3.5q27 0 46.5 -8t32 -20.5t19 -28.5t6.5 -31z" />
<glyph unicode="r&#x301;" horiz-adv-x="766" d="M838 874q0 -36 -13 -57.5t-37 -32.5t-57.5 -14.5t-75.5 -3.5l-49 98q-38 -16 -81.5 -55.5t-82.5 -90t-68 -104t-38 -98.5l-107 -516h-190l176 870l-172 19v59l309 64h82l-43 -207q63 97 143 152t173 55q37 0 62 -13.5t40.5 -34.5t22 -45t6.5 -45zM838 1411 q0 -29 -13 -48.5t-36 -35.5l-307 -199h-144l279 320q10 12 21 21t24.5 16t31 10.5t40.5 3.5q27 0 46.5 -8t32 -20.5t19 -28.5t6.5 -31z" />
<glyph unicode="R&#x327;" horiz-adv-x="1313" d="M958 1042q0 75 -32.5 121t-83.5 71t-113 32.5t-121 5.5q-8 0 -22 -1t-23 -1l-104 -559h45q83 0 164 15t145.5 53t104.5 101.5t40 161.5zM1260 0q-42 -19 -78.5 -26t-71.5 -7q-93 0 -149.5 30t-89 78t-48 106.5t-26.5 115.5q-12 57 -26.5 112.5t-41 99t-70.5 70.5t-116 27 q-14 0 -32 -0.5t-35 -0.5q-19 -1 -40 -1l-88 -469q-3 -15 5 -26t34 -13l119 -10v-86h-533v86l117 10q42 3 51 39l209 1102q3 17 -5 28t-34 13l-114 10v86h548q85 0 165.5 -14t142.5 -49t99.5 -93.5t37.5 -146.5q0 -83 -33 -150t-90 -119.5t-133 -90.5t-162 -62 q63 -27 100.5 -60.5t60.5 -74.5t36 -91t28 -108q15 -57 33 -100.5t47.5 -72.5t73 -43.5t109.5 -14.5v-84zM566 -248q0 -64 -25.5 -114t-67.5 -87t-96 -61t-112 -35l12 70q42 12 71 25t49.5 32.5t33 48t20.5 72.5h-108q-10 11 -13.5 26t-3.5 29q0 26 10.5 47.5t27.5 37t40 24 t47 8.5q57 0 86 -33.5t29 -89.5z" />
<glyph unicode="r&#x327;" horiz-adv-x="766" d="M838 874q0 -36 -13 -57.5t-37 -32.5t-57.5 -14.5t-75.5 -3.5l-49 98q-38 -16 -81.5 -55.5t-82.5 -90t-68 -104t-38 -98.5l-107 -516h-190l176 870l-172 19v59l309 64h82l-43 -207q63 97 143 152t173 55q37 0 62 -13.5t40.5 -34.5t22 -45t6.5 -45zM189 -248 q0 -64 -25.5 -114t-67.5 -87t-96 -61t-112 -35l12 70q42 12 71 25t49.5 32.5t33 48t20.5 72.5h-108q-10 11 -13.5 26t-3.5 29q0 26 10.5 47.5t27.5 37t40 24t47 8.5q57 0 86 -33.5t29 -89.5z" />
<glyph unicode="R&#x30c;" horiz-adv-x="1313" d="M958 1042q0 75 -32.5 121t-83.5 71t-113 32.5t-121 5.5q-8 0 -22 -1t-23 -1l-104 -559h45q83 0 164 15t145.5 53t104.5 101.5t40 161.5zM1260 0q-42 -19 -78.5 -26t-71.5 -7q-93 0 -149.5 30t-89 78t-48 106.5t-26.5 115.5q-12 57 -26.5 112.5t-41 99t-70.5 70.5t-116 27 q-14 0 -32 -0.5t-35 -0.5q-19 -1 -40 -1l-88 -469q-3 -15 5 -26t34 -13l119 -10v-86h-533v86l117 10q42 3 51 39l209 1102q3 17 -5 28t-34 13l-114 10v86h548q85 0 165.5 -14t142.5 -49t99.5 -93.5t37.5 -146.5q0 -83 -33 -150t-90 -119.5t-133 -90.5t-162 -62 q63 -27 100.5 -60.5t60.5 -74.5t36 -91t28 -108q15 -57 33 -100.5t47.5 -72.5t73 -43.5t109.5 -14.5v-84zM854 1528h-162l-201 347h144l170 -189l243 189h146z" />
<glyph unicode="r&#x30c;" horiz-adv-x="766" d="M838 874q0 -36 -13 -57.5t-37 -32.5t-57.5 -14.5t-75.5 -3.5l-49 98q-38 -16 -81.5 -55.5t-82.5 -90t-68 -104t-38 -98.5l-107 -516h-190l176 870l-172 19v59l309 64h82l-43 -207q63 97 143 152t173 55q37 0 62 -13.5t40.5 -34.5t22 -45t6.5 -45zM588 1128h-162l-201 347 h144l170 -189l243 189h146z" />
<glyph unicode="S&#x301;" d="M985 1020h-121l8 207q0 10 -15 23.5t-40.5 26t-58.5 21.5t-70 9q-59 0 -114.5 -21t-98.5 -58.5t-68.5 -89t-25.5 -112.5q0 -55 30 -96.5t74 -73.5t94 -56t91 -44q54 -28 105.5 -59t91.5 -70t64.5 -89.5t24.5 -117.5q0 -74 -30.5 -154t-98.5 -146.5t-176.5 -109.5 t-265.5 -43q-79 0 -146.5 14.5t-119 33t-85 36t-44.5 23.5l69 329h140l-23 -235q-1 -12 14 -24t39 -22.5t53 -19t55.5 -15t47 -10t27.5 -3.5q66 0 126 20.5t105.5 59t72.5 94t27 125.5q0 52 -30.5 92.5t-75 72.5t-94.5 56.5t-88 44.5q-54 28 -105 58.5t-90.5 68t-63.5 84.5 t-24 108q0 102 40 185t111.5 141.5t169 90.5t212.5 32q69 0 128 -9.5t104 -22.5t74.5 -25t39.5 -17zM1065 1811q0 -29 -13 -48.5t-36 -35.5l-307 -199h-144l279 320q10 12 21 21t24.5 16t31 10.5t40.5 3.5q27 0 46.5 -8t32 -20.5t19 -28.5t6.5 -31z" />
<glyph unicode="s&#x301;" horiz-adv-x="758" d="M715 883q0 -36 -16 -57.5t-39 -33.5t-48.5 -16.5t-44.5 -5.5l-92 125q-6 5 -19 10.5t-32 5.5q-34 0 -57 -14.5t-37.5 -36t-20.5 -46t-6 -44.5q0 -28 16 -56.5t42 -57t58.5 -56t65.5 -53.5q34 -27 65.5 -55.5t56.5 -59t40 -64.5t15 -71q0 -63 -25.5 -121t-75 -103 t-123 -71.5t-168.5 -26.5q-74 0 -128 16.5t-89 43t-52 60.5t-17 69q0 49 29.5 79.5t92.5 30.5q19 0 36 -5t31 -11.5t24.5 -14t15.5 -12.5l-39 -100q22 -31 54.5 -52.5t84.5 -21.5q31 0 60 12t51.5 34t35.5 53.5t13 70.5q0 31 -12.5 58.5t-35 53.5t-53 51.5t-67.5 53.5 q-32 25 -61.5 54t-53 61.5t-37.5 68.5t-14 74q0 75 34 133t87.5 97.5t119 59.5t128.5 20q58 0 97.5 -13.5t64 -33t35 -42t10.5 -40.5zM849 1411q0 -29 -13 -48.5t-36 -35.5l-307 -199h-144l279 320q10 12 21 21t24.5 16t31 10.5t40.5 3.5q27 0 46.5 -8t32 -20.5t19 -28.5 t6.5 -31z" />
<glyph unicode="S&#x302;" d="M985 1020h-121l8 207q0 10 -15 23.5t-40.5 26t-58.5 21.5t-70 9q-59 0 -114.5 -21t-98.5 -58.5t-68.5 -89t-25.5 -112.5q0 -55 30 -96.5t74 -73.5t94 -56t91 -44q54 -28 105.5 -59t91.5 -70t64.5 -89.5t24.5 -117.5q0 -74 -30.5 -154t-98.5 -146.5t-176.5 -109.5 t-265.5 -43q-79 0 -146.5 14.5t-119 33t-85 36t-44.5 23.5l69 329h140l-23 -235q-1 -12 14 -24t39 -22.5t53 -19t55.5 -15t47 -10t27.5 -3.5q66 0 126 20.5t105.5 59t72.5 94t27 125.5q0 52 -30.5 92.5t-75 72.5t-94.5 56.5t-88 44.5q-54 28 -105 58.5t-90.5 68t-63.5 84.5 t-24 108q0 102 40 185t111.5 141.5t169 90.5t212.5 32q69 0 128 -9.5t104 -22.5t74.5 -25t39.5 -17zM939 1528l-168 189l-246 -189h-143l338 347h161l201 -347h-143z" />
<glyph unicode="s&#x302;" horiz-adv-x="758" d="M715 883q0 -36 -16 -57.5t-39 -33.5t-48.5 -16.5t-44.5 -5.5l-92 125q-6 5 -19 10.5t-32 5.5q-34 0 -57 -14.5t-37.5 -36t-20.5 -46t-6 -44.5q0 -28 16 -56.5t42 -57t58.5 -56t65.5 -53.5q34 -27 65.5 -55.5t56.5 -59t40 -64.5t15 -71q0 -63 -25.5 -121t-75 -103 t-123 -71.5t-168.5 -26.5q-74 0 -128 16.5t-89 43t-52 60.5t-17 69q0 49 29.5 79.5t92.5 30.5q19 0 36 -5t31 -11.5t24.5 -14t15.5 -12.5l-39 -100q22 -31 54.5 -52.5t84.5 -21.5q31 0 60 12t51.5 34t35.5 53.5t13 70.5q0 31 -12.5 58.5t-35 53.5t-53 51.5t-67.5 53.5 q-32 25 -61.5 54t-53 61.5t-37.5 68.5t-14 74q0 75 34 133t87.5 97.5t119 59.5t128.5 20q58 0 97.5 -13.5t64 -33t35 -42t10.5 -40.5zM723 1128l-168 189l-246 -189h-143l338 347h161l201 -347h-143z" />
<glyph unicode="S&#x327;" d="M641 -229q0 -53 -23 -95.5t-63 -72t-92.5 -45t-110.5 -15.5q-23 0 -47.5 3t-46.5 6.5t-40.5 8t-29.5 7.5l19 82q23 -6 61 -14.5t72 -8.5q14 0 37 4t44.5 14.5t37.5 29.5t16 49q0 15 -6.5 25.5t-16 17t-21.5 9.5t-24 3q-9 0 -21 -5.5t-44 -21.5l40 215q-77 0 -144 15 q-67 14 -118.5 32.5t-85 36t-44.5 23.5l69 329h140l-23 -235q-1 -12 14 -24t39 -22.5t53 -19t55.5 -15t47 -10t27.5 -3.5q66 0 126 20.5t105.5 59t72.5 94t27 125.5q0 52 -30.5 92.5t-75 72.5t-94.5 56.5t-88 44.5q-54 28 -105 58.5t-90.5 68t-63.5 84.5t-24 108 q0 102 40 185t111.5 141.5t169 90.5t212.5 32q69 0 128 -9.5t104 -22.5t74.5 -25t39.5 -17l-66 -313h-121l8 207q0 10 -15 23.5t-40.5 26t-58.5 21.5t-70 9q-59 0 -114.5 -21t-98.5 -58.5t-68.5 -89t-25.5 -112.5q0 -55 30 -96.5t74 -73.5t94 -56t91 -44q54 -28 105.5 -59 t91.5 -70t64.5 -89.5t24.5 -117.5q0 -74 -30.5 -154t-98.5 -146.5t-177 -109.5q-70 -28 -160 -37l-17 -98q8 2 15.5 3t15.5 1q137 0 137 -108z" />
<glyph unicode="s&#x327;" horiz-adv-x="758" d="M480 -229q0 -53 -23 -95.5t-63 -72t-92.5 -45t-110.5 -15.5q-23 0 -47.5 3t-46.5 6.5t-40.5 8t-29.5 7.5l19 82q23 -6 61 -14.5t72 -8.5q14 0 37 4t44.5 14.5t37.5 29.5t16 49q0 15 -6.5 25.5t-16 17t-21.5 9.5t-24 3q-9 0 -21 -5.5t-44 -21.5l42 225q-45 4 -81 15 q-54 16 -89 42.5t-52 60.5t-17 69q0 49 29.5 79.5t92.5 30.5q19 0 36 -5t31 -11.5t24.5 -14t15.5 -12.5l-39 -100q22 -31 54.5 -52.5t84.5 -21.5q31 0 60 12t51.5 34t35.5 53.5t13 70.5q0 31 -12.5 58.5t-35 53.5t-53 51.5t-67.5 53.5q-32 25 -61.5 54t-53 61.5t-37.5 68.5 t-14 74q0 75 34 133t87.5 97.5t119 59.5t128.5 20q58 0 97.5 -13.5t64 -33t35 -42t10.5 -40.5q0 -36 -16 -57.5t-39 -33.5t-48.5 -16.5t-44.5 -5.5l-92 125q-6 5 -19 10.5t-32 5.5q-34 0 -57 -14.5t-37.5 -36t-20.5 -46t-6 -44.5q0 -28 16 -56.5t42 -57t58.5 -56t65.5 -53.5 q34 -27 65.5 -55.5t56.5 -59t40 -64.5t15 -71q0 -63 -25.5 -121t-75 -103t-123.5 -72q-49 -17 -108 -23l-18 -103q8 2 15.5 3t15.5 1q137 0 137 -108z" />
<glyph unicode="S&#x30c;" d="M985 1020h-121l8 207q0 10 -15 23.5t-40.5 26t-58.5 21.5t-70 9q-59 0 -114.5 -21t-98.5 -58.5t-68.5 -89t-25.5 -112.5q0 -55 30 -96.5t74 -73.5t94 -56t91 -44q54 -28 105.5 -59t91.5 -70t64.5 -89.5t24.5 -117.5q0 -74 -30.5 -154t-98.5 -146.5t-176.5 -109.5 t-265.5 -43q-79 0 -146.5 14.5t-119 33t-85 36t-44.5 23.5l69 329h140l-23 -235q-1 -12 14 -24t39 -22.5t53 -19t55.5 -15t47 -10t27.5 -3.5q66 0 126 20.5t105.5 59t72.5 94t27 125.5q0 52 -30.5 92.5t-75 72.5t-94.5 56.5t-88 44.5q-54 28 -105 58.5t-90.5 68t-63.5 84.5 t-24 108q0 102 40 185t111.5 141.5t169 90.5t212.5 32q69 0 128 -9.5t104 -22.5t74.5 -25t39.5 -17zM815 1528h-162l-201 347h144l170 -189l243 189h146z" />
<glyph unicode="s&#x30c;" horiz-adv-x="758" d="M715 883q0 -36 -16 -57.5t-39 -33.5t-48.5 -16.5t-44.5 -5.5l-92 125q-6 5 -19 10.5t-32 5.5q-34 0 -57 -14.5t-37.5 -36t-20.5 -46t-6 -44.5q0 -28 16 -56.5t42 -57t58.5 -56t65.5 -53.5q34 -27 65.5 -55.5t56.5 -59t40 -64.5t15 -71q0 -63 -25.5 -121t-75 -103 t-123 -71.5t-168.5 -26.5q-74 0 -128 16.5t-89 43t-52 60.5t-17 69q0 49 29.5 79.5t92.5 30.5q19 0 36 -5t31 -11.5t24.5 -14t15.5 -12.5l-39 -100q22 -31 54.5 -52.5t84.5 -21.5q31 0 60 12t51.5 34t35.5 53.5t13 70.5q0 31 -12.5 58.5t-35 53.5t-53 51.5t-67.5 53.5 q-32 25 -61.5 54t-53 61.5t-37.5 68.5t-14 74q0 75 34 133t87.5 97.5t119 59.5t128.5 20q58 0 97.5 -13.5t64 -33t35 -42t10.5 -40.5zM599 1128h-162l-201 347h144l170 -189l243 189h146z" />
<glyph unicode="T&#x327;" horiz-adv-x="1200" d="M1266 1061h-129l8 180q3 41 -39 41h-264l-213 -1147q-3 -15 5 -26t36 -13l116 -10v-86h-532v86l119 10q18 2 32 11.5t17 27.5l213 1147h-256q-39 0 -51 -41l-64 -180h-129l60 313h1134zM702 -229q0 -53 -23 -95.5t-63 -72t-92.5 -45t-110.5 -15.5q-23 0 -47.5 3 t-46.5 6.5t-40.5 8t-29.5 7.5l19 82q23 -6 61 -14.5t72 -8.5q14 0 37 4t44.5 14.5t37.5 29.5t16 49q0 15 -6.5 25.5t-16 17t-21.5 9.5t-24 3q-9 0 -21 -5.5t-44 -21.5l47 248h106l-22 -125q8 2 15.5 3t15.5 1q137 0 137 -108z" />
<glyph unicode="t&#x327;" horiz-adv-x="614" d="M458 -229q0 -53 -23 -95.5t-63 -72t-92.5 -45t-110.5 -15.5q-23 0 -47.5 3t-46.5 6.5t-40.5 8t-29.5 7.5l19 82q23 -6 61 -14.5t72 -8.5q14 0 37 4t44.5 14.5t37.5 29.5t16 49q0 15 -6.5 25.5t-16 17t-21.5 9.5t-24 3q-9 0 -21 -5.5t-44 -21.5l44 232q-7 2 -13 5 q-37 13 -59 36.5t-31.5 56t-9.5 70.5q0 20 1.5 41t6.5 43l125 622l-129 -12v67l154 68l100 205h125l-41 -234h283v-94h-301l-129 -643q-6 -27 2 -48.5t25.5 -36t41 -22.5t49.5 -8q29 0 60 5.5t59.5 13.5t53 16.5t40.5 14.5v-82q-13 -6 -50 -21t-85 -31t-101 -28 q-39 -9 -73 -12l-17 -101q8 2 15.5 3t15.5 1q137 0 137 -108z" />
<glyph unicode="T&#x30c;" horiz-adv-x="1200" d="M1266 1061h-129l8 180q3 41 -39 41h-264l-213 -1147q-3 -15 5 -26t36 -13l116 -10v-86h-532v86l119 10q18 2 32 11.5t17 27.5l213 1147h-256q-39 0 -51 -41l-64 -180h-129l60 313h1134zM856 1528h-162l-201 347h144l170 -189l243 189h146z" />
<glyph unicode="t&#x30c;" horiz-adv-x="614" d="M880 1415q0 -65 -25 -115t-66.5 -87t-95.5 -60.5t-112 -34.5l12 68q42 13 71 26.5t49.5 33t33 48t20.5 72.5h-108q-9 11 -13 26.5t-4 29.5q0 25 10.5 46.5t27.5 37t40 24t47 8.5q57 0 85 -33.5t28 -89.5zM414 858l-129 -643q-6 -27 2 -48.5t25.5 -36t41 -22.5t49.5 -8 q29 0 60 5.5t59.5 13.5t53 16.5t40.5 14.5v-82q-13 -6 -50 -21t-85 -31t-101 -28.5t-97 -12.5q-56 0 -93 13.5t-59 37t-31.5 56t-9.5 70.5q0 20 1.5 41t6.5 43l125 622l-129 -12v67l154 68l100 205h125l-41 -234h283v-94h-301z" />
<glyph unicode="U&#x303;" horiz-adv-x="1448" d="M1415 1278q-18 -2 -32 -11.5t-17 -29.5l-158 -799q-21 -111 -67 -198.5t-117.5 -148t-168 -92.5t-218.5 -32q-95 0 -176.5 19.5t-142.5 62.5t-95.5 111t-34.5 166q0 31 6.5 87t20.5 128l143 696q3 17 -5 28t-36 13l-114 10v86h532v-86l-121 -10q-18 -2 -32 -11.5 t-17 -29.5l-141 -696q-12 -60 -17.5 -107.5t-5.5 -75.5q0 -65 20.5 -113t58 -80.5t91 -48.5t119.5 -16q100 0 167.5 33.5t112.5 89.5t71 130.5t42 156.5l144 727q3 17 -5 28t-36 13l-115 10v86h463v-86zM1335 1815q-22 -45 -50.5 -84.5t-65 -69t-81.5 -46.5t-100 -17 q-42 0 -73 13.5t-63 33.5q-13 9 -26 17t-28.5 15t-34 11t-42.5 4q-13 0 -29.5 -7t-32.5 -19.5t-30 -29.5t-22 -38h-109q21 45 49.5 84.5t64.5 69t81 46.5t100 17q42 0 73.5 -13.5t63.5 -35.5q26 -15 55 -30t76 -15q14 0 30.5 7t32.5 19.5t29.5 29.5t22.5 38h109z" />
<glyph unicode="u&#x303;" horiz-adv-x="1079" d="M1073 49q-19 -11 -52.5 -24t-72.5 -24t-79.5 -18.5t-73.5 -7.5q-58 0 -86 19.5t-38.5 45t-9.5 51.5t1 38q-81 -77 -169.5 -115.5t-191.5 -38.5q-71 0 -116 25t-68 63t-28 83t3 85l133 639l-172 19v59l309 64h84l-163 -781q-6 -26 2.5 -49.5t25 -41t37.5 -28t41 -10.5 q37 0 74.5 10.5t74.5 28.5t71 41.5t63 50.5l155 754h191l-164 -788q-7 -32 0 -53.5t21.5 -35.5t33 -20t35.5 -6q20 0 53 6t76 31v-72zM1091 1415q-22 -45 -50.5 -84.5t-65 -69t-81.5 -46.5t-100 -17q-42 0 -73 13.5t-63 33.5q-13 9 -26 17t-28.5 15t-34 11t-42.5 4 q-13 0 -29.5 -7t-32.5 -19.5t-30 -29.5t-22 -38h-109q21 45 49.5 84.5t64.5 69t81 46.5t100 17q42 0 73.5 -13.5t63.5 -35.5q26 -15 55 -30t76 -15q14 0 30.5 7t32.5 19.5t29.5 29.5t22.5 38h109z" />
<glyph unicode="U&#x304;" horiz-adv-x="1448" d="M1415 1278q-18 -2 -32 -11.5t-17 -29.5l-158 -799q-21 -111 -67 -198.5t-117.5 -148t-168 -92.5t-218.5 -32q-95 0 -176.5 19.5t-142.5 62.5t-95.5 111t-34.5 166q0 31 6.5 87t20.5 128l143 696q3 17 -5 28t-36 13l-114 10v86h532v-86l-121 -10q-18 -2 -32 -11.5 t-17 -29.5l-141 -696q-12 -60 -17.5 -107.5t-5.5 -75.5q0 -65 20.5 -113t58 -80.5t91 -48.5t119.5 -16q100 0 167.5 33.5t112.5 89.5t71 130.5t42 156.5l144 727q3 17 -5 28t-36 13l-115 10v86h463v-86zM1230 1600h-620l29 135h617z" />
<glyph unicode="u&#x304;" horiz-adv-x="1079" d="M1073 49q-19 -11 -52.5 -24t-72.5 -24t-79.5 -18.5t-73.5 -7.5q-58 0 -86 19.5t-38.5 45t-9.5 51.5t1 38q-81 -77 -169.5 -115.5t-191.5 -38.5q-71 0 -116 25t-68 63t-28 83t3 85l133 639l-172 19v59l309 64h84l-163 -781q-6 -26 2.5 -49.5t25 -41t37.5 -28t41 -10.5 q37 0 74.5 10.5t74.5 28.5t71 41.5t63 50.5l155 754h191l-164 -788q-7 -32 0 -53.5t21.5 -35.5t33 -20t35.5 -6q20 0 53 6t76 31v-72zM986 1200h-620l29 135h617z" />
<glyph unicode="U&#x306;" horiz-adv-x="1448" d="M1415 1278q-18 -2 -32 -11.5t-17 -29.5l-158 -799q-21 -111 -67 -198.5t-117.5 -148t-168 -92.5t-218.5 -32q-95 0 -176.5 19.5t-142.5 62.5t-95.5 111t-34.5 166q0 31 6.5 87t20.5 128l143 696q3 17 -5 28t-36 13l-114 10v86h532v-86l-121 -10q-18 -2 -32 -11.5 t-17 -29.5l-141 -696q-12 -60 -17.5 -107.5t-5.5 -75.5q0 -65 20.5 -113t58 -80.5t91 -48.5t119.5 -16q100 0 167.5 33.5t112.5 89.5t71 130.5t42 156.5l144 727q3 17 -5 28t-36 13l-115 10v86h463v-86zM1283 1823q-12 -52 -41.5 -104.5t-76 -95t-110 -69t-144.5 -26.5 q-73 0 -124 21t-82.5 55t-46 77t-14.5 87q0 12 1 26t3 29h107q2 -45 18.5 -75.5t41.5 -49t55.5 -26.5t60.5 -8q31 0 66.5 8t69 27t63 49.5t49.5 74.5h104z" />
<glyph unicode="u&#x306;" horiz-adv-x="1079" d="M1073 49q-19 -11 -52.5 -24t-72.5 -24t-79.5 -18.5t-73.5 -7.5q-58 0 -86 19.5t-38.5 45t-9.5 51.5t1 38q-81 -77 -169.5 -115.5t-191.5 -38.5q-71 0 -116 25t-68 63t-28 83t3 85l133 639l-172 19v59l309 64h84l-163 -781q-6 -26 2.5 -49.5t25 -41t37.5 -28t41 -10.5 q37 0 74.5 10.5t74.5 28.5t71 41.5t63 50.5l155 754h191l-164 -788q-7 -32 0 -53.5t21.5 -35.5t33 -20t35.5 -6q20 0 53 6t76 31v-72zM1039 1423q-12 -52 -41.5 -104.5t-76 -95t-110 -69t-144.5 -26.5q-73 0 -124 21t-82.5 55t-46 77t-14.5 87q0 12 1 26t3 29h107 q2 -45 18.5 -75.5t41.5 -49t55.5 -26.5t60.5 -8q31 0 66.5 8t69 27t63 49.5t49.5 74.5h104z" />
<glyph unicode="U&#x30a;" horiz-adv-x="1448" d="M1415 1278q-18 -2 -32 -11.5t-17 -29.5l-158 -799q-21 -111 -67 -198.5t-117.5 -148t-168 -92.5t-218.5 -32q-95 0 -176.5 19.5t-142.5 62.5t-95.5 111t-34.5 166q0 31 6.5 87t20.5 128l143 696q3 17 -5 28t-36 13l-114 10v86h532v-86l-121 -10q-18 -2 -32 -11.5 t-17 -29.5l-141 -696q-12 -60 -17.5 -107.5t-5.5 -75.5q0 -65 20.5 -113t58 -80.5t91 -48.5t119.5 -16q100 0 167.5 33.5t112.5 89.5t71 130.5t42 156.5l144 727q3 17 -5 28t-36 13l-115 10v86h463v-86zM1091 1797q0 48 -31 76t-78 28q-32 0 -61.5 -13t-53 -35t-37.5 -51 t-14 -61q0 -48 32.5 -77t78.5 -29q31 0 61 13.5t52.5 36t36.5 51.5t14 61zM911 1528q-43 0 -79.5 14.5t-63 40.5t-41.5 62t-15 78q0 56 23.5 107.5t63 91t91 63t107.5 23.5q43 0 79.5 -14.5t63.5 -41t42 -62.5t15 -79q0 -57 -23.5 -108t-63.5 -90t-91.5 -62t-107.5 -23z" />
<glyph unicode="u&#x30a;" horiz-adv-x="1079" d="M1073 49q-19 -11 -52.5 -24t-72.5 -24t-79.5 -18.5t-73.5 -7.5q-58 0 -86 19.5t-38.5 45t-9.5 51.5t1 38q-81 -77 -169.5 -115.5t-191.5 -38.5q-71 0 -116 25t-68 63t-28 83t3 85l133 639l-172 19v59l309 64h84l-163 -781q-6 -26 2.5 -49.5t25 -41t37.5 -28t41 -10.5 q37 0 74.5 10.5t74.5 28.5t71 41.5t63 50.5l155 754h191l-164 -788q-7 -32 0 -53.5t21.5 -35.5t33 -20t35.5 -6q20 0 53 6t76 31v-72zM847 1397q0 48 -31 76t-78 28q-32 0 -61.5 -13t-53 -35t-37.5 -51t-14 -61q0 -48 32.5 -77t78.5 -29q31 0 61 13.5t52.5 36t36.5 51.5 t14 61zM667 1128q-43 0 -79.5 14.5t-63 40.5t-41.5 62t-15 78q0 56 23.5 107.5t63 91t91 63t107.5 23.5q43 0 79.5 -14.5t63.5 -41t42 -62.5t15 -79q0 -57 -23.5 -108t-63.5 -90t-91.5 -62t-107.5 -23z" />
<glyph unicode="U&#x30b;" horiz-adv-x="1448" d="M1415 1278q-18 -2 -32 -11.5t-17 -29.5l-158 -799q-21 -111 -67 -198.5t-117.5 -148t-168 -92.5t-218.5 -32q-95 0 -176.5 19.5t-142.5 62.5t-95.5 111t-34.5 166q0 31 6.5 87t20.5 128l143 696q3 17 -5 28t-36 13l-114 10v86h532v-86l-121 -10q-18 -2 -32 -11.5 t-17 -29.5l-141 -696q-12 -60 -17.5 -107.5t-5.5 -75.5q0 -65 20.5 -113t58 -80.5t91 -48.5t119.5 -16q100 0 167.5 33.5t112.5 89.5t71 130.5t42 156.5l144 727q3 17 -5 28t-36 13l-115 10v86h463v-86zM1052 1811q0 -29 -13.5 -48.5t-35.5 -35.5l-309 -199h-141l276 320 q20 23 46.5 37t72.5 14q27 0 46.5 -8t32.5 -20.5t19 -28.5t6 -31zM1468 1811q0 -29 -13.5 -48.5t-35.5 -35.5l-307 -199h-144l279 320q10 12 21 21t24.5 16t31 10.5t40.5 3.5q27 0 46.5 -8t32 -20.5t19 -28.5t6.5 -31z" />
<glyph unicode="u&#x30b;" horiz-adv-x="1079" d="M1073 49q-19 -11 -52.5 -24t-72.5 -24t-79.5 -18.5t-73.5 -7.5q-58 0 -86 19.5t-38.5 45t-9.5 51.5t1 38q-81 -77 -169.5 -115.5t-191.5 -38.5q-71 0 -116 25t-68 63t-28 83t3 85l133 639l-172 19v59l309 64h84l-163 -781q-6 -26 2.5 -49.5t25 -41t37.5 -28t41 -10.5 q37 0 74.5 10.5t74.5 28.5t71 41.5t63 50.5l155 754h191l-164 -788q-7 -32 0 -53.5t21.5 -35.5t33 -20t35.5 -6q20 0 53 6t76 31v-72zM808 1411q0 -29 -13.5 -48.5t-35.5 -35.5l-309 -199h-141l276 320q20 23 46.5 37t72.5 14q27 0 46.5 -8t32.5 -20.5t19 -28.5t6 -31z M1224 1411q0 -29 -13.5 -48.5t-35.5 -35.5l-307 -199h-144l279 320q10 12 21 21t24.5 16t31 10.5t40.5 3.5q27 0 46.5 -8t32 -20.5t19 -28.5t6.5 -31z" />
<glyph unicode="U&#x328;" horiz-adv-x="1448" d="M1415 1278q-18 -2 -32 -11.5t-17 -29.5l-158 -799q-21 -111 -67 -198.5t-117.5 -148t-168.5 -92.5q-3 -1 -5 -1q-27 -22 -54 -47q-29 -28 -52.5 -60t-38.5 -68t-15 -75q0 -37 24 -53.5t58 -16.5q20 0 38.5 3t37.5 8l-18 -117q-26 -6 -54.5 -10t-56.5 -4q-33 0 -63.5 7 t-53.5 22.5t-37 41.5t-14 64q0 45 17 89.5t44 84t61 73.5q16 16 32 30q-33 -3 -68 -3q-95 0 -176.5 19.5t-142.5 62.5t-95.5 111t-34.5 166q0 31 6.5 87t20.5 128l143 696q3 17 -5 28t-36 13l-114 10v86h532v-86l-121 -10q-18 -2 -32 -11.5t-17 -29.5l-141 -696 q-12 -60 -17.5 -107.5t-5.5 -75.5q0 -65 20.5 -113t58 -80.5t91 -48.5t119.5 -16q100 0 167.5 33.5t112.5 89.5t71 130.5t42 156.5l144 727q3 17 -5 28t-36 13l-115 10v86h463v-86z" />
<glyph unicode="u&#x328;" horiz-adv-x="1079" d="M1073 49q-19 -11 -52.5 -24t-72.5 -24t-80 -18q-6 -1 -11 -2q-17 -14 -33 -30q-29 -28 -52.5 -60t-38.5 -68t-15 -75q0 -37 24 -53.5t58 -16.5q20 0 38.5 3t37.5 8l-18 -117q-26 -6 -54.5 -10t-56.5 -4q-33 0 -63.5 7t-53.5 22.5t-37 41.5t-14 64q0 45 17 89.5t44 84 t61 73.5q22 22 44 40q-22 5 -36 15q-28 19 -38.5 44.5t-9.5 51.5t1 38q-81 -77 -169.5 -115.5t-191.5 -38.5q-71 0 -116 25t-68 63t-28 83t3 85l133 639l-172 19v59l309 64h84l-163 -781q-6 -26 2.5 -49.5t25 -41t37.5 -28t41 -10.5q37 0 74.5 10.5t74.5 28.5t71 41.5 t63 50.5l155 754h191l-164 -788q-7 -32 0 -53.5t21.5 -35.5t33 -20t35.5 -6q20 0 53 6t76 31v-72z" />
<glyph unicode="W&#x302;" horiz-adv-x="1898" d="M1927 1276l-614 -1309h-131l-119 1094l-512 -1094h-143l-103 1276q-2 20 -12.5 29.5t-36.5 11.5l-86 4v86h473v-86l-90 -4q-23 -2 -32 -12t-9 -29l72 -889l481 1020h166l104 -1034l416 903q18 38 -39 41l-92 4v86h428v-86zM1365 1528l-168 189l-246 -189h-143l338 347 h161l201 -347h-143z" />
<glyph unicode="w&#x302;" horiz-adv-x="1438" d="M1446 891q0 -43 -22 -103t-58 -129.5t-83 -144.5t-96.5 -148t-98 -139.5t-88.5 -119.5t-67.5 -88t-35.5 -44h-127l-45 699q-45 -97 -94 -193.5t-98 -186.5t-96.5 -171.5t-90.5 -147.5h-151l20 48l-57 845l-154 17v57l248 70l92 -6l45 -766q40 73 84 161t89 181.5t89 190 t84 188.5l154 18l51 -780q95 122 167 251t134 271l-41 240q4 4 13.5 12.5t25.5 17t37 15t47 6.5q37 0 60.5 -14.5t37.5 -34t19.5 -40t5.5 -32.5zM1003 1128l-168 189l-246 -189h-143l338 347h161l201 -347h-143z" />
<glyph unicode="Y&#x302;" horiz-adv-x="1309" d="M1341 1280q-15 -2 -30 -12.5t-23 -18.5l-520 -674l-86 -440q-5 -15 4 -26t35 -13l115 -10v-86h-533v86l119 10q18 2 31 11.5t18 27.5l84 422l-229 692q-7 20 -17.5 24.5t-21.5 6.5l-115 8v86h530v-86l-131 -8q-17 -2 -25.5 -13t-2.5 -28l168 -532l395 532q4 7 7 14 t2 12.5t-6.5 9.5t-18.5 5l-127 8v86h493v-86zM1040 1528l-168 189l-246 -189h-143l338 347h161l201 -347h-143z" />
<glyph unicode="y&#x302;" horiz-adv-x="1018" d="M971 846q-12 -12 -35 -44t-47.5 -72t-48 -82.5t-37.5 -74.5q-22 -49 -51.5 -119t-66 -150.5t-79.5 -167t-92 -169.5q-48 -81 -102.5 -159.5t-115.5 -140t-128.5 -99t-140.5 -37.5q-56 0 -93 14t-59 34.5t-30.5 44t-8.5 42.5q0 23 10.5 44.5t29.5 38t45 26.5t56 12 l119 -119q32 3 63 25.5t65.5 67.5t75.5 113t93 163q-2 12 -10 53.5t-19.5 101t-26 131.5t-30.5 146q-16 72 -33.5 144.5t-34 130.5t-29.5 95t-20 38l-186 14v51l28 9q20 7 44 14.5t51 16t51 15t43.5 11t28.5 4.5q33 0 58 -15.5t44.5 -44.5t36 -69.5t31.5 -91.5 q26 -91 54 -225.5t58 -299.5l312 746h59l170 -56v-47zM826 1128l-168 189l-246 -189h-143l338 347h161l201 -347h-143z" />
<glyph unicode="Y&#x308;" horiz-adv-x="1309" d="M1341 1280q-15 -2 -30 -12.5t-23 -18.5l-520 -674l-86 -440q-5 -15 4 -26t35 -13l115 -10v-86h-533v86l119 10q18 2 31 11.5t18 27.5l84 422l-229 692q-7 20 -17.5 24.5t-21.5 6.5l-115 8v86h530v-86l-131 -8q-17 -2 -25.5 -13t-2.5 -28l168 -532l395 532q4 7 7 14 t2 12.5t-6.5 9.5t-18.5 5l-127 8v86h493v-86zM770 1713q0 -23 -9 -44t-24.5 -37t-36 -25t-43.5 -9q-22 0 -42 9t-35 25t-24 36t-9 43q0 22 9 42.5t24 36.5t35 25.5t42 9.5q23 0 43.5 -9t36 -24t24.5 -35.5t9 -43.5zM1194 1713q0 -23 -8.5 -44t-23.5 -37t-35.5 -25t-43.5 -9 t-43.5 9t-35.5 25t-24 37t-9 44q0 21 9.5 41.5t25 36t36 25t41.5 9.5q23 0 43.5 -9t35.5 -24t23.5 -35.5t8.5 -43.5z" />
<glyph unicode="Z&#x301;" horiz-adv-x="1153" d="M1200 1282l-964 -1173h557q40 0 51 41l61 229h139l-71 -379h-1014l18 90l961 1178h-479q-22 0 -32.5 -9.5t-16.5 -29.5l-56 -180h-141l66 325h940zM1092 1811q0 -29 -13 -48.5t-36 -35.5l-307 -199h-144l279 320q10 12 21 21t24.5 16t31 10.5t40.5 3.5q27 0 46.5 -8 t32 -20.5t19 -28.5t6.5 -31z" />
<glyph unicode="&#x7a;&#x301;" horiz-adv-x="911" d="M227 145l172 45q21 -8 48 -19.5t55.5 -22.5t55.5 -19t48 -8q22 0 38.5 6.5t29 16.5t22.5 21.5t19 22.5l-113 125q10 18 24 32.5t29.5 24.5t31.5 15.5t30 5.5q28 0 49.5 -11.5t36.5 -29.5t23 -41t8 -45q0 -62 -27.5 -115t-71 -91.5t-96 -60.5t-102.5 -22q-47 0 -89.5 13.5 t-82 30t-77.5 30.5t-75 14q-8 0 -23.5 -3t-29.5 -17l-51 -96l-142 76l695 813l-181 -39q-42 23 -87 41t-87 18q-13 0 -29 -4t-31 -11.5t-28.5 -18.5t-21.5 -25l108 -131q-4 -6 -14 -17.5t-24.5 -23t-33.5 -19.5t-40 -8q-29 0 -50.5 11.5t-35.5 29.5t-20.5 39.5t-6.5 40.5 q0 47 19.5 98.5t57 95t91 71.5t121.5 28q46 0 88.5 -16t80.5 -35.5t72.5 -35.5t65.5 -16q6 0 17 2.5t30 12.5l45 114l154 -80zM898 1411q0 -29 -13 -48.5t-36 -35.5l-307 -199h-144l279 320q10 12 21 21t24.5 16t31 10.5t40.5 3.5q27 0 46.5 -8t32 -20.5t19 -28.5t6.5 -31z " />
<glyph unicode="Z&#x307;" horiz-adv-x="1153" d="M1200 1282l-964 -1173h557q40 0 51 41l61 229h139l-71 -379h-1014l18 90l961 1178h-479q-22 0 -32.5 -9.5t-16.5 -29.5l-56 -180h-141l66 325h940zM912 1713q0 -24 -9 -45t-24.5 -36.5t-36.5 -24.5t-45 -9t-44.5 9t-36 24.5t-24.5 36.5t-9 45t8.5 45t24 37t36.5 25.5 t45 9.5t45 -9t36.5 -25t24.5 -37.5t9 -45.5z" />
<glyph unicode="&#x7a;&#x307;" horiz-adv-x="911" d="M227 145l172 45q21 -8 48 -19.5t55.5 -22.5t55.5 -19t48 -8q22 0 38.5 6.5t29 16.5t22.5 21.5t19 22.5l-113 125q10 18 24 32.5t29.5 24.5t31.5 15.5t30 5.5q28 0 49.5 -11.5t36.5 -29.5t23 -41t8 -45q0 -62 -27.5 -115t-71 -91.5t-96 -60.5t-102.5 -22q-47 0 -89.5 13.5 t-82 30t-77.5 30.5t-75 14q-8 0 -23.5 -3t-29.5 -17l-51 -96l-142 76l695 813l-181 -39q-42 23 -87 41t-87 18q-13 0 -29 -4t-31 -11.5t-28.5 -18.5t-21.5 -25l108 -131q-4 -6 -14 -17.5t-24.5 -23t-33.5 -19.5t-40 -8q-29 0 -50.5 11.5t-35.5 29.5t-20.5 39.5t-6.5 40.5 q0 47 19.5 98.5t57 95t91 71.5t121.5 28q46 0 88.5 -16t80.5 -35.5t72.5 -35.5t65.5 -16q6 0 17 2.5t30 12.5l45 114l154 -80zM718 1313q0 -24 -9 -45t-24.5 -36.5t-36.5 -24.5t-45 -9t-44.5 9t-36 24.5t-24.5 36.5t-9 45t8.5 45t24 37t36.5 25.5t45 9.5t45 -9t36.5 -25 t24.5 -37.5t9 -45.5z" />
<glyph unicode="Z&#x30c;" horiz-adv-x="1153" d="M1200 1282l-964 -1173h557q40 0 51 41l61 229h139l-71 -379h-1014l18 90l961 1178h-479q-22 0 -32.5 -9.5t-16.5 -29.5l-56 -180h-141l66 325h940zM842 1528h-162l-201 347h144l170 -189l243 189h146z" />
<glyph unicode="&#x7a;&#x30c;" horiz-adv-x="911" d="M227 145l172 45q21 -8 48 -19.5t55.5 -22.5t55.5 -19t48 -8q22 0 38.5 6.5t29 16.5t22.5 21.5t19 22.5l-113 125q10 18 24 32.5t29.5 24.5t31.5 15.5t30 5.5q28 0 49.5 -11.5t36.5 -29.5t23 -41t8 -45q0 -62 -27.5 -115t-71 -91.5t-96 -60.5t-102.5 -22q-47 0 -89.5 13.5 t-82 30t-77.5 30.5t-75 14q-8 0 -23.5 -3t-29.5 -17l-51 -96l-142 76l695 813l-181 -39q-42 23 -87 41t-87 18q-13 0 -29 -4t-31 -11.5t-28.5 -18.5t-21.5 -25l108 -131q-4 -6 -14 -17.5t-24.5 -23t-33.5 -19.5t-40 -8q-29 0 -50.5 11.5t-35.5 29.5t-20.5 39.5t-6.5 40.5 q0 47 19.5 98.5t57 95t91 71.5t121.5 28q46 0 88.5 -16t80.5 -35.5t72.5 -35.5t65.5 -16q6 0 17 2.5t30 12.5l45 114l154 -80zM648 1128h-162l-201 347h144l170 -189l243 189h146z" />
<glyph unicode="O&#x31b;" horiz-adv-x="1567" d="M1182 854q0 102 -25.5 185t-71 142.5t-108 91.5t-135.5 32q-75 0 -142 -33t-124 -90t-102.5 -133.5t-77.5 -163.5t-49 -180.5t-17 -184.5q0 -104 26.5 -186.5t72 -140t107.5 -88.5t134 -31q75 0 142 33.5t124 91t102.5 134.5t77.5 163.5t49 178.5t17 179zM1677 1483 q0 -68 -21 -134t-59 -125.5t-90.5 -109.5t-115.5 -84q24 -83 24 -176q0 -108 -23 -215.5t-67 -206.5t-109 -183.5t-149.5 -147.5t-188 -98.5t-223.5 -35.5q-123 0 -225 40.5t-176 115.5t-115 180t-41 234q0 110 25 217t72.5 204t115 179t152 142t185 94t212.5 34 q87 0 163 -20.5t139 -58t111.5 -90t80.5 -116.5q32 22 55.5 51.5t41 64.5t29 75t19.5 82h-178q-10 15 -18 33q-7 15 -12 34.5t-5 42.5q0 41 17 74.5t44.5 57.5t63.5 37.5t74 13.5q41 0 76.5 -14t61 -40.5t40 -64.5t14.5 -86z" />
<glyph unicode="o&#x31b;" horiz-adv-x="1233" d="M766 623q0 73 -14 129t-38 94t-57.5 58t-72.5 20q-67 0 -124.5 -48.5t-99.5 -127t-66 -177t-24 -198.5q0 -76 14 -133t39 -95.5t58 -57.5t72 -19q48 0 90.5 24.5t77 66t61.5 96.5t46 116.5t28.5 126.5t9.5 125zM1223 1010q0 -56 -20 -111t-54.5 -103.5t-79.5 -89 t-96 -65.5v-27q0 -83 -18.5 -162.5t-53 -150.5t-83 -130.5t-109 -103t-131.5 -68t-150 -24.5q-84 0 -152 27t-115 77.5t-72.5 122t-25.5 160.5q0 83 18 163.5t51.5 152.5t81.5 133.5t108.5 106t132 69.5t151.5 25q64 0 122 -17t105.5 -52.5t81 -90t48.5 -129.5 q48 45 75.5 99t36.5 116h-139q-10 11 -17 26q-6 13 -11 30t-5 38q0 31 13 57t35.5 45.5t52.5 30.5t63 11q34 0 62.5 -12t49.5 -34t32.5 -52.5t11.5 -67.5z" />
<glyph unicode="U&#x31b;" horiz-adv-x="1660" d="M1790 1581q0 -104 -34.5 -197t-96.5 -167.5t-147.5 -125.5t-188.5 -69l-115 -584q-21 -111 -67 -198.5t-117.5 -148t-168 -92.5t-218.5 -32q-95 0 -176.5 19.5t-142.5 62.5t-95.5 111t-34.5 166q0 31 6.5 87t20.5 128l143 696q3 17 -5 28t-36 13l-114 10v86h532v-86 l-121 -10q-18 -2 -32 -11.5t-17 -29.5l-141 -696q-12 -60 -17.5 -107.5t-5.5 -75.5q0 -65 20.5 -113t58 -80.5t91 -48.5t119.5 -16q100 0 167.5 33.5t112.5 89.5t71 130.5t42 156.5l144 727q3 17 -5 28t-36 13l-115 10v86h422v-86l-78 -10q-18 -3 -32 -12t-17 -29l-20 -102 q76 17 127.5 51t83 80.5t44.5 104t13 122.5h-180q-10 15 -18 33q-7 15 -12 35t-5 43q0 40 17.5 73.5t46 57.5t65 37.5t74.5 13.5q41 0 75.5 -14t59.5 -40.5t39 -64.5t14 -86z" />
<glyph unicode="u&#x31b;" horiz-adv-x="1323" d="M1323 1126q0 -65 -30.5 -125.5t-80 -112t-114 -90.5t-131.5 -59l-113 -540q-7 -32 0 -53.5t21.5 -35.5t33 -20t35.5 -6q20 0 53 6t76 31v-72q-19 -11 -52.5 -24t-72.5 -24t-79.5 -18.5t-73.5 -7.5q-58 0 -86 19.5t-38.5 45t-9.5 51.5t1 38q-81 -77 -169.5 -115.5 t-191.5 -38.5q-71 0 -116 25t-68 63t-28 83t3 85l133 639l-172 19v59l309 64h84l-163 -781q-6 -26 2.5 -49.5t25 -41t37.5 -28t41 -10.5q37 0 74.5 10.5t74.5 28.5t71 41.5t63 50.5l155 754h191l-31 -149q85 34 130.5 93.5t62.5 133.5h-144q-8 14 -13 29q-5 13 -9 29.5 t-4 35.5q0 32 14.5 58.5t37.5 45.5t51.5 29.5t57.5 10.5q72 0 112 -47.5t40 -129.5z" />
<glyph unicode="A&#x30c;" horiz-adv-x="1378" d="M766 1155l-303 -532h391zM801 0v86l94 10q45 6 39 39l-62 391h-464l-209 -391q-11 -20 -0.5 -28t39.5 -11l94 -10v-86h-441v86l115 12l756 1309h164l221 -1272q3 -20 11 -28.5t30 -10.5l94 -10v-86h-481zM927 1528h-162l-201 347h144l170 -189l243 189h146z" />
<glyph unicode="a&#x30c;" d="M760 803q1 5 -7.5 23t-20.5 37.5t-25.5 34.5t-22.5 15q-78 0 -139.5 -25.5t-107.5 -69t-78.5 -100.5t-52.5 -119t-29 -125t-9 -120q0 -43 7 -86t24.5 -78t48 -57t78.5 -22q36 0 72 16t67 37t54 42t34 32zM1061 55q-12 -5 -44 -18.5t-71.5 -27t-80 -24t-70.5 -10.5 q-37 0 -62.5 9t-42 27t-25.5 44t-12 60q-23 -22 -54 -46.5t-68.5 -45.5t-80 -34.5t-88.5 -13.5q-60 0 -105.5 17t-78.5 45.5t-54.5 66t-34.5 78t-18 82t-5 78.5q0 79 17 159.5t50.5 155t83.5 139.5t115.5 113t146 75.5t176.5 27.5q28 0 55.5 -6.5t51.5 -17t44 -23.5t34 -27 l30 49h140q-5 -12 -11 -28.5t-12 -33.5t-10.5 -32t-5.5 -23q-7 -27 -20 -81.5t-27.5 -122.5t-30 -142.5t-27.5 -141t-20 -118t-8 -74.5q0 -54 23 -74t65 -20q10 0 29.5 4.5t40.5 10.5t39 11t26 7v-74zM793 1128h-162l-201 347h144l170 -189l243 189h146z" />
<glyph unicode="I&#x30c;" horiz-adv-x="643" d="M598 1278q-20 -2 -28 -11.5t-13 -29.5l-213 -1102q-3 -15 5 -26t36 -13l119 -10v-86h-535v86l129 10q19 2 27.5 11.5t11.5 27.5l213 1102q3 17 -5 28t-34 13l-114 10v86h532v-86zM576 1528h-162l-201 347h144l170 -189l243 189h146z" />
<glyph unicode="i&#x30c;" horiz-adv-x="545" d="M539 59q-12 -5 -44 -19t-75 -28.5t-90.5 -25.5t-89.5 -11q-53 0 -84 18t-46 47t-17 65t5 71l131 694l-176 19v59l309 64h84l-155 -819q-4 -21 0.5 -40t15 -33.5t27 -23t37.5 -8.5q18 0 42.5 6.5t49 15t45.5 16.5t31 11v-78zM468 1128h-162l-201 347h144l170 -189l243 189 h146z" />
<glyph unicode="O&#x30c;" horiz-adv-x="1454" d="M1182 854q0 102 -25.5 185t-71 142.5t-108 91.5t-135.5 32q-75 0 -142 -33t-124 -90t-102.5 -133.5t-77.5 -163.5t-49 -180.5t-17 -184.5q0 -104 26.5 -186.5t72 -140t107.5 -88.5t134 -31q75 0 142 33.5t124 91.5t102.5 134.5t77.5 163.5t49 178.5t17 178.5zM1415 854 q0 -108 -23 -215.5t-67 -206.5t-109 -183.5t-149.5 -147.5t-188 -98.5t-223.5 -35.5q-123 0 -225 40.5t-176 115.5t-115 180t-41 234q0 110 25 217t72.5 204t115 179t152 142t185 94t212.5 34q127 0 230 -43.5t175 -118.5t111 -176t39 -215zM981 1528h-162l-201 347h144 l170 -189l243 189h146z" />
<glyph unicode="o&#x30c;" horiz-adv-x="1036" d="M766 623q0 73 -14 129t-38 94t-57.5 58t-72.5 20q-67 0 -124.5 -48.5t-99.5 -127t-66 -177t-24 -198.5q0 -76 14 -133t39 -95.5t58 -57.5t72 -19q48 0 90.5 24.5t77 66t61.5 96.5t46 116.5t28.5 126.5t9.5 125zM973 614q0 -83 -18.5 -162.5t-53 -150.5t-83 -130.5 t-109 -103t-131.5 -68t-150 -24.5q-84 0 -152 27t-115 77.5t-72.5 122t-25.5 160.5q0 83 18 163.5t51.5 152.5t81.5 133.5t108.5 106t132 69.5t151.5 25q74 0 140.5 -23t117 -72t80 -124t29.5 -179zM731 1128h-162l-201 347h144l170 -189l243 189h146z" />
<glyph unicode="U&#x30c;" horiz-adv-x="1448" d="M1415 1278q-18 -2 -32 -11.5t-17 -29.5l-158 -799q-21 -111 -67 -198.5t-117.5 -148t-168 -92.5t-218.5 -32q-95 0 -176.5 19.5t-142.5 62.5t-95.5 111t-34.5 166q0 31 6.5 87t20.5 128l143 696q3 17 -5 28t-36 13l-114 10v86h532v-86l-121 -10q-18 -2 -32 -11.5 t-17 -29.5l-141 -696q-12 -60 -17.5 -107.5t-5.5 -75.5q0 -65 20.5 -113t58 -80.5t91 -48.5t119.5 -16q100 0 167.5 33.5t112.5 89.5t71 130.5t42 156.5l144 727q3 17 -5 28t-36 13l-115 10v86h463v-86zM988 1528h-162l-201 347h144l170 -189l243 189h146z" />
<glyph unicode="u&#x30c;" horiz-adv-x="1079" d="M1073 49q-19 -11 -52.5 -24t-72.5 -24t-79.5 -18.5t-73.5 -7.5q-58 0 -86 19.5t-38.5 45t-9.5 51.5t1 38q-81 -77 -169.5 -115.5t-191.5 -38.5q-71 0 -116 25t-68 63t-28 83t3 85l133 639l-172 19v59l309 64h84l-163 -781q-6 -26 2.5 -49.5t25 -41t37.5 -28t41 -10.5 q37 0 74.5 10.5t74.5 28.5t71 41.5t63 50.5l155 754h191l-164 -788q-7 -32 0 -53.5t21.5 -35.5t33 -20t35.5 -6q20 0 53 6t76 31v-72zM744 1128h-162l-201 347h144l170 -189l243 189h146z" />
<glyph unicode="&#xc6;&#x304;" horiz-adv-x="1917" d="M633 627h395l121 626zM1901 1067h-132v166q0 22 -7.5 30.5t-30.5 8.5h-369l-98 -504h256q21 0 32 8.5t17 30.5l39 137h116l-92 -469h-114l18 146q6 41 -39 41h-254l-108 -560h462q20 0 31.5 11.5t18.5 29.5l63 197h125l-66 -340h-1001v86l125 10q19 2 28 15t11 24l76 383 h-461l-316 -383q-11 -12 1 -24t38 -15l88 -10v-86h-467v86l99 10q14 2 25.5 13t25.5 26l899 1102q11 12 8.5 25.5t-14.5 15.5l-115 10v86h1143zM1599 1600h-620l29 135h617z" />
<glyph unicode="&#xe6;&#x304;" horiz-adv-x="1526" d="M1489 805q0 -56 -27.5 -103t-74 -85t-107 -67.5t-127.5 -50t-135 -33t-129 -15.5q-2 -10 -5 -22.5t-6 -25.5t-5.5 -25.5t-2.5 -21.5q0 -68 5.5 -116.5t25.5 -80t58.5 -46.5t105.5 -15q69 0 152 50t194 149v-129q-28 -28 -69.5 -61.5t-95 -63t-116.5 -49t-133 -19.5 q-60 0 -107.5 6t-84 26.5t-62.5 58t-41 100.5q-34 -48 -75.5 -83.5t-86.5 -59.5t-90.5 -36t-87.5 -12q-60 0 -105.5 17t-78.5 45.5t-54.5 66t-34.5 78t-18 82t-5 78.5q0 79 17 159.5t50.5 155t83.5 139.5t115.5 113t146 75.5t176.5 27.5q28 0 50.5 -6.5t41 -17t33.5 -23.5 t29 -27l33 49h137q-3 -8 -7 -21t-9 -28l-9 -29q-4 -14 -8 -24q66 54 141.5 89.5t155.5 35.5q71 0 118 -23.5t75.5 -56.5t40.5 -68t12 -57zM684 913q-78 0 -139.5 -25.5t-107.5 -69t-78.5 -100.5t-52.5 -119t-29 -125t-9 -120q0 -43 7 -86t24.5 -78t48 -57t78.5 -22 q30 0 64.5 13t66.5 32.5t58 42t40 41.5l105 561zM1309 807q0 40 -30 69t-83 29q-33 0 -66 -17t-63 -46t-57 -67t-49.5 -80t-38.5 -85t-25 -82q43 4 90.5 16.5t93.5 31.5t87.5 43.5t72.5 54.5t49.5 63.5t18.5 69.5zM1265 1200h-620l29 135h617z" />
<glyph unicode="G&#x30c;" horiz-adv-x="1409" d="M1266 567q-20 -2 -33.5 -10.5t-18.5 -28.5l-92 -481q-10 -3 -35 -9.5t-60 -15.5t-77.5 -18.5t-88.5 -18t-92.5 -13.5t-88.5 -5q-117 0 -205.5 27t-153 72.5t-107.5 105t-69 124.5t-36.5 130.5t-10.5 122.5q0 131 35 245.5t96.5 210t145 170t182 126.5t206.5 79t218 27 q50 0 93.5 -4t87.5 -12.5t92.5 -22t107.5 -31.5l-64 -329h-139l6 188q2 23 -9 37.5t-30 19.5q-4 1 -17 8t-34.5 15t-51.5 14t-67 6q-77 0 -153.5 -25t-147 -72t-131 -115.5t-105 -155t-70 -190.5t-25.5 -222q0 -83 19 -147.5t51 -113.5t73 -83t85 -55.5t88 -31t81 -9.5 q31 0 62.5 4t59.5 10t50.5 12t34.5 9l80 417q3 17 -5 27t-36 12l-113 11v86h528v-86zM1020 1528h-162l-201 347h144l170 -189l243 189h146z" />
<glyph unicode="g&#x30c;" horiz-adv-x="901" d="M657 -180q0 37 -22 68t-82 59l-256 116q-49 -12 -81.5 -33t-51.5 -47.5t-27 -56.5t-8 -61q0 -35 15 -77t46.5 -78t79.5 -60.5t113 -24.5q74 0 126 21t85 51t48 63.5t15 59.5zM635 735q0 38 -7 72.5t-21.5 61t-37 42t-53.5 15.5q-37 0 -76 -27t-71.5 -74t-53 -110 t-20.5 -135q0 -37 8 -68.5t23.5 -54t37 -35t48.5 -12.5q51 0 92.5 32.5t70.5 81.5t44.5 106t15.5 105zM805 862q9 -23 17.5 -59t8.5 -78q0 -98 -36 -171t-97 -122t-141.5 -73.5t-169.5 -24.5q-7 -15 -12 -33t-8 -35.5t-4 -32t2 -22.5l274 -125q47 -21 85.5 -42.5t66 -47 t42.5 -58t15 -77.5q0 -44 -20.5 -85.5t-56 -78t-85 -67.5t-107 -53t-121 -34t-128.5 -12q-101 0 -175 25t-122.5 66t-72 95t-23.5 113q0 52 21.5 96t58.5 79t86.5 62t105.5 46q-5 24 -0.5 56.5t15 66t27.5 64.5t38 52q-41 18 -76 41.5t-60.5 54t-40 70t-14.5 88.5 q0 75 28 147.5t81.5 130t130 93t174.5 35.5q37 0 69.5 -6.5t59 -15t46 -17.5t28.5 -15h278v-96h-188zM663 1128h-162l-201 347h144l170 -189l243 189h146z" />
<glyph unicode="K&#x30c;" horiz-adv-x="1343" d="M1245 1272l-536 -518l284 -551q19 -38 36.5 -61.5t36.5 -37t40.5 -18t48.5 -4.5q19 0 40 1t46 3v-86q-48 -14 -100 -23.5t-92 -9.5q-45 0 -78.5 7t-61.5 24.5t-51 46.5t-47 74l-252 485h-125l-92 -469q-3 -15 6 -26t35 -13l119 -10v-86h-535v86l119 10q43 3 49 39 l215 1102q3 17 -5 28t-34 13l-114 10v86h532v-86l-121 -10q-20 -2 -33 -11.5t-18 -29.5l-104 -537h34l545 537q13 12 10.5 25.5t-24.5 15.5l-131 10v86h530v-86zM944 1528h-162l-201 347h144l170 -189l243 189h146z" />
<glyph unicode="k&#x30c;" horiz-adv-x="1042" d="M1018 47q-26 -13 -59.5 -26t-68.5 -23t-68.5 -16.5t-57.5 -6.5q-25 0 -49 8.5t-45.5 22t-39.5 31t-30 35.5q-14 21 -31.5 54.5t-37 73.5t-39.5 83.5t-38.5 84t-34 75.5t-26.5 57l-94 -84l-84 -416h-188l272 1368l-180 18v62l317 61h82l-190 -952l331 342q29 30 53 51.5 t46.5 35t45.5 20t50 6.5q34 0 59.5 -10t42 -26t24.5 -36t7 -39q0 -35 -32.5 -72.5t-104.5 -62.5l-70 74q-28 -22 -60.5 -49t-65.5 -55t-63 -55t-54 -48q13 -26 28.5 -65t33 -83.5t38 -91t43.5 -88.5q23 -43 48.5 -82.5t52.5 -70t55 -48.5t55 -18q11 0 27 2.5t34 6.5t35.5 10 t30.5 12v-70zM801 1568h-162l-201 347h144l170 -189l243 189h146z" />
<glyph unicode="O&#x328;" horiz-adv-x="1454" d="M1415 854q0 -108 -23 -215.5t-67 -206.5t-109 -183.5t-149.5 -147.5t-188.5 -99q-23 -7 -48 -14q-21 -17 -42 -37q-29 -28 -52.5 -60t-38.5 -68t-15 -75q0 -37 24 -53.5t58 -16.5q20 0 38.5 3t37.5 8l-18 -117q-26 -6 -54.5 -10t-56.5 -4q-33 0 -63.5 7t-53.5 22.5 t-37 41.5t-14 64q0 45 17 89.5t44 84t61 73.5q15 15 30 28q-20 -1 -40 -1q-123 0 -225 40.5t-176 115.5t-115 180t-41 234q0 110 25 217t72.5 204t115 179t152 142t185 94t212.5 34q127 0 230 -43.5t175 -118.5t111 -176t39 -215zM1182 854q0 102 -25.5 185t-71 142.5 t-108 91.5t-135.5 32q-75 0 -142 -33t-124 -90t-102.5 -133.5t-77.5 -163.5t-49 -180.5t-17 -184.5q0 -104 26.5 -186.5t72 -140t107.5 -88.5t134 -31q75 0 142 33.5t124 91.5t102.5 134.5t77.5 163.5t49 178.5t17 178.5z" />
<glyph unicode="o&#x328;" horiz-adv-x="1036" d="M766 623q0 73 -14 129t-38 94t-57.5 58t-72.5 20q-67 0 -124.5 -48.5t-99.5 -127t-66 -177t-24 -198.5q0 -76 14 -133t39 -95.5t58 -57.5t72 -19q48 0 90.5 24.5t77 66t61.5 96.5t46 116.5t28.5 126.5t9.5 125zM973 614q0 -79 -19 -160.5t-55 -156.5t-89 -138t-120 -105 q-57 -35 -103 -72t-78.5 -75.5t-50 -78.5t-17.5 -80q0 -37 24 -53.5t58 -16.5q20 0 38.5 3t37.5 8l-18 -117q-26 -6 -54.5 -10t-56.5 -4q-33 0 -63.5 7t-53.5 22.5t-37 41.5t-14 64q0 41 14 80.5t37 76t53 69t62 58.5q-10 -1 -20 -1.5t-20 -0.5q-84 0 -152 27t-115 77.5 t-72.5 122t-25.5 160.5q0 83 18 163.5t51.5 152.5t81.5 133.5t108.5 106t132 69.5t151.5 25q74 0 140.5 -23t117 -72t80 -124t29.5 -179z" />
<glyph unicode="&#x1b7;&#x30c;" horiz-adv-x="1174" d="M547 600q58 0 117.5 -13.5t114 -39t102.5 -62t83 -81.5t55.5 -98.5t20.5 -112.5q0 -81 -26.5 -161.5t-75 -154t-116.5 -137t-150.5 -110t-177 -73t-195.5 -26.5q-120 0 -202.5 27t-133.5 66.5t-73.5 83.5t-22.5 79q0 34 12 67.5t34 60.5t53.5 43.5t70.5 16.5q5 0 18 -0.5 t28 -2t29 -5t21 -10.5l27 -229q42 -31 85 -45.5t97 -14.5q60 0 117 21t106.5 58t90.5 87t70.5 107.5t45.5 120.5t16 126q0 52 -17.5 94.5t-45.5 76t-64 57.5t-73.5 40t-73.5 23.5t-63 7.5q-34 0 -56 -9t-41 -23l-59 86l643 639h-555q-11 0 -27.5 -9t-21.5 -26l-70 -207h-125 l84 436h951v-141zM814 1528h-162l-201 347h144l170 -189l243 189h146z" />
<glyph unicode="&#x292;&#x30c;" horiz-adv-x="971" d="M463 391q80 -4 149 -29t120 -71.5t80.5 -113.5t29.5 -154q0 -77 -24 -143t-66.5 -120.5t-99 -97t-122 -72t-135.5 -44.5t-139 -15q-72 0 -140 18t-120.5 51t-84.5 80.5t-32 106.5q0 31 10 58t27.5 47.5t42 32.5t53.5 12q19 0 43.5 -8.5t42.5 -14.5l49 -213 q25 -38 57.5 -50.5t74.5 -12.5q73 0 139.5 33.5t116 88t79 123.5t29.5 140q0 54 -23.5 104t-62 88.5t-88 62.5t-100.5 27l-76 -100l-113 94l582 520q-47 -2 -91 -4q-38 -2 -77.5 -3t-65.5 -1q-28 0 -56 7t-56 15.5t-56.5 15.5t-58.5 7q-31 0 -61 -17.5t-45 -41.5l104 -131 q-8 -13 -19.5 -25.5t-26 -22t-31 -15t-32.5 -5.5q-25 0 -45.5 10t-34.5 26.5t-22 38.5t-8 46q0 57 22 109.5t60.5 93.5t89.5 65.5t108 24.5q52 0 102 -14.5t99 -31.5t97.5 -31.5t99.5 -14.5q21 0 42.5 4.5t43.5 7.5l65 92l131 -98zM697 1128h-162l-201 347h144l170 -189 l243 189h146z" />
<glyph unicode="j&#x30c;" horiz-adv-x="559" d="M328 164q-9 -51 -27 -118t-45.5 -137.5t-65 -138t-85.5 -121t-106 -86t-126 -32.5q-65 0 -101 31t-36 78q0 19 6 34t15 26t18.5 19t17.5 13l205 -56q15 16 30.5 49t30.5 74.5t27 87.5t20 88l154 895l-172 19v59l309 64h76zM488 1128h-162l-201 347h144l170 -189l243 189 h146z" />
<glyph unicode="G&#x301;" horiz-adv-x="1409" d="M1266 567q-20 -2 -33.5 -10.5t-18.5 -28.5l-92 -481q-10 -3 -35 -9.5t-60 -15.5t-77.5 -18.5t-88.5 -18t-92.5 -13.5t-88.5 -5q-117 0 -205.5 27t-153 72.5t-107.5 105t-69 124.5t-36.5 130.5t-10.5 122.5q0 131 35 245.5t96.5 210t145 170t182 126.5t206.5 79t218 27 q50 0 93.5 -4t87.5 -12.5t92.5 -22t107.5 -31.5l-64 -329h-139l6 188q2 23 -9 37.5t-30 19.5q-4 1 -17 8t-34.5 15t-51.5 14t-67 6q-77 0 -153.5 -25t-147 -72t-131 -115.5t-105 -155t-70 -190.5t-25.5 -222q0 -83 19 -147.5t51 -113.5t73 -83t85 -55.5t88 -31t81 -9.5 q31 0 62.5 4t59.5 10t50.5 12t34.5 9l80 417q3 17 -5 27t-36 12l-113 11v86h528v-86zM1270 1811q0 -29 -13 -48.5t-36 -35.5l-307 -199h-144l279 320q10 12 21 21t24.5 16t31 10.5t40.5 3.5q27 0 46.5 -8t32 -20.5t19 -28.5t6.5 -31z" />
<glyph unicode="g&#x301;" horiz-adv-x="901" d="M657 -180q0 37 -22 68t-82 59l-256 116q-49 -12 -81.5 -33t-51.5 -47.5t-27 -56.5t-8 -61q0 -35 15 -77t46.5 -78t79.5 -60.5t113 -24.5q74 0 126 21t85 51t48 63.5t15 59.5zM635 735q0 38 -7 72.5t-21.5 61t-37 42t-53.5 15.5q-37 0 -76 -27t-71.5 -74t-53 -110 t-20.5 -135q0 -37 8 -68.5t23.5 -54t37 -35t48.5 -12.5q51 0 92.5 32.5t70.5 81.5t44.5 106t15.5 105zM805 862q9 -23 17.5 -59t8.5 -78q0 -98 -36 -171t-97 -122t-141.5 -73.5t-169.5 -24.5q-7 -15 -12 -33t-8 -35.5t-4 -32t2 -22.5l274 -125q47 -21 85.5 -42.5t66 -47 t42.5 -58t15 -77.5q0 -44 -20.5 -85.5t-56 -78t-85 -67.5t-107 -53t-121 -34t-128.5 -12q-101 0 -175 25t-122.5 66t-72 95t-23.5 113q0 52 21.5 96t58.5 79t86.5 62t105.5 46q-5 24 -0.5 56.5t15 66t27.5 64.5t38 52q-41 18 -76 41.5t-60.5 54t-40 70t-14.5 88.5 q0 75 28 147.5t81.5 130t130 93t174.5 35.5q37 0 69.5 -6.5t59 -15t46 -17.5t28.5 -15h278v-96h-188zM913 1411q0 -29 -13 -48.5t-36 -35.5l-307 -199h-144l279 320q10 12 21 21t24.5 16t31 10.5t40.5 3.5q27 0 46.5 -8t32 -20.5t19 -28.5t6.5 -31z" />
<glyph unicode="N&#x300;" horiz-adv-x="1456" d="M1430 1278q-20 -2 -33.5 -11.5t-18.5 -29.5l-241 -1237h-148l-516 1087l-182 -952q-3 -15 5 -26t36 -13l114 -10v-86h-475v86l117 10q42 3 51 39l211 1102q3 17 -5 28t-34 13l-114 10v86h395v-53l461 -977l174 893q3 17 -5 28t-34 13l-117 10v86h475v-86zM967 1528 l-297 195q-21 14 -34 34.5t-13 51.5q0 15 4.5 31t15 29t28 21.5t44.5 8.5q22 0 37.5 -4t27.5 -10.5t21.5 -16t18.5 -20.5l274 -320h-127z" />
<glyph unicode="n&#x300;" horiz-adv-x="1085" d="M1079 41q-13 -5 -45.5 -15.5t-72.5 -22t-82 -20t-74 -8.5q-18 0 -49.5 3.5t-60.5 16t-47 36.5t-9 65l125 629q7 41 0.5 68t-21 43.5t-33.5 23t-36 6.5q-25 0 -61.5 -14.5t-77 -38.5t-81.5 -56.5t-75 -68.5l-141 -688h-191l178 870l-172 19v59l309 64h82l-38 -191 q34 34 78 68.5t94 61.5t103.5 44t104.5 17q112 0 159.5 -62t23.5 -200l-109 -578q-5 -29 4.5 -46t25 -26t32.5 -11.5t26 -2.5q28 0 61 8t68 19zM731 1128l-297 195q-21 14 -34 34.5t-13 51.5q0 15 4.5 31t15 29t28 21.5t44.5 8.5q22 0 37.5 -4t27.5 -10.5t21.5 -16 t18.5 -20.5l274 -320h-127z" />
<glyph unicode="&#xc6;&#x301;" horiz-adv-x="1917" d="M633 627h395l121 626zM1901 1067h-132v166q0 22 -7.5 30.5t-30.5 8.5h-369l-98 -504h256q21 0 32 8.5t17 30.5l39 137h116l-92 -469h-114l18 146q6 41 -39 41h-254l-108 -560h462q20 0 31.5 11.5t18.5 29.5l63 197h125l-66 -340h-1001v86l125 10q19 2 28 15t11 24l76 383 h-461l-316 -383q-11 -12 1 -24t38 -15l88 -10v-86h-467v86l99 10q14 2 25.5 13t25.5 26l899 1102q11 12 8.5 25.5t-14.5 15.5l-115 10v86h1143zM1607 1811q0 -29 -13 -48.5t-36 -35.5l-307 -199h-144l279 320q10 12 21 21t24.5 16t31 10.5t40.5 3.5q27 0 46.5 -8t32 -20.5 t19 -28.5t6.5 -31z" />
<glyph unicode="&#xe6;&#x301;" horiz-adv-x="1526" d="M1489 805q0 -56 -27.5 -103t-74 -85t-107 -67.5t-127.5 -50t-135 -33t-129 -15.5q-2 -10 -5 -22.5t-6 -25.5t-5.5 -25.5t-2.5 -21.5q0 -68 5.5 -116.5t25.5 -80t58.5 -46.5t105.5 -15q69 0 152 50t194 149v-129q-28 -28 -69.5 -61.5t-95 -63t-116.5 -49t-133 -19.5 q-60 0 -107.5 6t-84 26.5t-62.5 58t-41 100.5q-34 -48 -75.5 -83.5t-86.5 -59.5t-90.5 -36t-87.5 -12q-60 0 -105.5 17t-78.5 45.5t-54.5 66t-34.5 78t-18 82t-5 78.5q0 79 17 159.5t50.5 155t83.5 139.5t115.5 113t146 75.5t176.5 27.5q28 0 50.5 -6.5t41 -17t33.5 -23.5 t29 -27l33 49h137q-3 -8 -7 -21t-9 -28l-9 -29q-4 -14 -8 -24q66 54 141.5 89.5t155.5 35.5q71 0 118 -23.5t75.5 -56.5t40.5 -68t12 -57zM684 913q-78 0 -139.5 -25.5t-107.5 -69t-78.5 -100.5t-52.5 -119t-29 -125t-9 -120q0 -43 7 -86t24.5 -78t48 -57t78.5 -22 q30 0 64.5 13t66.5 32.5t58 42t40 41.5l105 561zM1309 807q0 40 -30 69t-83 29q-33 0 -66 -17t-63 -46t-57 -67t-49.5 -80t-38.5 -85t-25 -82q43 4 90.5 16.5t93.5 31.5t87.5 43.5t72.5 54.5t49.5 63.5t18.5 69.5zM1273 1411q0 -29 -13 -48.5t-36 -35.5l-307 -199h-144 l279 320q10 12 21 21t24.5 16t31 10.5t40.5 3.5q27 0 46.5 -8t32 -20.5t19 -28.5t6.5 -31z" />
<glyph unicode="&#xd8;&#x301;" horiz-adv-x="1454" d="M1182 854q0 94 -21 170t-59 135l-651 -991q45 -47 100.5 -70.5t118.5 -23.5q75 0 142 33.5t124 91t102.5 134.5t77.5 163.5t49 178.5t17 179zM1018 1247q-38 28 -82.5 43t-93.5 15q-75 0 -142 -33t-124 -90t-102.5 -133.5t-77.5 -163.5t-49 -180.5t-17 -184.5 q0 -148 53 -254zM1415 854q0 -108 -23 -215.5t-67 -206.5t-109 -183.5t-149.5 -147.5t-188 -98.5t-223.5 -35.5q-81 0 -153.5 18.5t-134.5 53.5l-134 -203l-88 66l129 200q-83 76 -129.5 185.5t-46.5 249.5q0 110 25 217t72.5 204t115 179t152 142t185 94t212.5 34 q65 0 123 -11.5t109 -31.5l110 170l105 -64l-111 -165q105 -76 162 -193.5t57 -257.5zM1231 1811q0 -29 -13 -48.5t-36 -35.5l-307 -199h-144l279 320q10 12 21 21t24.5 16t31 10.5t40.5 3.5q27 0 46.5 -8t32 -20.5t19 -28.5t6.5 -31z" />
<glyph unicode="&#xf8;&#x301;" horiz-adv-x="1036" d="M766 623q0 37 -4 69t-10 60l-404 -639q45 -45 105 -45q48 0 90.5 24.5t77 66t61.5 96.5t46 116.5t28.5 126.5t9.5 125zM707 858q-51 66 -123 66q-67 0 -124.5 -48.5t-99.5 -127t-66 -177t-24 -198.5q0 -53 7.5 -94.5t19.5 -75.5zM973 614q0 -83 -18.5 -162.5t-53 -150.5 t-83 -130.5t-109 -103t-131.5 -68t-150 -24.5q-42 0 -78.5 7.5t-70.5 19.5l-113 -178l-76 51l109 172q-65 50 -100.5 129.5t-35.5 185.5q0 83 18 163.5t51.5 152.5t81.5 133.5t108.5 106t132 69.5t151.5 25q93 0 172 -37l99 155l81 -51l-100 -157q53 -50 84 -125.5 t31 -182.5zM981 1411q0 -29 -13 -48.5t-36 -35.5l-307 -199h-144l279 320q10 12 21 21t24.5 16t31 10.5t40.5 3.5q27 0 46.5 -8t32 -20.5t19 -28.5t6.5 -31z" />
<glyph unicode="A&#x30f;" horiz-adv-x="1378" d="M766 1155l-303 -532h391zM801 0v86l94 10q45 6 39 39l-62 391h-464l-209 -391q-11 -20 -0.5 -28t39.5 -11l94 -10v-86h-441v86l115 12l756 1309h164l221 -1272q3 -20 11 -28.5t30 -10.5l94 -10v-86h-481zM698 1528l-272 199q-33 22 -33 64q0 48 32.5 79t82.5 31 q41 0 59 -14.5t35 -40.5l213 -318h-117zM1077 1528l-272 199q-33 22 -33 64q0 24 9 44t24.5 34.5t36.5 23t45 8.5q41 0 60 -14.5t36 -40.5l213 -318h-119z" />
<glyph unicode="a&#x30f;" d="M760 803q1 5 -7.5 23t-20.5 37.5t-25.5 34.5t-22.5 15q-78 0 -139.5 -25.5t-107.5 -69t-78.5 -100.5t-52.5 -119t-29 -125t-9 -120q0 -43 7 -86t24.5 -78t48 -57t78.5 -22q36 0 72 16t67 37t54 42t34 32zM1061 55q-12 -5 -44 -18.5t-71.5 -27t-80 -24t-70.5 -10.5 q-37 0 -62.5 9t-42 27t-25.5 44t-12 60q-23 -22 -54 -46.5t-68.5 -45.5t-80 -34.5t-88.5 -13.5q-60 0 -105.5 17t-78.5 45.5t-54.5 66t-34.5 78t-18 82t-5 78.5q0 79 17 159.5t50.5 155t83.5 139.5t115.5 113t146 75.5t176.5 27.5q28 0 55.5 -6.5t51.5 -17t44 -23.5t34 -27 l30 49h140q-5 -12 -11 -28.5t-12 -33.5t-10.5 -32t-5.5 -23q-7 -27 -20 -81.5t-27.5 -122.5t-30 -142.5t-27.5 -141t-20 -118t-8 -74.5q0 -54 23 -74t65 -20q10 0 29.5 4.5t40.5 10.5t39 11t26 7v-74zM564 1128l-272 199q-33 22 -33 64q0 48 32.5 79t82.5 31q41 0 59 -14.5 t35 -40.5l213 -318h-117zM943 1128l-272 199q-33 22 -33 64q0 24 9 44t24.5 34.5t36.5 23t45 8.5q41 0 60 -14.5t36 -40.5l213 -318h-119z" />
<glyph unicode="A&#x311;" horiz-adv-x="1378" d="M766 1155l-303 -532h391zM801 0v86l94 10q45 6 39 39l-62 391h-464l-209 -391q-11 -20 -0.5 -28t39.5 -11l94 -10v-86h-441v86l115 12l756 1309h164l221 -1272q3 -20 11 -28.5t30 -10.5l94 -10v-86h-481zM1150 1586q0 -14 -0.5 -29t-3.5 -29h-88q-1 42 -15.5 71t-39 47.5 t-57 27t-68.5 8.5t-73 -8.5t-70 -27t-60 -47.5t-45 -71h-88q11 52 40 105t75 95t107 68.5t136 26.5q65 0 112.5 -20t78 -53t45 -76t14.5 -88z" />
<glyph unicode="a&#x311;" d="M760 803q1 5 -7.5 23t-20.5 37.5t-25.5 34.5t-22.5 15q-78 0 -139.5 -25.5t-107.5 -69t-78.5 -100.5t-52.5 -119t-29 -125t-9 -120q0 -43 7 -86t24.5 -78t48 -57t78.5 -22q36 0 72 16t67 37t54 42t34 32zM1061 55q-12 -5 -44 -18.5t-71.5 -27t-80 -24t-70.5 -10.5 q-37 0 -62.5 9t-42 27t-25.5 44t-12 60q-23 -22 -54 -46.5t-68.5 -45.5t-80 -34.5t-88.5 -13.5q-60 0 -105.5 17t-78.5 45.5t-54.5 66t-34.5 78t-18 82t-5 78.5q0 79 17 159.5t50.5 155t83.5 139.5t115.5 113t146 75.5t176.5 27.5q28 0 55.5 -6.5t51.5 -17t44 -23.5t34 -27 l30 49h140q-5 -12 -11 -28.5t-12 -33.5t-10.5 -32t-5.5 -23q-7 -27 -20 -81.5t-27.5 -122.5t-30 -142.5t-27.5 -141t-20 -118t-8 -74.5q0 -54 23 -74t65 -20q10 0 29.5 4.5t40.5 10.5t39 11t26 7v-74zM1016 1186q0 -14 -0.5 -29t-3.5 -29h-88q-1 42 -15.5 71t-39 47.5 t-57 27t-68.5 8.5t-73 -8.5t-70 -27t-60 -47.5t-45 -71h-88q11 52 40 105t75 95t107 68.5t136 26.5q65 0 112.5 -20t78 -53t45 -76t14.5 -88z" />
<glyph unicode="E&#x30f;" horiz-adv-x="1143" d="M1126 1067h-131v166q0 22 -8 30.5t-31 8.5h-393l-94 -504h274q22 0 33.5 8.5t18.5 30.5l39 137h114l-90 -469h-117l21 146q6 41 -39 41h-277l-106 -560h481q22 0 33.5 11.5t17.5 29.5l64 197h125l-68 -340h-1024v86l119 10q43 3 49 39l213 1102q3 17 -5 28t-34 13 l-114 10v86h991zM593 1528l-272 199q-33 22 -33 64q0 48 32.5 79t82.5 31q41 0 59 -14.5t35 -40.5l213 -318h-117zM972 1528l-272 199q-33 22 -33 64q0 24 9 44t24.5 34.5t36.5 23t45 8.5q41 0 60 -14.5t36 -40.5l213 -318h-119z" />
<glyph unicode="e&#x30f;" horiz-adv-x="889" d="M672 807q0 20 -8 39.5t-22 34.5t-35 24.5t-46 9.5q-34 0 -65 -18t-59.5 -48t-53 -69t-44 -82t-34.5 -87t-24 -83q65 6 134.5 30t126.5 61.5t93.5 85.5t36.5 102zM854 805q0 -56 -26 -103t-70.5 -85t-103 -67.5t-123 -50t-131.5 -33t-128 -15.5q-3 -20 -5.5 -48t-2.5 -47 q0 -56 13.5 -103t39 -81.5t61.5 -54t81 -19.5q69 0 152 50t196 149v-129q-29 -28 -71 -61.5t-95.5 -63t-116.5 -49t-133 -19.5q-31 0 -67.5 6t-72.5 21.5t-69.5 42.5t-59 68.5t-41 99t-15.5 135.5q0 81 19.5 161.5t55 154t85.5 137t110 110t128.5 73t141.5 26.5 q71 0 118.5 -23.5t76.5 -56.5t41 -68t12 -57zM459 1128l-272 199q-33 22 -33 64q0 48 32.5 79t82.5 31q41 0 59 -14.5t35 -40.5l213 -318h-117zM838 1128l-272 199q-33 22 -33 64q0 24 9 44t24.5 34.5t36.5 23t45 8.5q41 0 60 -14.5t36 -40.5l213 -318h-119z" />
<glyph unicode="E&#x311;" horiz-adv-x="1143" d="M1126 1067h-131v166q0 22 -8 30.5t-31 8.5h-393l-94 -504h274q22 0 33.5 8.5t18.5 30.5l39 137h114l-90 -469h-117l21 146q6 41 -39 41h-277l-106 -560h481q22 0 33.5 11.5t17.5 29.5l64 197h125l-68 -340h-1024v86l119 10q43 3 49 39l213 1102q3 17 -5 28t-34 13 l-114 10v86h991zM1045 1586q0 -14 -0.5 -29t-3.5 -29h-88q-1 42 -15.5 71t-39 47.5t-57 27t-68.5 8.5t-73 -8.5t-70 -27t-60 -47.5t-45 -71h-88q11 52 40 105t75 95t107 68.5t136 26.5q65 0 112.5 -20t78 -53t45 -76t14.5 -88z" />
<glyph unicode="e&#x311;" horiz-adv-x="889" d="M672 807q0 20 -8 39.5t-22 34.5t-35 24.5t-46 9.5q-34 0 -65 -18t-59.5 -48t-53 -69t-44 -82t-34.5 -87t-24 -83q65 6 134.5 30t126.5 61.5t93.5 85.5t36.5 102zM854 805q0 -56 -26 -103t-70.5 -85t-103 -67.5t-123 -50t-131.5 -33t-128 -15.5q-3 -20 -5.5 -48t-2.5 -47 q0 -56 13.5 -103t39 -81.5t61.5 -54t81 -19.5q69 0 152 50t196 149v-129q-29 -28 -71 -61.5t-95.5 -63t-116.5 -49t-133 -19.5q-31 0 -67.5 6t-72.5 21.5t-69.5 42.5t-59 68.5t-41 99t-15.5 135.5q0 81 19.5 161.5t55 154t85.5 137t110 110t128.5 73t141.5 26.5 q71 0 118.5 -23.5t76.5 -56.5t41 -68t12 -57zM911 1186q0 -14 -0.5 -29t-3.5 -29h-88q-1 42 -15.5 71t-39 47.5t-57 27t-68.5 8.5t-73 -8.5t-70 -27t-60 -47.5t-45 -71h-88q11 52 40 105t75 95t107 68.5t136 26.5q65 0 112.5 -20t78 -53t45 -76t14.5 -88z" />
<glyph unicode="I&#x30f;" horiz-adv-x="643" d="M598 1278q-20 -2 -28 -11.5t-13 -29.5l-213 -1102q-3 -15 5 -26t36 -13l119 -10v-86h-535v86l129 10q19 2 27.5 11.5t11.5 27.5l213 1102q3 17 -5 28t-34 13l-114 10v86h532v-86zM347 1528l-272 199q-33 22 -33 64q0 48 32.5 79t82.5 31q41 0 59 -14.5t35 -40.5l213 -318 h-117zM726 1528l-272 199q-33 22 -33 64q0 24 9 44t24.5 34.5t36.5 23t45 8.5q41 0 60 -14.5t36 -40.5l213 -318h-119z" />
<glyph unicode="i&#x30f;" horiz-adv-x="545" d="M539 59q-12 -5 -44 -19t-75 -28.5t-90.5 -25.5t-89.5 -11q-53 0 -84 18t-46 47t-17 65t5 71l131 694l-176 19v59l309 64h84l-155 -819q-4 -21 0.5 -40t15 -33.5t27 -23t37.5 -8.5q18 0 42.5 6.5t49 15t45.5 16.5t31 11v-78zM239 1128l-272 199q-33 22 -33 64 q0 48 32.5 79t82.5 31q41 0 59 -14.5t35 -40.5l213 -318h-117zM618 1128l-272 199q-33 22 -33 64q0 24 9 44t24.5 34.5t36.5 23t45 8.5q41 0 60 -14.5t36 -40.5l213 -318h-119z" />
<glyph unicode="I&#x311;" horiz-adv-x="643" d="M598 1278q-20 -2 -28 -11.5t-13 -29.5l-213 -1102q-3 -15 5 -26t36 -13l119 -10v-86h-535v86l129 10q19 2 27.5 11.5t11.5 27.5l213 1102q3 17 -5 28t-34 13l-114 10v86h532v-86zM799 1586q0 -14 -0.5 -29t-3.5 -29h-88q-1 42 -15.5 71t-39 47.5t-57 27t-68.5 8.5 t-73 -8.5t-70 -27t-60 -47.5t-45 -71h-88q11 52 40 105t75 95t107 68.5t136 26.5q65 0 112.5 -20t78 -53t45 -76t14.5 -88z" />
<glyph unicode="i&#x311;" horiz-adv-x="545" d="M539 59q-12 -5 -44 -19t-75 -28.5t-90.5 -25.5t-89.5 -11q-53 0 -84 18t-46 47t-17 65t5 71l131 694l-176 19v59l309 64h84l-155 -819q-4 -21 0.5 -40t15 -33.5t27 -23t37.5 -8.5q18 0 42.5 6.5t49 15t45.5 16.5t31 11v-78zM691 1186q0 -14 -0.5 -29t-3.5 -29h-88 q-1 42 -15.5 71t-39 47.5t-57 27t-68.5 8.5t-73 -8.5t-70 -27t-60 -47.5t-45 -71h-88q11 52 40 105t75 95t107 68.5t136 26.5q65 0 112.5 -20t78 -53t45 -76t14.5 -88z" />
<glyph unicode="O&#x30f;" horiz-adv-x="1454" d="M1182 854q0 102 -25.5 185t-71 142.5t-108 91.5t-135.5 32q-75 0 -142 -33t-124 -90t-102.5 -133.5t-77.5 -163.5t-49 -180.5t-17 -184.5q0 -104 26.5 -186.5t72 -140t107.5 -88.5t134 -31q75 0 142 33.5t124 91.5t102.5 134.5t77.5 163.5t49 178.5t17 178.5zM1415 854 q0 -108 -23 -215.5t-67 -206.5t-109 -183.5t-149.5 -147.5t-188 -98.5t-223.5 -35.5q-123 0 -225 40.5t-176 115.5t-115 180t-41 234q0 110 25 217t72.5 204t115 179t152 142t185 94t212.5 34q127 0 230 -43.5t175 -118.5t111 -176t39 -215zM752 1528l-272 199 q-33 22 -33 64q0 48 32.5 79t82.5 31q41 0 59 -14.5t35 -40.5l213 -318h-117zM1131 1528l-272 199q-33 22 -33 64q0 24 9 44t24.5 34.5t36.5 23t45 8.5q41 0 60 -14.5t36 -40.5l213 -318h-119z" />
<glyph unicode="o&#x30f;" horiz-adv-x="1036" d="M766 623q0 73 -14 129t-38 94t-57.5 58t-72.5 20q-67 0 -124.5 -48.5t-99.5 -127t-66 -177t-24 -198.5q0 -76 14 -133t39 -95.5t58 -57.5t72 -19q48 0 90.5 24.5t77 66t61.5 96.5t46 116.5t28.5 126.5t9.5 125zM973 614q0 -83 -18.5 -162.5t-53 -150.5t-83 -130.5 t-109 -103t-131.5 -68t-150 -24.5q-84 0 -152 27t-115 77.5t-72.5 122t-25.5 160.5q0 83 18 163.5t51.5 152.5t81.5 133.5t108.5 106t132 69.5t151.5 25q74 0 140.5 -23t117 -72t80 -124t29.5 -179zM502 1128l-272 199q-33 22 -33 64q0 48 32.5 79t82.5 31q41 0 59 -14.5 t35 -40.5l213 -318h-117zM881 1128l-272 199q-33 22 -33 64q0 24 9 44t24.5 34.5t36.5 23t45 8.5q41 0 60 -14.5t36 -40.5l213 -318h-119z" />
<glyph unicode="O&#x311;" horiz-adv-x="1454" d="M1182 854q0 102 -25.5 185t-71 142.5t-108 91.5t-135.5 32q-75 0 -142 -33t-124 -90t-102.5 -133.5t-77.5 -163.5t-49 -180.5t-17 -184.5q0 -104 26.5 -186.5t72 -140t107.5 -88.5t134 -31q75 0 142 33.5t124 91.5t102.5 134.5t77.5 163.5t49 178.5t17 178.5zM1415 854 q0 -108 -23 -215.5t-67 -206.5t-109 -183.5t-149.5 -147.5t-188 -98.5t-223.5 -35.5q-123 0 -225 40.5t-176 115.5t-115 180t-41 234q0 110 25 217t72.5 204t115 179t152 142t185 94t212.5 34q127 0 230 -43.5t175 -118.5t111 -176t39 -215zM1204 1586q0 -14 -0.5 -29 t-3.5 -29h-88q-1 42 -15.5 71t-39 47.5t-57 27t-68.5 8.5t-73 -8.5t-70 -27t-60 -47.5t-45 -71h-88q11 52 40 105t75 95t107 68.5t136 26.5q65 0 112.5 -20t78 -53t45 -76t14.5 -88z" />
<glyph unicode="o&#x311;" horiz-adv-x="1036" d="M766 623q0 73 -14 129t-38 94t-57.5 58t-72.5 20q-67 0 -124.5 -48.5t-99.5 -127t-66 -177t-24 -198.5q0 -76 14 -133t39 -95.5t58 -57.5t72 -19q48 0 90.5 24.5t77 66t61.5 96.5t46 116.5t28.5 126.5t9.5 125zM973 614q0 -83 -18.5 -162.5t-53 -150.5t-83 -130.5 t-109 -103t-131.5 -68t-150 -24.5q-84 0 -152 27t-115 77.5t-72.5 122t-25.5 160.5q0 83 18 163.5t51.5 152.5t81.5 133.5t108.5 106t132 69.5t151.5 25q74 0 140.5 -23t117 -72t80 -124t29.5 -179zM954 1186q0 -14 -0.5 -29t-3.5 -29h-88q-1 42 -15.5 71t-39 47.5t-57 27 t-68.5 8.5t-73 -8.5t-70 -27t-60 -47.5t-45 -71h-88q11 52 40 105t75 95t107 68.5t136 26.5q65 0 112.5 -20t78 -53t45 -76t14.5 -88z" />
<glyph unicode="R&#x30f;" horiz-adv-x="1313" d="M958 1042q0 75 -32.5 121t-83.5 71t-113 32.5t-121 5.5q-8 0 -22 -1t-23 -1l-104 -559h45q83 0 164 15t145.5 53t104.5 101.5t40 161.5zM1260 0q-42 -19 -78.5 -26t-71.5 -7q-93 0 -149.5 30t-89 78t-48 106.5t-26.5 115.5q-12 57 -26.5 112.5t-41 99t-70.5 70.5t-116 27 q-14 0 -32 -0.5t-35 -0.5q-19 -1 -40 -1l-88 -469q-3 -15 5 -26t34 -13l119 -10v-86h-533v86l117 10q42 3 51 39l209 1102q3 17 -5 28t-34 13l-114 10v86h548q85 0 165.5 -14t142.5 -49t99.5 -93.5t37.5 -146.5q0 -83 -33 -150t-90 -119.5t-133 -90.5t-162 -62 q63 -27 100.5 -60.5t60.5 -74.5t36 -91t28 -108q15 -57 33 -100.5t47.5 -72.5t73 -43.5t109.5 -14.5v-84zM625 1528l-272 199q-33 22 -33 64q0 48 32.5 79t82.5 31q41 0 59 -14.5t35 -40.5l213 -318h-117zM1004 1528l-272 199q-33 22 -33 64q0 24 9 44t24.5 34.5t36.5 23 t45 8.5q41 0 60 -14.5t36 -40.5l213 -318h-119z" />
<glyph unicode="r&#x30f;" horiz-adv-x="766" d="M838 874q0 -36 -13 -57.5t-37 -32.5t-57.5 -14.5t-75.5 -3.5l-49 98q-38 -16 -81.5 -55.5t-82.5 -90t-68 -104t-38 -98.5l-107 -516h-190l176 870l-172 19v59l309 64h82l-43 -207q63 97 143 152t173 55q37 0 62 -13.5t40.5 -34.5t22 -45t6.5 -45zM359 1128l-272 199 q-33 22 -33 64q0 48 32.5 79t82.5 31q41 0 59 -14.5t35 -40.5l213 -318h-117zM738 1128l-272 199q-33 22 -33 64q0 24 9 44t24.5 34.5t36.5 23t45 8.5q41 0 60 -14.5t36 -40.5l213 -318h-119z" />
<glyph unicode="R&#x311;" horiz-adv-x="1313" d="M958 1042q0 75 -32.5 121t-83.5 71t-113 32.5t-121 5.5q-8 0 -22 -1t-23 -1l-104 -559h45q83 0 164 15t145.5 53t104.5 101.5t40 161.5zM1260 0q-42 -19 -78.5 -26t-71.5 -7q-93 0 -149.5 30t-89 78t-48 106.5t-26.5 115.5q-12 57 -26.5 112.5t-41 99t-70.5 70.5t-116 27 q-14 0 -32 -0.5t-35 -0.5q-19 -1 -40 -1l-88 -469q-3 -15 5 -26t34 -13l119 -10v-86h-533v86l117 10q42 3 51 39l209 1102q3 17 -5 28t-34 13l-114 10v86h548q85 0 165.5 -14t142.5 -49t99.5 -93.5t37.5 -146.5q0 -83 -33 -150t-90 -119.5t-133 -90.5t-162 -62 q63 -27 100.5 -60.5t60.5 -74.5t36 -91t28 -108q15 -57 33 -100.5t47.5 -72.5t73 -43.5t109.5 -14.5v-84zM1077 1586q0 -14 -0.5 -29t-3.5 -29h-88q-1 42 -15.5 71t-39 47.5t-57 27t-68.5 8.5t-73 -8.5t-70 -27t-60 -47.5t-45 -71h-88q11 52 40 105t75 95t107 68.5t136 26.5 q65 0 112.5 -20t78 -53t45 -76t14.5 -88z" />
<glyph unicode="r&#x311;" horiz-adv-x="766" d="M838 874q0 -36 -13 -57.5t-37 -32.5t-57.5 -14.5t-75.5 -3.5l-49 98q-38 -16 -81.5 -55.5t-82.5 -90t-68 -104t-38 -98.5l-107 -516h-190l176 870l-172 19v59l309 64h82l-43 -207q63 97 143 152t173 55q37 0 62 -13.5t40.5 -34.5t22 -45t6.5 -45zM811 1186 q0 -14 -0.5 -29t-3.5 -29h-88q-1 42 -15.5 71t-39 47.5t-57 27t-68.5 8.5t-73 -8.5t-70 -27t-60 -47.5t-45 -71h-88q11 52 40 105t75 95t107 68.5t136 26.5q65 0 112.5 -20t78 -53t45 -76t14.5 -88z" />
<glyph unicode="U&#x30f;" horiz-adv-x="1448" d="M1415 1278q-18 -2 -32 -11.5t-17 -29.5l-158 -799q-21 -111 -67 -198.5t-117.5 -148t-168 -92.5t-218.5 -32q-95 0 -176.5 19.5t-142.5 62.5t-95.5 111t-34.5 166q0 31 6.5 87t20.5 128l143 696q3 17 -5 28t-36 13l-114 10v86h532v-86l-121 -10q-18 -2 -32 -11.5 t-17 -29.5l-141 -696q-12 -60 -17.5 -107.5t-5.5 -75.5q0 -65 20.5 -113t58 -80.5t91 -48.5t119.5 -16q100 0 167.5 33.5t112.5 89.5t71 130.5t42 156.5l144 727q3 17 -5 28t-36 13l-115 10v86h463v-86zM759 1528l-272 199q-33 22 -33 64q0 48 32.5 79t82.5 31 q41 0 59 -14.5t35 -40.5l213 -318h-117zM1138 1528l-272 199q-33 22 -33 64q0 24 9 44t24.5 34.5t36.5 23t45 8.5q41 0 60 -14.5t36 -40.5l213 -318h-119z" />
<glyph unicode="u&#x30f;" horiz-adv-x="1079" d="M1073 49q-19 -11 -52.5 -24t-72.5 -24t-79.5 -18.5t-73.5 -7.5q-58 0 -86 19.5t-38.5 45t-9.5 51.5t1 38q-81 -77 -169.5 -115.5t-191.5 -38.5q-71 0 -116 25t-68 63t-28 83t3 85l133 639l-172 19v59l309 64h84l-163 -781q-6 -26 2.5 -49.5t25 -41t37.5 -28t41 -10.5 q37 0 74.5 10.5t74.5 28.5t71 41.5t63 50.5l155 754h191l-164 -788q-7 -32 0 -53.5t21.5 -35.5t33 -20t35.5 -6q20 0 53 6t76 31v-72zM515 1128l-272 199q-33 22 -33 64q0 48 32.5 79t82.5 31q41 0 59 -14.5t35 -40.5l213 -318h-117zM894 1128l-272 199q-33 22 -33 64 q0 24 9 44t24.5 34.5t36.5 23t45 8.5q41 0 60 -14.5t36 -40.5l213 -318h-119z" />
<glyph unicode="U&#x311;" horiz-adv-x="1448" d="M1415 1278q-18 -2 -32 -11.5t-17 -29.5l-158 -799q-21 -111 -67 -198.5t-117.5 -148t-168 -92.5t-218.5 -32q-95 0 -176.5 19.5t-142.5 62.5t-95.5 111t-34.5 166q0 31 6.5 87t20.5 128l143 696q3 17 -5 28t-36 13l-114 10v86h532v-86l-121 -10q-18 -2 -32 -11.5 t-17 -29.5l-141 -696q-12 -60 -17.5 -107.5t-5.5 -75.5q0 -65 20.5 -113t58 -80.5t91 -48.5t119.5 -16q100 0 167.5 33.5t112.5 89.5t71 130.5t42 156.5l144 727q3 17 -5 28t-36 13l-115 10v86h463v-86zM1211 1586q0 -14 -0.5 -29t-3.5 -29h-88q-1 42 -15.5 71t-39 47.5 t-57 27t-68.5 8.5t-73 -8.5t-70 -27t-60 -47.5t-45 -71h-88q11 52 40 105t75 95t107 68.5t136 26.5q65 0 112.5 -20t78 -53t45 -76t14.5 -88z" />
<glyph unicode="u&#x311;" horiz-adv-x="1079" d="M1073 49q-19 -11 -52.5 -24t-72.5 -24t-79.5 -18.5t-73.5 -7.5q-58 0 -86 19.5t-38.5 45t-9.5 51.5t1 38q-81 -77 -169.5 -115.5t-191.5 -38.5q-71 0 -116 25t-68 63t-28 83t3 85l133 639l-172 19v59l309 64h84l-163 -781q-6 -26 2.5 -49.5t25 -41t37.5 -28t41 -10.5 q37 0 74.5 10.5t74.5 28.5t71 41.5t63 50.5l155 754h191l-164 -788q-7 -32 0 -53.5t21.5 -35.5t33 -20t35.5 -6q20 0 53 6t76 31v-72zM967 1186q0 -14 -0.5 -29t-3.5 -29h-88q-1 42 -15.5 71t-39 47.5t-57 27t-68.5 8.5t-73 -8.5t-70 -27t-60 -47.5t-45 -71h-88 q11 52 40 105t75 95t107 68.5t136 26.5q65 0 112.5 -20t78 -53t45 -76t14.5 -88z" />
<glyph unicode="S&#x326;" d="M985 1020h-121l8 207q0 10 -15 23.5t-40.5 26t-58.5 21.5t-70 9q-59 0 -114.5 -21t-98.5 -58.5t-68.5 -89t-25.5 -112.5q0 -55 30 -96.5t74 -73.5t94 -56t91 -44q54 -28 105.5 -59t91.5 -70t64.5 -89.5t24.5 -117.5q0 -74 -30.5 -154t-98.5 -146.5t-176.5 -109.5 t-265.5 -43q-79 0 -146.5 14.5t-119 33t-85 36t-44.5 23.5l69 329h140l-23 -235q-1 -12 14 -24t39 -22.5t53 -19t55.5 -15t47 -10t27.5 -3.5q66 0 126 20.5t105.5 59t72.5 94t27 125.5q0 52 -30.5 92.5t-75 72.5t-94.5 56.5t-88 44.5q-54 28 -105 58.5t-90.5 68t-63.5 84.5 t-24 108q0 102 40 185t111.5 141.5t169 90.5t212.5 32q69 0 128 -9.5t104 -22.5t74.5 -25t39.5 -17zM507 -248q0 -64 -25.5 -114t-67.5 -87t-96 -61t-112 -35l12 70q42 12 71 25t49.5 32.5t33 48t20.5 72.5h-108q-10 11 -13.5 26t-3.5 29q0 26 10.5 47.5t27.5 37t40 24 t47 8.5q57 0 86 -33.5t29 -89.5z" />
<glyph unicode="s&#x326;" horiz-adv-x="758" d="M715 883q0 -36 -16 -57.5t-39 -33.5t-48.5 -16.5t-44.5 -5.5l-92 125q-6 5 -19 10.5t-32 5.5q-34 0 -57 -14.5t-37.5 -36t-20.5 -46t-6 -44.5q0 -28 16 -56.5t42 -57t58.5 -56t65.5 -53.5q34 -27 65.5 -55.5t56.5 -59t40 -64.5t15 -71q0 -63 -25.5 -121t-75 -103 t-123 -71.5t-168.5 -26.5q-74 0 -128 16.5t-89 43t-52 60.5t-17 69q0 49 29.5 79.5t92.5 30.5q19 0 36 -5t31 -11.5t24.5 -14t15.5 -12.5l-39 -100q22 -31 54.5 -52.5t84.5 -21.5q31 0 60 12t51.5 34t35.5 53.5t13 70.5q0 31 -12.5 58.5t-35 53.5t-53 51.5t-67.5 53.5 q-32 25 -61.5 54t-53 61.5t-37.5 68.5t-14 74q0 75 34 133t87.5 97.5t119 59.5t128.5 20q58 0 97.5 -13.5t64 -33t35 -42t10.5 -40.5zM346 -248q0 -64 -25.5 -114t-67.5 -87t-96 -61t-112 -35l12 70q42 12 71 25t49.5 32.5t33 48t20.5 72.5h-108q-10 11 -13.5 26t-3.5 29 q0 26 10.5 47.5t27.5 37t40 24t47 8.5q57 0 86 -33.5t29 -89.5z" />
<glyph unicode="T&#x326;" horiz-adv-x="1200" d="M1266 1061h-129l8 180q3 41 -39 41h-264l-213 -1147q-3 -15 5 -26t36 -13l116 -10v-86h-532v86l119 10q18 2 32 11.5t17 27.5l213 1147h-256q-39 0 -51 -41l-64 -180h-129l60 313h1134zM568 -248q0 -64 -25.5 -114t-67.5 -87t-96 -61t-112 -35l12 70q42 12 71 25 t49.5 32.5t33 48t20.5 72.5h-108q-10 11 -13.5 26t-3.5 29q0 26 10.5 47.5t27.5 37t40 24t47 8.5q57 0 86 -33.5t29 -89.5z" />
<glyph unicode="t&#x326;" horiz-adv-x="614" d="M414 858l-129 -643q-6 -27 2 -48.5t25.5 -36t41 -22.5t49.5 -8q29 0 60 5.5t59.5 13.5t53 16.5t40.5 14.5v-82q-13 -6 -50 -21t-85 -31t-101 -28.5t-97 -12.5q-56 0 -93 13.5t-59 37t-31.5 56t-9.5 70.5q0 20 1.5 41t6.5 43l125 622l-129 -12v67l154 68l100 205h125 l-41 -234h283v-94h-301zM324 -248q0 -64 -25.5 -114t-67.5 -87t-96 -61t-112 -35l12 70q42 12 71 25t49.5 32.5t33 48t20.5 72.5h-108q-10 11 -13.5 26t-3.5 29q0 26 10.5 47.5t27.5 37t40 24t47 8.5q57 0 86 -33.5t29 -89.5z" />
<glyph unicode="H&#x30c;" horiz-adv-x="1485" d="M1452 1278q-19 -2 -31.5 -11.5t-17.5 -29.5l-213 -1102q-3 -15 5 -26t36 -13l115 -10v-86h-535v86l123 10q18 2 32 11.5t17 27.5l102 533h-639l-102 -533q-3 -15 5 -26t34 -13l119 -10v-86h-533v86l117 10q42 3 51 39l213 1102q3 17 -5 28t-36 13l-114 10v86h532v-86 l-121 -10q-18 -2 -32 -11.5t-17 -29.5l-90 -467h639l90 467q3 17 -5 28t-36 13l-117 10v86h533v-86zM996 1528h-162l-201 347h144l170 -189l243 189h146z" />
<glyph unicode="h&#x30c;" horiz-adv-x="1073" d="M1069 51q-13 -5 -45.5 -17t-72.5 -25.5t-82 -23.5t-74 -10q-19 0 -48 5.5t-54.5 20t-40.5 40.5t-7 68l125 604q9 40 -1.5 71t-29.5 51.5t-42 31t-40 10.5q-24 0 -58.5 -12t-73 -33t-77.5 -50.5t-73 -64.5l-150 -717h-188l282 1368l-182 18v62l320 61h82l-138 -661 q31 34 73.5 64t91 52.5t101 35t103.5 12.5q56 0 99 -17.5t69.5 -52t34 -86.5t-7.5 -121l-113 -551q-6 -29 3 -48.5t24.5 -31t32.5 -16t26 -4.5q28 0 61 14t68 25zM835 1568h-162l-201 347h144l170 -189l243 189h146z" />
<glyph unicode="A&#x307;" horiz-adv-x="1378" d="M766 1155l-303 -532h391zM801 0v86l94 10q45 6 39 39l-62 391h-464l-209 -391q-11 -20 -0.5 -28t39.5 -11l94 -10v-86h-441v86l115 12l756 1309h164l221 -1272q3 -20 11 -28.5t30 -10.5l94 -10v-86h-481zM997 1713q0 -24 -9 -45t-24.5 -36.5t-36.5 -24.5t-45 -9t-44.5 9 t-36 24.5t-24.5 36.5t-9 45t8.5 45t24 37t36.5 25.5t45 9.5t45 -9t36.5 -25t24.5 -37.5t9 -45.5z" />
<glyph unicode="a&#x307;" d="M760 803q1 5 -7.5 23t-20.5 37.5t-25.5 34.5t-22.5 15q-78 0 -139.5 -25.5t-107.5 -69t-78.5 -100.5t-52.5 -119t-29 -125t-9 -120q0 -43 7 -86t24.5 -78t48 -57t78.5 -22q36 0 72 16t67 37t54 42t34 32zM1061 55q-12 -5 -44 -18.5t-71.5 -27t-80 -24t-70.5 -10.5 q-37 0 -62.5 9t-42 27t-25.5 44t-12 60q-23 -22 -54 -46.5t-68.5 -45.5t-80 -34.5t-88.5 -13.5q-60 0 -105.5 17t-78.5 45.5t-54.5 66t-34.5 78t-18 82t-5 78.5q0 79 17 159.5t50.5 155t83.5 139.5t115.5 113t146 75.5t176.5 27.5q28 0 55.5 -6.5t51.5 -17t44 -23.5t34 -27 l30 49h140q-5 -12 -11 -28.5t-12 -33.5t-10.5 -32t-5.5 -23q-7 -27 -20 -81.5t-27.5 -122.5t-30 -142.5t-27.5 -141t-20 -118t-8 -74.5q0 -54 23 -74t65 -20q10 0 29.5 4.5t40.5 10.5t39 11t26 7v-74zM863 1313q0 -24 -9 -45t-24.5 -36.5t-36.5 -24.5t-45 -9t-44.5 9 t-36 24.5t-24.5 36.5t-9 45t8.5 45t24 37t36.5 25.5t45 9.5t45 -9t36.5 -25t24.5 -37.5t9 -45.5z" />
<glyph unicode="E&#x327;" horiz-adv-x="1143" d="M1126 1067h-131v166q0 22 -8 30.5t-31 8.5h-393l-94 -504h274q22 0 33.5 8.5t18.5 30.5l39 137h114l-90 -469h-117l21 146q6 41 -39 41h-277l-106 -560h481q22 0 33.5 11.5t17.5 29.5l64 197h125l-68 -340h-1024v86l119 10q43 3 49 39l213 1102q3 17 -5 28t-34 13 l-114 10v86h991zM668 -229q0 -53 -23 -95.5t-63 -72t-92.5 -45t-110.5 -15.5q-23 0 -47.5 3t-46.5 6.5t-40.5 8t-29.5 7.5l19 82q23 -6 61 -14.5t72 -8.5q14 0 37 4t44.5 14.5t37.5 29.5t16 49q0 15 -6.5 25.5t-16 17t-21.5 9.5t-24 3q-9 0 -21 -5.5t-44 -21.5l47 248h106 l-22 -125q8 2 15.5 3t15.5 1q137 0 137 -108z" />
<glyph unicode="e&#x327;" horiz-adv-x="889" d="M579 -229q0 -53 -23 -95.5t-63 -72t-92.5 -45t-110.5 -15.5q-23 0 -47.5 3t-46.5 6.5t-40.5 8t-29.5 7.5l19 82q23 -6 61 -14.5t72 -8.5q14 0 37 4t44.5 14.5t37.5 29.5t16 49q0 15 -6.5 25.5t-16 17t-21.5 9.5t-24 3q-9 0 -21 -5.5t-44 -21.5l43 229q-36 6 -72 21.5 t-69.5 42.5t-59 68.5t-41 99t-15.5 135.5q0 81 19.5 161.5t55 154t85.5 137t110 110t128.5 73t141.5 26.5q71 0 118.5 -23.5t76.5 -56.5t41 -68t12 -57q0 -56 -26 -103t-70.5 -85t-103 -67.5t-123 -50t-131.5 -33t-128 -15.5q-3 -20 -5.5 -48t-2.5 -47q0 -56 13.5 -103 t39 -81.5t61.5 -54t81 -19.5q69 0 152 50t196 149v-129q-29 -28 -71 -61.5t-95.5 -63t-116.5 -48.5q-46 -14 -95 -18l-18 -102q8 2 15.5 3t15.5 1q137 0 137 -108zM672 807q0 20 -8 39.5t-22 34.5t-35 24.5t-46 9.5q-34 0 -65 -18t-59.5 -48t-53 -69t-44 -82t-34.5 -87 t-24 -83q65 6 134.5 30t126.5 61.5t93.5 85.5t36.5 102z" />
<glyph unicode="O&#x307;" horiz-adv-x="1454" d="M1182 854q0 102 -25.5 185t-71 142.5t-108 91.5t-135.5 32q-75 0 -142 -33t-124 -90t-102.5 -133.5t-77.5 -163.5t-49 -180.5t-17 -184.5q0 -104 26.5 -186.5t72 -140t107.5 -88.5t134 -31q75 0 142 33.5t124 91.5t102.5 134.5t77.5 163.5t49 178.5t17 178.5zM1415 854 q0 -108 -23 -215.5t-67 -206.5t-109 -183.5t-149.5 -147.5t-188 -98.5t-223.5 -35.5q-123 0 -225 40.5t-176 115.5t-115 180t-41 234q0 110 25 217t72.5 204t115 179t152 142t185 94t212.5 34q127 0 230 -43.5t175 -118.5t111 -176t39 -215zM1051 1713q0 -24 -9 -45 t-24.5 -36.5t-36.5 -24.5t-45 -9t-44.5 9t-36 24.5t-24.5 36.5t-9 45t8.5 45t24 37t36.5 25.5t45 9.5t45 -9t36.5 -25t24.5 -37.5t9 -45.5z" />
<glyph unicode="o&#x307;" horiz-adv-x="1036" d="M766 623q0 73 -14 129t-38 94t-57.5 58t-72.5 20q-67 0 -124.5 -48.5t-99.5 -127t-66 -177t-24 -198.5q0 -76 14 -133t39 -95.5t58 -57.5t72 -19q48 0 90.5 24.5t77 66t61.5 96.5t46 116.5t28.5 126.5t9.5 125zM973 614q0 -83 -18.5 -162.5t-53 -150.5t-83 -130.5 t-109 -103t-131.5 -68t-150 -24.5q-84 0 -152 27t-115 77.5t-72.5 122t-25.5 160.5q0 83 18 163.5t51.5 152.5t81.5 133.5t108.5 106t132 69.5t151.5 25q74 0 140.5 -23t117 -72t80 -124t29.5 -179zM801 1313q0 -24 -9 -45t-24.5 -36.5t-36.5 -24.5t-45 -9t-44.5 9t-36 24.5 t-24.5 36.5t-9 45t8.5 45t24 37t36.5 25.5t45 9.5t45 -9t36.5 -25t24.5 -37.5t9 -45.5z" />
<glyph unicode="Y&#x304;" horiz-adv-x="1309" d="M1341 1280q-15 -2 -30 -12.5t-23 -18.5l-520 -674l-86 -440q-5 -15 4 -26t35 -13l115 -10v-86h-533v86l119 10q18 2 31 11.5t18 27.5l84 422l-229 692q-7 20 -17.5 24.5t-21.5 6.5l-115 8v86h530v-86l-131 -8q-17 -2 -25.5 -13t-2.5 -28l168 -532l395 532q4 7 7 14 t2 12.5t-6.5 9.5t-18.5 5l-127 8v86h493v-86zM1158 1600h-620l29 135h617z" />
<glyph unicode="y&#x304;" horiz-adv-x="1018" d="M971 846q-12 -12 -35 -44t-47.5 -72t-48 -82.5t-37.5 -74.5q-22 -49 -51.5 -119t-66 -150.5t-79.5 -167t-92 -169.5q-48 -81 -102.5 -159.5t-115.5 -140t-128.5 -99t-140.5 -37.5q-56 0 -93 14t-59 34.5t-30.5 44t-8.5 42.5q0 23 10.5 44.5t29.5 38t45 26.5t56 12 l119 -119q32 3 63 25.5t65.5 67.5t75.5 113t93 163q-2 12 -10 53.5t-19.5 101t-26 131.5t-30.5 146q-16 72 -33.5 144.5t-34 130.5t-29.5 95t-20 38l-186 14v51l28 9q20 7 44 14.5t51 16t51 15t43.5 11t28.5 4.5q33 0 58 -15.5t44.5 -44.5t36 -69.5t31.5 -91.5 q26 -91 54 -225.5t58 -299.5l312 746h59l170 -56v-47zM944 1200h-620l29 135h617z" />
<glyph unicode="&#x415;&#x300;" horiz-adv-x="1143" d="M1126 1067h-131v166q0 22 -8 30.5t-31 8.5h-393l-94 -504h274q22 0 33.5 8.5t18.5 30.5l39 137h114l-90 -469h-117l21 146q6 41 -39 41h-277l-106 -560h481q22 0 33.5 11.5t17.5 29.5l64 197h125l-68 -340h-1024v86l119 10q43 3 49 39l213 1102q3 17 -5 28t-34 13 l-114 10v86h991zM815 1528l-297 195q-21 14 -34 34.5t-13 51.5q0 15 4.5 31t15 29t28 21.5t44.5 8.5q22 0 37.5 -4t27.5 -10.5t21.5 -16t18.5 -20.5l274 -320h-127z" />
<glyph unicode="&#x415;&#x308;" horiz-adv-x="1143" d="M1126 1067h-131v166q0 22 -8 30.5t-31 8.5h-393l-94 -504h274q22 0 33.5 8.5t18.5 30.5l39 137h114l-90 -469h-117l21 146q6 41 -39 41h-277l-106 -560h481q22 0 33.5 11.5t17.5 29.5l64 197h125l-68 -340h-1024v86l119 10q43 3 49 39l213 1102q3 17 -5 28t-34 13 l-114 10v86h991zM676 1713q0 -23 -9 -44t-24.5 -37t-36 -25t-43.5 -9q-22 0 -42 9t-35 25t-24 36t-9 43q0 22 9 42.5t24 36.5t35 25.5t42 9.5q23 0 43.5 -9t36 -24t24.5 -35.5t9 -43.5zM1100 1713q0 -23 -8.5 -44t-23.5 -37t-35.5 -25t-43.5 -9t-43.5 9t-35.5 25t-24 37 t-9 44q0 21 9.5 41.5t25 36t36 25t41.5 9.5q23 0 43.5 -9t35.5 -24t23.5 -35.5t8.5 -43.5z" />
<glyph unicode="&#x413;&#x301;" horiz-adv-x="1081" d="M1126 997h-106l12 240q1 13 -12.5 23t-26.5 10h-424l-223 -1131q-2 -12 5.5 -26.5t29.5 -16.5l111 -8v-88h-543v88l139 8q22 2 35.5 16.5t15.5 26.5l217 1096q3 12 -5 26t-29 17l-119 8v88h997zM1041 1811q0 -29 -13 -48.5t-36 -35.5l-307 -199h-144l279 320q10 12 21 21 t24.5 16t31 10.5t40.5 3.5q27 0 46.5 -8t32 -20.5t19 -28.5t6.5 -31z" />
<glyph unicode="&#x406;&#x308;" horiz-adv-x="643" d="M598 1278q-20 -2 -28 -11.5t-13 -29.5l-213 -1102q-3 -15 5 -26t36 -13l119 -10v-86h-535v86l129 10q19 2 27.5 11.5t11.5 27.5l213 1102q3 17 -5 28t-34 13l-114 10v86h532v-86zM430 1713q0 -23 -9 -44t-24.5 -37t-36 -25t-43.5 -9q-22 0 -42 9t-35 25t-24 36t-9 43 q0 22 9 42.5t24 36.5t35 25.5t42 9.5q23 0 43.5 -9t36 -24t24.5 -35.5t9 -43.5zM854 1713q0 -23 -8.5 -44t-23.5 -37t-35.5 -25t-43.5 -9t-43.5 9t-35.5 25t-24 37t-9 44q0 21 9.5 41.5t25 36t36 25t41.5 9.5q23 0 43.5 -9t35.5 -24t23.5 -35.5t8.5 -43.5z" />
<glyph unicode="&#x41a;&#x301;" horiz-adv-x="1309" d="M1436 1288q0 -35 -30.5 -69.5t-72.5 -63.5l-194 88q-49 -41 -81.5 -87.5t-58 -97t-50 -103t-58.5 -103.5q-45 -68 -96.5 -116.5t-104.5 -69.5q54 -14 82 -37t43 -54l242 -477l139 -10v-88h-336v66l-242 475q-8 18 -28.5 30.5t-46.5 21t-54.5 13t-52.5 6.5l-92 -471 q-3 -14 5 -27.5t30 -15.5l123 -10v-88h-533v88l117 10q22 2 35 15.5t16 27.5l215 1092q3 14 -4 27.5t-29 15.5l-110 10v88h539v-88l-136 -10q-21 -2 -35.5 -15.5t-17.5 -27.5l-100 -516q100 0 179 39t132 102q48 56 79 117.5t62 124t70.5 123t105.5 114.5q45 37 97 53.5 t104 16.5q72 0 110 -34.5t38 -84.5zM1178 1811q0 -29 -13 -48.5t-36 -35.5l-307 -199h-144l279 320q10 12 21 21t24.5 16t31 10.5t40.5 3.5q27 0 46.5 -8t32 -20.5t19 -28.5t6.5 -31z" />
<glyph unicode="&#x418;&#x300;" horiz-adv-x="1458" d="M1432 1278q-23 -3 -37 -17t-17 -26l-215 -1096q-3 -12 5 -26.5t28 -16.5l121 -8v-88h-531v88l117 8q23 2 36.5 16.5t16.5 26.5l166 844l-757 -741l-21 -103q-2 -12 6.5 -26.5t30.5 -16.5l119 -8v-88h-541v88l127 8q22 2 35.5 16.5t15.5 26.5l217 1096q3 12 -5 26t-30 17 l-106 8v88h532v-88l-131 -8q-23 -2 -36.5 -16.5t-16.5 -26.5l-160 -809l758 743l12 66q4 12 -3.5 26t-28.5 17l-117 8v88h520v-88zM979 1528l-297 195q-21 14 -34 34.5t-13 51.5q0 15 4.5 31t15 29t28 21.5t44.5 8.5q22 0 37.5 -4t27.5 -10.5t21.5 -16t18.5 -20.5l274 -320 h-127z" />
<glyph unicode="&#x423;&#x306;" horiz-adv-x="1425" d="M1409 1272l-713 -1039q-38 -54 -81.5 -102.5t-94.5 -85t-109 -57.5t-124 -21q-48 0 -78.5 12.5t-48 32t-24.5 42t-7 42.5q0 15 10.5 32.5t28 35t40.5 35t48 32.5l203 -88q44 29 86 80t84 105l-316 946l-155 12v88h598v-88l-140 -6q-23 -2 -38 -15t-9 -30l215 -668 l451 668q9 15 0 29t-31 16l-123 6v88h482v-88zM1309 1792q-24 -57 -57.5 -106t-77.5 -85t-99.5 -56.5t-125.5 -20.5q-47 0 -93.5 11t-84 34t-61 57.5t-23.5 81.5q0 21 7.5 43t21.5 40t33.5 29t43.5 11q7 0 19 -1.5t25 -4.5t24 -6.5t16 -6.5l37 -161q16 -14 42 -21.5t54 -7.5 q45 0 81.5 18.5t64.5 44.5t46.5 55.5t28.5 51.5h78z" />
<glyph unicode="&#x418;&#x306;" horiz-adv-x="1458" d="M1432 1278q-23 -3 -37 -17t-17 -26l-215 -1096q-3 -12 5 -26.5t28 -16.5l121 -8v-88h-531v88l117 8q23 2 36.5 16.5t16.5 26.5l166 844l-757 -741l-21 -103q-2 -12 6.5 -26.5t30.5 -16.5l119 -8v-88h-541v88l127 8q22 2 35.5 16.5t15.5 26.5l217 1096q3 12 -5 26t-30 17 l-106 8v88h532v-88l-131 -8q-23 -2 -36.5 -16.5t-16.5 -26.5l-160 -809l758 743l12 66q4 12 -3.5 26t-28.5 17l-117 8v88h520v-88zM1284 1792q-24 -57 -57.5 -106t-77.5 -85t-99.5 -56.5t-125.5 -20.5q-47 0 -93.5 11t-84 34t-61 57.5t-23.5 81.5q0 21 7.5 43t21.5 40 t33.5 29t43.5 11q7 0 19 -1.5t25 -4.5t24 -6.5t16 -6.5l37 -161q16 -14 42 -21.5t54 -7.5q45 0 81.5 18.5t64.5 44.5t46.5 55.5t28.5 51.5h78z" />
<glyph unicode="&#x438;&#x306;" horiz-adv-x="1079" d="M1073 49q-19 -11 -52.5 -24t-72.5 -24t-79.5 -18.5t-73.5 -7.5q-58 0 -86 19.5t-38.5 45t-9.5 51.5t1 38q-81 -77 -169.5 -115.5t-191.5 -38.5q-71 0 -116 25t-68 63t-28 83t3 85l133 639l-172 19v59l309 64h84l-163 -781q-6 -26 2.5 -49.5t25 -41t37.5 -28t41 -10.5 q37 0 74.5 10.5t74.5 28.5t71 41.5t63 50.5l155 754h191l-164 -788q-7 -32 0 -53.5t21.5 -35.5t33 -20t35.5 -6q20 0 53 6t76 31v-72zM1017 1372q-22 -51 -52 -95.5t-70 -77.5t-91 -52t-115 -19q-42 0 -84.5 10t-76 31t-55 52.5t-21.5 74.5q0 19 7 39t19.5 36t30.5 26t39 10 q7 0 18 -1.5t23 -3.5t22 -5t15 -6l33 -148q14 -12 38.5 -19t49.5 -7q41 0 74 16.5t58 40.5t42 50.5t26 47.5h70z" />
<glyph unicode="&#x435;&#x300;" horiz-adv-x="889" d="M672 807q0 20 -8 39.5t-22 34.5t-35 24.5t-46 9.5q-34 0 -65 -18t-59.5 -48t-53 -69t-44 -82t-34.5 -87t-24 -83q65 6 134.5 30t126.5 61.5t93.5 85.5t36.5 102zM854 805q0 -56 -26 -103t-70.5 -85t-103 -67.5t-123 -50t-131.5 -33t-128 -15.5q-3 -20 -5.5 -48t-2.5 -47 q0 -56 13.5 -103t39 -81.5t61.5 -54t81 -19.5q69 0 152 50t196 149v-129q-29 -28 -71 -61.5t-95.5 -63t-116.5 -49t-133 -19.5q-31 0 -67.5 6t-72.5 21.5t-69.5 42.5t-59 68.5t-41 99t-15.5 135.5q0 81 19.5 161.5t55 154t85.5 137t110 110t128.5 73t141.5 26.5 q71 0 118.5 -23.5t76.5 -56.5t41 -68t12 -57zM721 1128l-297 195q-21 14 -34 34.5t-13 51.5q0 15 4.5 31t15 29t28 21.5t44.5 8.5q22 0 37.5 -4t27.5 -10.5t21.5 -16t18.5 -20.5l274 -320h-127z" />
<glyph unicode="&#x435;&#x308;" horiz-adv-x="889" d="M672 807q0 20 -8 39.5t-22 34.5t-35 24.5t-46 9.5q-34 0 -65 -18t-59.5 -48t-53 -69t-44 -82t-34.5 -87t-24 -83q65 6 134.5 30t126.5 61.5t93.5 85.5t36.5 102zM854 805q0 -56 -26 -103t-70.5 -85t-103 -67.5t-123 -50t-131.5 -33t-128 -15.5q-3 -20 -5.5 -48t-2.5 -47 q0 -56 13.5 -103t39 -81.5t61.5 -54t81 -19.5q69 0 152 50t196 149v-129q-29 -28 -71 -61.5t-95.5 -63t-116.5 -49t-133 -19.5q-31 0 -67.5 6t-72.5 21.5t-69.5 42.5t-59 68.5t-41 99t-15.5 135.5q0 81 19.5 161.5t55 154t85.5 137t110 110t128.5 73t141.5 26.5 q71 0 118.5 -23.5t76.5 -56.5t41 -68t12 -57zM582 1313q0 -23 -9 -44t-24.5 -37t-36 -25t-43.5 -9q-22 0 -42 9t-35 25t-24 36t-9 43q0 22 9 42.5t24 36.5t35 25.5t42 9.5q23 0 43.5 -9t36 -24t24.5 -35.5t9 -43.5zM1006 1313q0 -23 -8.5 -44t-23.5 -37t-35.5 -25t-43.5 -9 t-43.5 9t-35.5 25t-24 37t-9 44q0 21 9.5 41.5t25 36t36 25t41.5 9.5q23 0 43.5 -9t35.5 -24t23.5 -35.5t8.5 -43.5z" />
<glyph unicode="&#x433;&#x301;" horiz-adv-x="891" d="M864 811q0 -52 -29.5 -94.5t-85.5 -81t-137 -75.5t-184 -79q-44 -18 -82.5 -46.5t-67 -62.5t-45 -71.5t-16.5 -73.5q0 -26 9 -53t26 -49.5t41 -36.5t55 -14q82 0 152.5 41.5t148.5 126.5l96 -43q-87 -104 -192.5 -164t-239.5 -60q-58 0 -110.5 15.5t-92 47t-62.5 78.5 t-23 111q0 48 28 95t74 89.5t105.5 78t121.5 61.5q75 29 134 60t100.5 64t63.5 67t22 69q0 18 -5 36t-17.5 32.5t-34 23t-54.5 8.5q-29 0 -55 -6.5t-51 -20.5t-51.5 -36t-57.5 -53l-67 61q66 86 150 121t187 35q57 0 102.5 -17t77.5 -44.5t49 -64t17 -75.5zM902 1411 q0 -29 -13 -48.5t-36 -35.5l-307 -199h-144l279 320q10 12 21 21t24.5 16t31 10.5t40.5 3.5q27 0 46.5 -8t32 -20.5t19 -28.5t6.5 -31z" />
<glyph unicode="&#x456;&#x308;" horiz-adv-x="545" d="M539 59q-12 -5 -44 -19t-75 -28.5t-90.5 -25.5t-89.5 -11q-53 0 -84 18t-46 47t-17 65t5 71l131 694l-176 19v59l309 64h84l-155 -819q-4 -21 0.5 -40t15 -33.5t27 -23t37.5 -8.5q18 0 42.5 6.5t49 15t45.5 16.5t31 11v-78zM322 1313q0 -23 -9 -44t-24.5 -37t-36 -25 t-43.5 -9q-22 0 -42 9t-35 25t-24 36t-9 43q0 22 9 42.5t24 36.5t35 25.5t42 9.5q23 0 43.5 -9t36 -24t24.5 -35.5t9 -43.5zM746 1313q0 -23 -8.5 -44t-23.5 -37t-35.5 -25t-43.5 -9t-43.5 9t-35.5 25t-24 37t-9 44q0 21 9.5 41.5t25 36t36 25t41.5 9.5q23 0 43.5 -9 t35.5 -24t23.5 -35.5t8.5 -43.5z" />
<glyph unicode="&#x43a;&#x301;" horiz-adv-x="1020" d="M1016 915q0 -32 -26 -59.5t-60 -50.5l-154 69q-29 -26 -49.5 -57.5t-37.5 -66t-33.5 -69.5t-37.5 -67q-24 -37 -52.5 -66.5t-57.5 -47.5q22 -11 46 -31t34 -39l129 -254q9 -20 25 -33.5t34 -13.5q20 0 47.5 16t54.5 37.5t50 44.5t35 37l30 -53q-8 -10 -25 -31.5 t-40.5 -48t-52.5 -54t-60 -50.5t-63 -37.5t-62 -14.5q-32 0 -55.5 22.5t-38.5 53.5l-174 340q-6 12 -14 20t-20.5 12.5t-31 6.5t-45.5 2l-86 -432h-188l168 864l-160 29v53l317 66h62l-94 -486q50 0 87 13t66.5 36.5t52.5 57t46 74.5q19 36 35 70t34 65.5t41.5 61.5t57.5 59 q32 27 70.5 39t76.5 12q56 0 87.5 -28.5t31.5 -70.5zM964 1411q0 -29 -13 -48.5t-36 -35.5l-307 -199h-144l279 320q10 12 21 21t24.5 16t31 10.5t40.5 3.5q27 0 46.5 -8t32 -20.5t19 -28.5t6.5 -31z" />
<glyph unicode="&#x438;&#x300;" horiz-adv-x="1079" d="M1073 49q-19 -11 -52.5 -24t-72.5 -24t-79.5 -18.5t-73.5 -7.5q-58 0 -86 19.5t-38.5 45t-9.5 51.5t1 38q-81 -77 -169.5 -115.5t-191.5 -38.5q-71 0 -116 25t-68 63t-28 83t3 85l133 639l-172 19v59l309 64h84l-163 -781q-6 -26 2.5 -49.5t25 -41t37.5 -28t41 -10.5 q37 0 74.5 10.5t74.5 28.5t71 41.5t63 50.5l155 754h191l-164 -788q-7 -32 0 -53.5t21.5 -35.5t33 -20t35.5 -6q20 0 53 6t76 31v-72zM767 1128l-297 195q-21 14 -34 34.5t-13 51.5q0 15 4.5 31t15 29t28 21.5t44.5 8.5q22 0 37.5 -4t27.5 -10.5t21.5 -16t18.5 -20.5 l274 -320h-127z" />
<glyph unicode="&#x443;&#x306;" horiz-adv-x="1018" d="M971 846q-12 -12 -35 -44t-47.5 -72t-48 -82.5t-37.5 -74.5q-22 -49 -51.5 -119t-66 -150.5t-79.5 -167t-92 -169.5q-48 -81 -102.5 -159.5t-115.5 -140t-128.5 -99t-140.5 -37.5q-56 0 -93 14t-59 34.5t-30.5 44t-8.5 42.5q0 23 10.5 44.5t29.5 38t45 26.5t56 12 l119 -119q32 3 63 25.5t65.5 67.5t75.5 113t93 163q-2 12 -10 53.5t-19.5 101t-26 131.5t-30.5 146q-16 72 -33.5 144.5t-34 130.5t-29.5 95t-20 38l-186 14v51l28 9q20 7 44 14.5t51 16t51 15t43.5 11t28.5 4.5q33 0 58 -15.5t44.5 -44.5t36 -69.5t31.5 -91.5 q26 -91 54 -225.5t58 -299.5l312 746h59l170 -56v-47zM945 1372q-22 -51 -52 -95.5t-70 -77.5t-91 -52t-115 -19q-42 0 -84.5 10t-76 31t-55 52.5t-21.5 74.5q0 19 7 39t19.5 36t30.5 26t39 10q7 0 18 -1.5t23 -3.5t22 -5t15 -6l33 -148q14 -12 38.5 -19t49.5 -7 q41 0 74 16.5t58 40.5t42 50.5t26 47.5h70z" />
<glyph unicode="&#x416;&#x306;" horiz-adv-x="1825" d="M1939 1288q0 -18 -8 -35.5t-22 -34t-32.5 -32.5t-39.5 -31l-195 88q-49 -41 -79.5 -87.5t-54.5 -97t-46.5 -103t-56.5 -103.5q-45 -68 -89.5 -115t-90.5 -71q52 -14 93 -43.5t58 -67.5l195 -457l139 -10v-88h-344v66l-213 475q-17 35 -46.5 51.5t-76.5 19.5l-92 -471 q-3 -14 4 -27.5t29 -15.5l104 -10v-88h-528v88l131 10q22 2 35.5 15.5t15.5 27.5l94 471q-48 -3 -84 -19.5t-65 -51.5l-402 -475v-66h-360v88l168 10l375 457q34 42 83 71t111 40q-38 31 -62.5 74.5t-41.5 111.5q-14 51 -16.5 103.5t-6.5 103t-16 97t-45 87.5l-230 -88 q-29 29 -40 63.5t-11 69.5q0 24 17 45.5t44.5 38t62.5 26t71 9.5q52 0 98.5 -16.5t75.5 -53.5q30 -36 45.5 -75.5t22.5 -80t9.5 -82t5.5 -83t10 -81.5t24 -77q15 -32 25.5 -57.5t28 -44.5t46 -29t78.5 -10l102 516q3 14 -5 27.5t-30 15.5l-110 10v88h528v-88l-125 -10 q-21 -2 -34.5 -15.5t-16.5 -27.5l-102 -516q51 0 83.5 10t57 29t45.5 44.5t47 57.5q48 56 77.5 117.5t58.5 124t67 123t104 114.5q45 37 96.5 53.5t104.5 16.5q36 0 63.5 -9.5t46 -26t28 -38t9.5 -45.5zM1457 1792q-24 -57 -57.5 -106t-77.5 -85t-99.5 -56.5t-125.5 -20.5 q-47 0 -93.5 11t-84 34t-61 57.5t-23.5 81.5q0 21 7.5 43t21.5 40t33.5 29t43.5 11q7 0 19 -1.5t25 -4.5t24 -6.5t16 -6.5l37 -161q16 -14 42 -21.5t54 -7.5q45 0 81.5 18.5t64.5 44.5t46.5 55.5t28.5 51.5h78z" />
<glyph unicode="&#x436;&#x306;" horiz-adv-x="1880" d="M1815 868q0 -20 -6.5 -41t-23.5 -39t-48 -32.5t-80 -20.5l-98 158q-46 0 -84 -26.5t-68 -70t-52 -98t-36.5 -111.5t-21.5 -111t-7 -95q0 -50 10.5 -98.5t31.5 -87t51 -62.5t69 -24q41 0 79.5 14.5t77.5 40.5t79 62t84 79v-129q-32 -31 -69.5 -66t-84 -65t-103 -50 t-124.5 -20q-61 0 -115 25.5t-94.5 74t-64 119.5t-23.5 162q0 25 1.5 49.5t6.5 47.5h-78l-90 -453h-191l93 453h-74q-28 -104 -82 -191.5t-121.5 -151.5t-142 -99.5t-142.5 -35.5q-55 0 -94.5 14t-64.5 35t-37 46.5t-12 48.5q0 20 6 41t23.5 39.5t48 32.5t79.5 20l99 -158 q46 0 83.5 26.5t67.5 69.5t52 98t36.5 111.5t21.5 110.5t7 96q0 50 -10.5 99t-31.5 87.5t-51 62.5t-69 24q-41 0 -79.5 -14.5t-77.5 -41t-79 -62.5t-83 -79v129q31 31 69 66t84.5 65t102.5 50t124 20q61 0 115 -25.5t94.5 -74t64 -119.5t23.5 -162q0 -20 -1 -38.5t-3 -37.5 h74l86 432h191l-86 -432h75q30 100 84.5 183.5t121.5 144.5t139.5 95t138.5 34q55 0 94.5 -14t65 -35t37.5 -46.5t12 -48.5zM1396 1372q-22 -51 -52 -95.5t-70 -77.5t-91 -52t-115 -19q-42 0 -84.5 10t-76 31t-55 52.5t-21.5 74.5q0 19 7 39t19.5 36t30.5 26t39 10 q7 0 18 -1.5t23 -3.5t22 -5t15 -6l33 -148q14 -12 38.5 -19t49.5 -7q41 0 74 16.5t58 40.5t42 50.5t26 47.5h70z" />
<glyph unicode="&#x410;&#x306;" horiz-adv-x="1378" d="M766 1155l-303 -532h391zM801 0v86l94 10q45 6 39 39l-62 391h-464l-209 -391q-11 -20 -0.5 -28t39.5 -11l94 -10v-86h-441v86l115 12l756 1309h164l221 -1272q3 -20 11 -28.5t30 -10.5l94 -10v-86h-481zM1225 1792q-24 -57 -57.5 -106t-77.5 -85t-99.5 -56.5 t-125.5 -20.5q-47 0 -93.5 11t-84 34t-61 57.5t-23.5 81.5q0 21 7.5 43t21.5 40t33.5 29t43.5 11q7 0 19 -1.5t25 -4.5t24 -6.5t16 -6.5l37 -161q16 -14 42 -21.5t54 -7.5q45 0 81.5 18.5t64.5 44.5t46.5 55.5t28.5 51.5h78z" />
<glyph unicode="&#x430;&#x306;" d="M760 803q1 5 -7.5 23t-20.5 37.5t-25.5 34.5t-22.5 15q-78 0 -139.5 -25.5t-107.5 -69t-78.5 -100.5t-52.5 -119t-29 -125t-9 -120q0 -43 7 -86t24.5 -78t48 -57t78.5 -22q36 0 72 16t67 37t54 42t34 32zM1061 55q-12 -5 -44 -18.5t-71.5 -27t-80 -24t-70.5 -10.5 q-37 0 -62.5 9t-42 27t-25.5 44t-12 60q-23 -22 -54 -46.5t-68.5 -45.5t-80 -34.5t-88.5 -13.5q-60 0 -105.5 17t-78.5 45.5t-54.5 66t-34.5 78t-18 82t-5 78.5q0 79 17 159.5t50.5 155t83.5 139.5t115.5 113t146 75.5t176.5 27.5q28 0 55.5 -6.5t51.5 -17t44 -23.5t34 -27 l30 49h140q-5 -12 -11 -28.5t-12 -33.5t-10.5 -32t-5.5 -23q-7 -27 -20 -81.5t-27.5 -122.5t-30 -142.5t-27.5 -141t-20 -118t-8 -74.5q0 -54 23 -74t65 -20q10 0 29.5 4.5t40.5 10.5t39 11t26 7v-74zM1030 1372q-22 -51 -52 -95.5t-70 -77.5t-91 -52t-115 -19 q-42 0 -84.5 10t-76 31t-55 52.5t-21.5 74.5q0 19 7 39t19.5 36t30.5 26t39 10q7 0 18 -1.5t23 -3.5t22 -5t15 -6l33 -148q14 -12 38.5 -19t49.5 -7q41 0 74 16.5t58 40.5t42 50.5t26 47.5h70z" />
<glyph unicode="&#x410;&#x308;" horiz-adv-x="1378" d="M766 1155l-303 -532h391zM801 0v86l94 10q45 6 39 39l-62 391h-464l-209 -391q-11 -20 -0.5 -28t39.5 -11l94 -10v-86h-441v86l115 12l756 1309h164l221 -1272q3 -20 11 -28.5t30 -10.5l94 -10v-86h-481zM781 1713q0 -23 -9 -44t-24.5 -37t-36 -25t-43.5 -9q-22 0 -42 9 t-35 25t-24 36t-9 43q0 22 9 42.5t24 36.5t35 25.5t42 9.5q23 0 43.5 -9t36 -24t24.5 -35.5t9 -43.5zM1205 1713q0 -23 -8.5 -44t-23.5 -37t-35.5 -25t-43.5 -9t-43.5 9t-35.5 25t-24 37t-9 44q0 21 9.5 41.5t25 36t36 25t41.5 9.5q23 0 43.5 -9t35.5 -24t23.5 -35.5 t8.5 -43.5z" />
<glyph unicode="&#x430;&#x308;" d="M760 803q1 5 -7.5 23t-20.5 37.5t-25.5 34.5t-22.5 15q-78 0 -139.5 -25.5t-107.5 -69t-78.5 -100.5t-52.5 -119t-29 -125t-9 -120q0 -43 7 -86t24.5 -78t48 -57t78.5 -22q36 0 72 16t67 37t54 42t34 32zM1061 55q-12 -5 -44 -18.5t-71.5 -27t-80 -24t-70.5 -10.5 q-37 0 -62.5 9t-42 27t-25.5 44t-12 60q-23 -22 -54 -46.5t-68.5 -45.5t-80 -34.5t-88.5 -13.5q-60 0 -105.5 17t-78.5 45.5t-54.5 66t-34.5 78t-18 82t-5 78.5q0 79 17 159.5t50.5 155t83.5 139.5t115.5 113t146 75.5t176.5 27.5q28 0 55.5 -6.5t51.5 -17t44 -23.5t34 -27 l30 49h140q-5 -12 -11 -28.5t-12 -33.5t-10.5 -32t-5.5 -23q-7 -27 -20 -81.5t-27.5 -122.5t-30 -142.5t-27.5 -141t-20 -118t-8 -74.5q0 -54 23 -74t65 -20q10 0 29.5 4.5t40.5 10.5t39 11t26 7v-74zM641 1313q0 -23 -9 -44t-24.5 -37t-36 -25t-43.5 -9q-22 0 -42 9t-35 25 t-24 36t-9 43q0 22 9 42.5t24 36.5t35 25.5t42 9.5q23 0 43.5 -9t36 -24t24.5 -35.5t9 -43.5zM1065 1313q0 -23 -8.5 -44t-23.5 -37t-35.5 -25t-43.5 -9t-43.5 9t-35.5 25t-24 37t-9 44q0 21 9.5 41.5t25 36t36 25t41.5 9.5q23 0 43.5 -9t35.5 -24t23.5 -35.5t8.5 -43.5z " />
<glyph unicode="&#x415;&#x306;" horiz-adv-x="1143" d="M1126 1067h-131v166q0 22 -8 30.5t-31 8.5h-393l-94 -504h274q22 0 33.5 8.5t18.5 30.5l39 137h114l-90 -469h-117l21 146q6 41 -39 41h-277l-106 -560h481q22 0 33.5 11.5t17.5 29.5l64 197h125l-68 -340h-1024v86l119 10q43 3 49 39l213 1102q3 17 -5 28t-34 13 l-114 10v86h991zM1120 1792q-24 -57 -57.5 -106t-77.5 -85t-99.5 -56.5t-125.5 -20.5q-47 0 -93.5 11t-84 34t-61 57.5t-23.5 81.5q0 21 7.5 43t21.5 40t33.5 29t43.5 11q7 0 19 -1.5t25 -4.5t24 -6.5t16 -6.5l37 -161q16 -14 42 -21.5t54 -7.5q45 0 81.5 18.5t64.5 44.5 t46.5 55.5t28.5 51.5h78z" />
<glyph unicode="&#x435;&#x306;" horiz-adv-x="889" d="M672 807q0 20 -8 39.5t-22 34.5t-35 24.5t-46 9.5q-34 0 -65 -18t-59.5 -48t-53 -69t-44 -82t-34.5 -87t-24 -83q65 6 134.5 30t126.5 61.5t93.5 85.5t36.5 102zM854 805q0 -56 -26 -103t-70.5 -85t-103 -67.5t-123 -50t-131.5 -33t-128 -15.5q-3 -20 -5.5 -48t-2.5 -47 q0 -56 13.5 -103t39 -81.5t61.5 -54t81 -19.5q69 0 152 50t196 149v-129q-29 -28 -71 -61.5t-95.5 -63t-116.5 -49t-133 -19.5q-31 0 -67.5 6t-72.5 21.5t-69.5 42.5t-59 68.5t-41 99t-15.5 135.5q0 81 19.5 161.5t55 154t85.5 137t110 110t128.5 73t141.5 26.5 q71 0 118.5 -23.5t76.5 -56.5t41 -68t12 -57zM971 1372q-22 -51 -52 -95.5t-70 -77.5t-91 -52t-115 -19q-42 0 -84.5 10t-76 31t-55 52.5t-21.5 74.5q0 19 7 39t19.5 36t30.5 26t39 10q7 0 18 -1.5t23 -3.5t22 -5t15 -6l33 -148q14 -12 38.5 -19t49.5 -7q41 0 74 16.5 t58 40.5t42 50.5t26 47.5h70z" />
<glyph unicode="&#x4d8;&#x308;" horiz-adv-x="1231" d="M946 659q-186 -2 -311.5 -33.5t-202 -85t-109 -124t-32.5 -148.5q0 -32 16.5 -65.5t43 -62t59.5 -46.5t65 -18q83 0 157 47.5t134.5 128t106.5 186t73 221.5zM1194 881q0 -116 -20.5 -228.5t-62 -214t-104 -188t-147 -149.5t-191 -98.5t-235.5 -35.5q-78 0 -137.5 17 t-103 44.5t-72.5 61.5t-46.5 67.5t-24.5 63.5t-7 49q0 122 53.5 216t166 157.5t286.5 96.5t414 34q3 25 4.5 47.5t1.5 48.5q0 79 -22.5 154.5t-64.5 134.5t-101 95t-132 36q-71 0 -135.5 -25.5t-124 -65t-114 -86.5t-105.5 -89v158q64 58 118 100.5t111.5 70t126 41 t160.5 13.5q46 0 102 -12t112.5 -37.5t109.5 -66.5t94 -99.5t65.5 -135.5t24.5 -175zM707 1713q0 -23 -9 -44t-24.5 -37t-36 -25t-43.5 -9q-22 0 -42 9t-35 25t-24 36t-9 43q0 22 9 42.5t24 36.5t35 25.5t42 9.5q23 0 43.5 -9t36 -24t24.5 -35.5t9 -43.5zM1131 1713 q0 -23 -8.5 -44t-23.5 -37t-35.5 -25t-43.5 -9t-43.5 9t-35.5 25t-24 37t-9 44q0 21 9.5 41.5t25 36t36 25t41.5 9.5q23 0 43.5 -9t35.5 -24t23.5 -35.5t8.5 -43.5z" />
<glyph unicode="&#x4d9;&#x308;" horiz-adv-x="889" d="M608 457q-65 -6 -134.5 -29.5t-126.5 -60.5t-93.5 -84.5t-36.5 -102.5q0 -21 8 -40.5t22 -35t34.5 -25t46.5 -9.5q51 0 96 38.5t81.5 96.5t63 125.5t39.5 126.5zM823 637q0 -81 -19.5 -161t-55.5 -153.5t-85.5 -137t-109.5 -110.5t-128.5 -73.5t-141.5 -26.5 q-71 0 -118 24t-75.5 57.5t-40.5 68.5t-12 57q0 56 26 103t70 85t102.5 67.5t122.5 50.5t130.5 33t127.5 16q4 18 6.5 45.5t2.5 46.5q0 56 -13.5 103.5t-39 82.5t-61.5 54.5t-81 19.5q-69 0 -152 -50t-194 -149v127q28 28 69.5 62t95 63t116.5 48.5t133 19.5q31 0 67.5 -6 t72.5 -21.5t69.5 -42.5t59 -68.5t41 -99t15.5 -135.5zM454 1313q0 -23 -9 -44t-24.5 -37t-36 -25t-43.5 -9q-22 0 -42 9t-35 25t-24 36t-9 43q0 22 9 42.5t24 36.5t35 25.5t42 9.5q23 0 43.5 -9t36 -24t24.5 -35.5t9 -43.5zM878 1313q0 -23 -8.5 -44t-23.5 -37t-35.5 -25 t-43.5 -9t-43.5 9t-35.5 25t-24 37t-9 44q0 21 9.5 41.5t25 36t36 25t41.5 9.5q23 0 43.5 -9t35.5 -24t23.5 -35.5t8.5 -43.5z" />
<glyph unicode="&#x416;&#x308;" horiz-adv-x="1825" d="M1939 1288q0 -18 -8 -35.5t-22 -34t-32.5 -32.5t-39.5 -31l-195 88q-49 -41 -79.5 -87.5t-54.5 -97t-46.5 -103t-56.5 -103.5q-45 -68 -89.5 -115t-90.5 -71q52 -14 93 -43.5t58 -67.5l195 -457l139 -10v-88h-344v66l-213 475q-17 35 -46.5 51.5t-76.5 19.5l-92 -471 q-3 -14 4 -27.5t29 -15.5l104 -10v-88h-528v88l131 10q22 2 35.5 15.5t15.5 27.5l94 471q-48 -3 -84 -19.5t-65 -51.5l-402 -475v-66h-360v88l168 10l375 457q34 42 83 71t111 40q-38 31 -62.5 74.5t-41.5 111.5q-14 51 -16.5 103.5t-6.5 103t-16 97t-45 87.5l-230 -88 q-29 29 -40 63.5t-11 69.5q0 24 17 45.5t44.5 38t62.5 26t71 9.5q52 0 98.5 -16.5t75.5 -53.5q30 -36 45.5 -75.5t22.5 -80t9.5 -82t5.5 -83t10 -81.5t24 -77q15 -32 25.5 -57.5t28 -44.5t46 -29t78.5 -10l102 516q3 14 -5 27.5t-30 15.5l-110 10v88h528v-88l-125 -10 q-21 -2 -34.5 -15.5t-16.5 -27.5l-102 -516q51 0 83.5 10t57 29t45.5 44.5t47 57.5q48 56 77.5 117.5t58.5 124t67 123t104 114.5q45 37 96.5 53.5t104.5 16.5q36 0 63.5 -9.5t46 -26t28 -38t9.5 -45.5zM1013 1713q0 -23 -9 -44t-24.5 -37t-36 -25t-43.5 -9q-22 0 -42 9 t-35 25t-24 36t-9 43q0 22 9 42.5t24 36.5t35 25.5t42 9.5q23 0 43.5 -9t36 -24t24.5 -35.5t9 -43.5zM1437 1713q0 -23 -8.5 -44t-23.5 -37t-35.5 -25t-43.5 -9t-43.5 9t-35.5 25t-24 37t-9 44q0 21 9.5 41.5t25 36t36 25t41.5 9.5q23 0 43.5 -9t35.5 -24t23.5 -35.5 t8.5 -43.5z" />
<glyph unicode="&#x436;&#x308;" horiz-adv-x="1880" d="M1815 868q0 -20 -6.5 -41t-23.5 -39t-48 -32.5t-80 -20.5l-98 158q-46 0 -84 -26.5t-68 -70t-52 -98t-36.5 -111.5t-21.5 -111t-7 -95q0 -50 10.5 -98.5t31.5 -87t51 -62.5t69 -24q41 0 79.5 14.5t77.5 40.5t79 62t84 79v-129q-32 -31 -69.5 -66t-84 -65t-103 -50 t-124.5 -20q-61 0 -115 25.5t-94.5 74t-64 119.5t-23.5 162q0 25 1.5 49.5t6.5 47.5h-78l-90 -453h-191l93 453h-74q-28 -104 -82 -191.5t-121.5 -151.5t-142 -99.5t-142.5 -35.5q-55 0 -94.5 14t-64.5 35t-37 46.5t-12 48.5q0 20 6 41t23.5 39.5t48 32.5t79.5 20l99 -158 q46 0 83.5 26.5t67.5 69.5t52 98t36.5 111.5t21.5 110.5t7 96q0 50 -10.5 99t-31.5 87.5t-51 62.5t-69 24q-41 0 -79.5 -14.5t-77.5 -41t-79 -62.5t-83 -79v129q31 31 69 66t84.5 65t102.5 50t124 20q61 0 115 -25.5t94.5 -74t64 -119.5t23.5 -162q0 -20 -1 -38.5t-3 -37.5 h74l86 432h191l-86 -432h75q30 100 84.5 183.5t121.5 144.5t139.5 95t138.5 34q55 0 94.5 -14t65 -35t37.5 -46.5t12 -48.5zM1007 1313q0 -23 -9 -44t-24.5 -37t-36 -25t-43.5 -9q-22 0 -42 9t-35 25t-24 36t-9 43q0 22 9 42.5t24 36.5t35 25.5t42 9.5q23 0 43.5 -9t36 -24 t24.5 -35.5t9 -43.5zM1431 1313q0 -23 -8.5 -44t-23.5 -37t-35.5 -25t-43.5 -9t-43.5 9t-35.5 25t-24 37t-9 44q0 21 9.5 41.5t25 36t36 25t41.5 9.5q23 0 43.5 -9t35.5 -24t23.5 -35.5t8.5 -43.5z" />
<glyph unicode="&#x417;&#x308;" horiz-adv-x="1118" d="M1096 1122q0 -81 -38 -146.5t-98 -115t-132.5 -84t-141.5 -53.5q61 -4 119.5 -22t105 -52t75 -84.5t28.5 -118.5q0 -88 -27 -157.5t-73.5 -123t-109 -91t-134 -61.5t-147.5 -35t-150 -11q-53 0 -102 5t-96.5 14.5t-95 23t-97.5 29.5l61 321h125l-8 -186q-1 -19 13 -34 t36 -27.5t49.5 -22t53.5 -15.5t48.5 -9t34.5 -3q79 0 154.5 29t134 80.5t94 121.5t35.5 152q0 58 -24 97.5t-62 64t-86.5 35t-97.5 10.5q-28 0 -61.5 -1t-59.5 -7l22 121l62 -2q71 -2 139 20t121.5 64.5t86 105t32.5 140.5q0 51 -20.5 90.5t-54 65.5t-77.5 39.5t-92 13.5 q-26 0 -66 -9t-79.5 -25t-72 -39t-42.5 -50l-68 -187h-123l62 312q58 26 113 45t110.5 32t113 19t120.5 6q65 0 133.5 -15.5t125 -50t92.5 -88.5t36 -131zM627 1713q0 -23 -9 -44t-24.5 -37t-36 -25t-43.5 -9q-22 0 -42 9t-35 25t-24 36t-9 43q0 22 9 42.5t24 36.5t35 25.5 t42 9.5q23 0 43.5 -9t36 -24t24.5 -35.5t9 -43.5zM1051 1713q0 -23 -8.5 -44t-23.5 -37t-35.5 -25t-43.5 -9t-43.5 9t-35.5 25t-24 37t-9 44q0 21 9.5 41.5t25 36t36 25t41.5 9.5q23 0 43.5 -9t35.5 -24t23.5 -35.5t8.5 -43.5z" />
<glyph unicode="&#x437;&#x308;" horiz-adv-x="907" d="M844 803q0 -60 -24.5 -107t-64.5 -82.5t-91 -59t-103 -36.5q44 -2 85 -13.5t72.5 -34.5t50.5 -58t19 -84q0 -69 -22 -122t-59.5 -92t-87.5 -65.5t-106 -43t-115 -23.5t-115 -7q-82 0 -159.5 14.5t-156.5 37.5l47 231h99v-115q0 -13 11.5 -23.5t30 -19t40.5 -15t43 -11 t38.5 -6.5t26.5 -2q59 0 112.5 16.5t94 49t64.5 80.5t24 112q0 39 -17 65.5t-44.5 42t-62 22.5t-68.5 7q-25 0 -47.5 -1.5t-41.5 -6.5l21 106l41 -2q54 -2 102 11.5t84.5 43t58 73.5t21.5 103q0 39 -14.5 64.5t-38.5 41t-55 22t-64 6.5q-18 0 -49.5 -6t-63.5 -17.5 t-58.5 -27.5t-35.5 -37l-47 -119h-98l45 223q91 37 177.5 55.5t184.5 18.5q48 0 103 -11t102.5 -35.5t79 -64.5t31.5 -98zM472 1313q0 -23 -9 -44t-24.5 -37t-36 -25t-43.5 -9q-22 0 -42 9t-35 25t-24 36t-9 43q0 22 9 42.5t24 36.5t35 25.5t42 9.5q23 0 43.5 -9t36 -24 t24.5 -35.5t9 -43.5zM896 1313q0 -23 -8.5 -44t-23.5 -37t-35.5 -25t-43.5 -9t-43.5 9t-35.5 25t-24 37t-9 44q0 21 9.5 41.5t25 36t36 25t41.5 9.5q23 0 43.5 -9t35.5 -24t23.5 -35.5t8.5 -43.5z" />
<glyph unicode="&#x418;&#x304;" horiz-adv-x="1458" d="M1432 1278q-23 -3 -37 -17t-17 -26l-215 -1096q-3 -12 5 -26.5t28 -16.5l121 -8v-88h-531v88l117 8q23 2 36.5 16.5t16.5 26.5l166 844l-757 -741l-21 -103q-2 -12 6.5 -26.5t30.5 -16.5l119 -8v-88h-541v88l127 8q22 2 35.5 16.5t15.5 26.5l217 1096q3 12 -5 26t-30 17 l-106 8v88h532v-88l-131 -8q-23 -2 -36.5 -16.5t-16.5 -26.5l-160 -809l758 743l12 66q4 12 -3.5 26t-28.5 17l-117 8v88h520v-88zM1228 1600h-620l29 135h617z" />
<glyph unicode="&#x438;&#x304;" horiz-adv-x="1079" d="M1073 49q-19 -11 -52.5 -24t-72.5 -24t-79.5 -18.5t-73.5 -7.5q-58 0 -86 19.5t-38.5 45t-9.5 51.5t1 38q-81 -77 -169.5 -115.5t-191.5 -38.5q-71 0 -116 25t-68 63t-28 83t3 85l133 639l-172 19v59l309 64h84l-163 -781q-6 -26 2.5 -49.5t25 -41t37.5 -28t41 -10.5 q37 0 74.5 10.5t74.5 28.5t71 41.5t63 50.5l155 754h191l-164 -788q-7 -32 0 -53.5t21.5 -35.5t33 -20t35.5 -6q20 0 53 6t76 31v-72zM1016 1200h-620l29 135h617z" />
<glyph unicode="&#x418;&#x308;" horiz-adv-x="1458" d="M1432 1278q-23 -3 -37 -17t-17 -26l-215 -1096q-3 -12 5 -26.5t28 -16.5l121 -8v-88h-531v88l117 8q23 2 36.5 16.5t16.5 26.5l166 844l-757 -741l-21 -103q-2 -12 6.5 -26.5t30.5 -16.5l119 -8v-88h-541v88l127 8q22 2 35.5 16.5t15.5 26.5l217 1096q3 12 -5 26t-30 17 l-106 8v88h532v-88l-131 -8q-23 -2 -36.5 -16.5t-16.5 -26.5l-160 -809l758 743l12 66q4 12 -3.5 26t-28.5 17l-117 8v88h520v-88zM840 1713q0 -23 -9 -44t-24.5 -37t-36 -25t-43.5 -9q-22 0 -42 9t-35 25t-24 36t-9 43q0 22 9 42.5t24 36.5t35 25.5t42 9.5q23 0 43.5 -9 t36 -24t24.5 -35.5t9 -43.5zM1264 1713q0 -23 -8.5 -44t-23.5 -37t-35.5 -25t-43.5 -9t-43.5 9t-35.5 25t-24 37t-9 44q0 21 9.5 41.5t25 36t36 25t41.5 9.5q23 0 43.5 -9t35.5 -24t23.5 -35.5t8.5 -43.5z" />
<glyph unicode="&#x438;&#x308;" horiz-adv-x="1079" d="M1073 49q-19 -11 -52.5 -24t-72.5 -24t-79.5 -18.5t-73.5 -7.5q-58 0 -86 19.5t-38.5 45t-9.5 51.5t1 38q-81 -77 -169.5 -115.5t-191.5 -38.5q-71 0 -116 25t-68 63t-28 83t3 85l133 639l-172 19v59l309 64h84l-163 -781q-6 -26 2.5 -49.5t25 -41t37.5 -28t41 -10.5 q37 0 74.5 10.5t74.5 28.5t71 41.5t63 50.5l155 754h191l-164 -788q-7 -32 0 -53.5t21.5 -35.5t33 -20t35.5 -6q20 0 53 6t76 31v-72zM628 1313q0 -23 -9 -44t-24.5 -37t-36 -25t-43.5 -9q-22 0 -42 9t-35 25t-24 36t-9 43q0 22 9 42.5t24 36.5t35 25.5t42 9.5q23 0 43.5 -9 t36 -24t24.5 -35.5t9 -43.5zM1052 1313q0 -23 -8.5 -44t-23.5 -37t-35.5 -25t-43.5 -9t-43.5 9t-35.5 25t-24 37t-9 44q0 21 9.5 41.5t25 36t36 25t41.5 9.5q23 0 43.5 -9t35.5 -24t23.5 -35.5t8.5 -43.5z" />
<glyph unicode="&#x41e;&#x308;" horiz-adv-x="1454" d="M1182 854q0 102 -25.5 185t-71 142.5t-108 91.5t-135.5 32q-75 0 -142 -33t-124 -90t-102.5 -133.5t-77.5 -163.5t-49 -180.5t-17 -184.5q0 -104 26.5 -186.5t72 -140t107.5 -88.5t134 -31q75 0 142 33.5t124 91t102.5 134.5t77.5 163.5t49 178.5t17 179zM1415 854 q0 -108 -23 -215.5t-67 -206.5t-109 -183.5t-149.5 -147.5t-188 -98.5t-223.5 -35.5q-123 0 -225 40.5t-176 115.5t-115 180t-41 234q0 110 25 217t72.5 204t115 179t152 142t185 94t212.5 34q127 0 230 -43.5t175 -118.5t111 -176t39 -215zM835 1713q0 -23 -9 -44 t-24.5 -37t-36 -25t-43.5 -9q-22 0 -42 9t-35 25t-24 36t-9 43q0 22 9 42.5t24 36.5t35 25.5t42 9.5q23 0 43.5 -9t36 -24t24.5 -35.5t9 -43.5zM1259 1713q0 -23 -8.5 -44t-23.5 -37t-35.5 -25t-43.5 -9t-43.5 9t-35.5 25t-24 37t-9 44q0 21 9.5 41.5t25 36t36 25t41.5 9.5 q23 0 43.5 -9t35.5 -24t23.5 -35.5t8.5 -43.5z" />
<glyph unicode="&#x43e;&#x308;" horiz-adv-x="1036" d="M766 623q0 73 -14 129t-38 94t-57.5 58t-72.5 20q-67 0 -124.5 -48.5t-99.5 -127t-66 -177t-24 -198.5q0 -76 14 -133t39 -95.5t58 -57.5t72 -19q48 0 90.5 24.5t77 66t61.5 96.5t46 116.5t28.5 126.5t9.5 125zM973 614q0 -83 -18.5 -162.5t-53 -150.5t-83 -130.5 t-109 -103t-131.5 -68t-150 -24.5q-84 0 -152 27t-115 77.5t-72.5 122t-25.5 160.5q0 83 18 163.5t51.5 152.5t81.5 133.5t108.5 106t132 69.5t151.5 25q74 0 140.5 -23t117 -72t80 -124t29.5 -179zM585 1313q0 -23 -9 -44t-24.5 -37t-36 -25t-43.5 -9q-22 0 -42 9t-35 25 t-24 36t-9 43q0 22 9 42.5t24 36.5t35 25.5t42 9.5q23 0 43.5 -9t36 -24t24.5 -35.5t9 -43.5zM1009 1313q0 -23 -8.5 -44t-23.5 -37t-35.5 -25t-43.5 -9t-43.5 9t-35.5 25t-24 37t-9 44q0 21 9.5 41.5t25 36t36 25t41.5 9.5q23 0 43.5 -9t35.5 -24t23.5 -35.5t8.5 -43.5z " />
<glyph unicode="&#x4e8;&#x308;" horiz-adv-x="1454" d="M340 666q-5 -38 -7.5 -73.5t-2.5 -72.5q0 -104 26.5 -186.5t72 -140t107.5 -88.5t134 -31q92 0 172 50.5t144 133.5t109.5 189.5t67.5 218.5h-823zM1182 854q0 102 -25.5 185t-71 142.5t-108 91.5t-135.5 32q-88 0 -165 -45t-139.5 -120t-108.5 -173t-71 -205h820 q2 23 3 46.5t1 45.5zM1415 854q0 -108 -23 -215.5t-67 -206.5t-109 -183.5t-149.5 -147.5t-188 -98.5t-223.5 -35.5q-123 0 -225 40.5t-176 115.5t-115 180t-41 234q0 110 25 217t72.5 204t115 179t152 142t185 94t212.5 34q127 0 230 -43.5t175 -118.5t111 -176t39 -215z M835 1713q0 -23 -9 -44t-24.5 -37t-36 -25t-43.5 -9q-22 0 -42 9t-35 25t-24 36t-9 43q0 22 9 42.5t24 36.5t35 25.5t42 9.5q23 0 43.5 -9t36 -24t24.5 -35.5t9 -43.5zM1259 1713q0 -23 -8.5 -44t-23.5 -37t-35.5 -25t-43.5 -9t-43.5 9t-35.5 25t-24 37t-9 44q0 21 9.5 41.5 t25 36t36 25t41.5 9.5q23 0 43.5 -9t35.5 -24t23.5 -35.5t8.5 -43.5z" />
<glyph unicode="&#x4e9;&#x308;" horiz-adv-x="1036" d="M274 453q-2 -20 -3 -40t-1 -40q0 -76 14 -133t39 -95.5t58 -57.5t72 -19q57 0 104 32t84.5 85.5t64.5 123t42 144.5h-474zM766 623q0 73 -14 129t-38 94t-57.5 58t-72.5 20q-52 0 -98 -29.5t-83.5 -79.5t-66 -117.5t-45.5 -142.5h471q2 17 3 34t1 34zM973 614 q0 -83 -18.5 -162.5t-53 -150.5t-83 -130.5t-109 -103t-131.5 -68t-150 -24.5q-84 0 -152 27t-115 77.5t-72.5 122t-25.5 160.5q0 83 18 163.5t51.5 152.5t81.5 133.5t108.5 106t132 69.5t151.5 25q74 0 140.5 -23t117 -72t80 -124t29.5 -179zM585 1313q0 -23 -9 -44 t-24.5 -37t-36 -25t-43.5 -9q-22 0 -42 9t-35 25t-24 36t-9 43q0 22 9 42.5t24 36.5t35 25.5t42 9.5q23 0 43.5 -9t36 -24t24.5 -35.5t9 -43.5zM1009 1313q0 -23 -8.5 -44t-23.5 -37t-35.5 -25t-43.5 -9t-43.5 9t-35.5 25t-24 37t-9 44q0 21 9.5 41.5t25 36t36 25t41.5 9.5 q23 0 43.5 -9t35.5 -24t23.5 -35.5t8.5 -43.5z" />
<glyph unicode="&#x42d;&#x308;" horiz-adv-x="1290" d="M1249 827q0 -109 -27 -215t-78 -201.5t-124 -177t-164.5 -140.5t-199.5 -92.5t-230 -33.5q-50 0 -96.5 5.5t-94 16t-98 25.5t-108.5 33l55 322h121v-191q0 -17 11.5 -33.5t25.5 -21.5q4 -2 17.5 -10.5t36 -17.5t53 -16t67.5 -7q100 0 196.5 40.5t177 116t139.5 183 t85 241.5h-578l19 95h571q3 24 3.5 50t0.5 52q0 115 -33 200t-90 141.5t-133 84t-162 27.5q-33 0 -59.5 -5t-46 -11t-31.5 -12t-16 -7q-13 -2 -27 -14.5t-20 -26.5l-90 -234h-119l55 332q11 4 50 17t97 27.5t129 26t146 11.5q152 0 260 -49.5t176.5 -131t100.5 -186 t32 -213.5zM728 1713q0 -23 -9 -44t-24.5 -37t-36 -25t-43.5 -9q-22 0 -42 9t-35 25t-24 36t-9 43q0 22 9 42.5t24 36.5t35 25.5t42 9.5q23 0 43.5 -9t36 -24t24.5 -35.5t9 -43.5zM1152 1713q0 -23 -8.5 -44t-23.5 -37t-35.5 -25t-43.5 -9t-43.5 9t-35.5 25t-24 37t-9 44 q0 21 9.5 41.5t25 36t36 25t41.5 9.5q23 0 43.5 -9t35.5 -24t23.5 -35.5t8.5 -43.5z" />
<glyph unicode="&#x44d;&#x308;" horiz-adv-x="942" d="M874 618q0 -86 -22 -166.5t-62.5 -152t-97.5 -131t-126.5 -102.5t-150 -67t-167.5 -24q-57 0 -108 8t-89 19q-46 11 -84 27l49 241h90l3 -155q0 -18 22 -31q14 -5 32 -9q16 -4 39 -6.5t52 -2.5q83 0 146.5 24.5t111.5 73t81.5 121.5t57.5 170h-379l21 100h379 q5 31 7.5 58.5t2.5 52.5q0 133 -63 195.5t-185 62.5q-31 0 -55.5 -4.5t-44 -10.5t-34 -12t-24.5 -10q-11 -5 -20 -15.5t-12 -21.5l-45 -125h-93l48 236q46 13 85 22.5t75 16t70 9.5t69 3q100 0 178 -28.5t132 -80t82.5 -124.5t28.5 -161zM495 1313q0 -23 -9 -44t-24.5 -37 t-36 -25t-43.5 -9q-22 0 -42 9t-35 25t-24 36t-9 43q0 22 9 42.5t24 36.5t35 25.5t42 9.5q23 0 43.5 -9t36 -24t24.5 -35.5t9 -43.5zM919 1313q0 -23 -8.5 -44t-23.5 -37t-35.5 -25t-43.5 -9t-43.5 9t-35.5 25t-24 37t-9 44q0 21 9.5 41.5t25 36t36 25t41.5 9.5 q23 0 43.5 -9t35.5 -24t23.5 -35.5t8.5 -43.5z" />
<glyph unicode="&#x423;&#x304;" horiz-adv-x="1425" d="M1409 1272l-713 -1039q-38 -54 -81.5 -102.5t-94.5 -85t-109 -57.5t-124 -21q-48 0 -78.5 12.5t-48 32t-24.5 42t-7 42.5q0 15 10.5 32.5t28 35t40.5 35t48 32.5l203 -88q44 29 86 80t84 105l-316 946l-155 12v88h598v-88l-140 -6q-23 -2 -38 -15t-9 -30l215 -668 l451 668q9 15 0 29t-31 16l-123 6v88h482v-88zM1253 1600h-620l29 135h617z" />
<glyph unicode="&#x443;&#x304;" horiz-adv-x="1018" d="M971 846q-12 -12 -35 -44t-47.5 -72t-48 -82.5t-37.5 -74.5q-22 -49 -51.5 -119t-66 -150.5t-79.5 -167t-92 -169.5q-48 -81 -102.5 -159.5t-115.5 -140t-128.5 -99t-140.5 -37.5q-56 0 -93 14t-59 34.5t-30.5 44t-8.5 42.5q0 23 10.5 44.5t29.5 38t45 26.5t56 12 l119 -119q32 3 63 25.5t65.5 67.5t75.5 113t93 163q-2 12 -10 53.5t-19.5 101t-26 131.5t-30.5 146q-16 72 -33.5 144.5t-34 130.5t-29.5 95t-20 38l-186 14v51l28 9q20 7 44 14.5t51 16t51 15t43.5 11t28.5 4.5q33 0 58 -15.5t44.5 -44.5t36 -69.5t31.5 -91.5 q26 -91 54 -225.5t58 -299.5l312 746h59l170 -56v-47zM944 1200h-620l29 135h617z" />
<glyph unicode="&#x423;&#x308;" horiz-adv-x="1425" d="M1409 1272l-713 -1039q-38 -54 -81.5 -102.5t-94.5 -85t-109 -57.5t-124 -21q-48 0 -78.5 12.5t-48 32t-24.5 42t-7 42.5q0 15 10.5 32.5t28 35t40.5 35t48 32.5l203 -88q44 29 86 80t84 105l-316 946l-155 12v88h598v-88l-140 -6q-23 -2 -38 -15t-9 -30l215 -668 l451 668q9 15 0 29t-31 16l-123 6v88h482v-88zM865 1713q0 -23 -9 -44t-24.5 -37t-36 -25t-43.5 -9q-22 0 -42 9t-35 25t-24 36t-9 43q0 22 9 42.5t24 36.5t35 25.5t42 9.5q23 0 43.5 -9t36 -24t24.5 -35.5t9 -43.5zM1289 1713q0 -23 -8.5 -44t-23.5 -37t-35.5 -25t-43.5 -9 t-43.5 9t-35.5 25t-24 37t-9 44q0 21 9.5 41.5t25 36t36 25t41.5 9.5q23 0 43.5 -9t35.5 -24t23.5 -35.5t8.5 -43.5z" />
<glyph unicode="&#x443;&#x308;" horiz-adv-x="1018" d="M971 846q-12 -12 -35 -44t-47.5 -72t-48 -82.5t-37.5 -74.5q-22 -49 -51.5 -119t-66 -150.5t-79.5 -167t-92 -169.5q-48 -81 -102.5 -159.5t-115.5 -140t-128.5 -99t-140.5 -37.5q-56 0 -93 14t-59 34.5t-30.5 44t-8.5 42.5q0 23 10.5 44.5t29.5 38t45 26.5t56 12 l119 -119q32 3 63 25.5t65.5 67.5t75.5 113t93 163q-2 12 -10 53.5t-19.5 101t-26 131.5t-30.5 146q-16 72 -33.5 144.5t-34 130.5t-29.5 95t-20 38l-186 14v51l28 9q20 7 44 14.5t51 16t51 15t43.5 11t28.5 4.5q33 0 58 -15.5t44.5 -44.5t36 -69.5t31.5 -91.5 q26 -91 54 -225.5t58 -299.5l312 746h59l170 -56v-47zM556 1313q0 -23 -9 -44t-24.5 -37t-36 -25t-43.5 -9q-22 0 -42 9t-35 25t-24 36t-9 43q0 22 9 42.5t24 36.5t35 25.5t42 9.5q23 0 43.5 -9t36 -24t24.5 -35.5t9 -43.5zM980 1313q0 -23 -8.5 -44t-23.5 -37t-35.5 -25 t-43.5 -9t-43.5 9t-35.5 25t-24 37t-9 44q0 21 9.5 41.5t25 36t36 25t41.5 9.5q23 0 43.5 -9t35.5 -24t23.5 -35.5t8.5 -43.5z" />
<glyph unicode="&#x423;&#x30b;" horiz-adv-x="1425" d="M1409 1272l-713 -1039q-38 -54 -81.5 -102.5t-94.5 -85t-109 -57.5t-124 -21q-48 0 -78.5 12.5t-48 32t-24.5 42t-7 42.5q0 15 10.5 32.5t28 35t40.5 35t48 32.5l203 -88q44 29 86 80t84 105l-316 946l-155 12v88h598v-88l-140 -6q-23 -2 -38 -15t-9 -30l215 -668 l451 668q9 15 0 29t-31 16l-123 6v88h482v-88zM1075 1811q0 -29 -13.5 -48.5t-35.5 -35.5l-309 -199h-141l276 320q20 23 46.5 37t72.5 14q27 0 46.5 -8t32.5 -20.5t19 -28.5t6 -31zM1491 1811q0 -29 -13.5 -48.5t-35.5 -35.5l-307 -199h-144l279 320q10 12 21 21t24.5 16 t31 10.5t40.5 3.5q27 0 46.5 -8t32 -20.5t19 -28.5t6.5 -31z" />
<glyph unicode="&#x443;&#x30b;" horiz-adv-x="1018" d="M971 846q-12 -12 -35 -44t-47.5 -72t-48 -82.5t-37.5 -74.5q-22 -49 -51.5 -119t-66 -150.5t-79.5 -167t-92 -169.5q-48 -81 -102.5 -159.5t-115.5 -140t-128.5 -99t-140.5 -37.5q-56 0 -93 14t-59 34.5t-30.5 44t-8.5 42.5q0 23 10.5 44.5t29.5 38t45 26.5t56 12 l119 -119q32 3 63 25.5t65.5 67.5t75.5 113t93 163q-2 12 -10 53.5t-19.5 101t-26 131.5t-30.5 146q-16 72 -33.5 144.5t-34 130.5t-29.5 95t-20 38l-186 14v51l28 9q20 7 44 14.5t51 16t51 15t43.5 11t28.5 4.5q33 0 58 -15.5t44.5 -44.5t36 -69.5t31.5 -91.5 q26 -91 54 -225.5t58 -299.5l312 746h59l170 -56v-47zM766 1411q0 -29 -13.5 -48.5t-35.5 -35.5l-309 -199h-141l276 320q20 23 46.5 37t72.5 14q27 0 46.5 -8t32.5 -20.5t19 -28.5t6 -31zM1182 1411q0 -29 -13.5 -48.5t-35.5 -35.5l-307 -199h-144l279 320q10 12 21 21 t24.5 16t31 10.5t40.5 3.5q27 0 46.5 -8t32 -20.5t19 -28.5t6.5 -31z" />
<glyph unicode="&#x427;&#x308;" horiz-adv-x="1320" d="M1283 1278q-18 -2 -33 -14t-18 -29l-217 -1096q-3 -17 6.5 -29t28.5 -14l110 -8v-88h-512v88l109 8q19 2 33.5 14t17.5 29l96 486q-41 -23 -92 -45t-104.5 -39t-105 -28t-94.5 -11q-51 0 -102 14.5t-88 49.5t-54 93t0 146l86 430q3 17 -6.5 29t-28.5 14l-106 8v88h512 v-88l-113 -8q-18 -2 -33 -14t-18 -29l-78 -393q-9 -48 -5.5 -81.5t21 -54t49 -29.5t79.5 -9q34 0 74.5 7.5t81 20t79.5 28.5t71 32l96 479q3 17 -6.5 28.5t-27.5 14.5l-99 8v88h514v-88zM764 1713q0 -23 -9 -44t-24.5 -37t-36 -25t-43.5 -9q-22 0 -42 9t-35 25t-24 36t-9 43 q0 22 9 42.5t24 36.5t35 25.5t42 9.5q23 0 43.5 -9t36 -24t24.5 -35.5t9 -43.5zM1188 1713q0 -23 -8.5 -44t-23.5 -37t-35.5 -25t-43.5 -9t-43.5 9t-35.5 25t-24 37t-9 44q0 21 9.5 41.5t25 36t36 25t41.5 9.5q23 0 43.5 -9t35.5 -24t23.5 -35.5t8.5 -43.5z" />
<glyph unicode="&#x447;&#x308;" horiz-adv-x="987" d="M983 59q-26 -14 -58 -28.5t-67.5 -27t-73.5 -20.5t-75 -8q-48 0 -82 14t-54.5 36t-28 48.5t-1.5 51.5l57 301q-28 -14 -58.5 -27t-61.5 -23.5t-61.5 -17t-58.5 -6.5q-48 0 -90 12t-71 38.5t-41 69t0 103.5l55 295l-174 19v59l309 64h82l-78 -410q-14 -72 8.5 -106.5 t96.5 -34.5q31 0 69.5 10t89.5 35l91 481h190l-154 -813q-5 -26 1 -41.5t17 -24t26 -11.5t30 -3q16 0 33 2.5t37 8t43.5 12.5t52.5 16v-74zM542 1313q0 -23 -9 -44t-24.5 -37t-36 -25t-43.5 -9q-22 0 -42 9t-35 25t-24 36t-9 43q0 22 9 42.5t24 36.5t35 25.5t42 9.5 q23 0 43.5 -9t36 -24t24.5 -35.5t9 -43.5zM966 1313q0 -23 -8.5 -44t-23.5 -37t-35.5 -25t-43.5 -9t-43.5 9t-35.5 25t-24 37t-9 44q0 21 9.5 41.5t25 36t36 25t41.5 9.5q23 0 43.5 -9t35.5 -24t23.5 -35.5t8.5 -43.5z" />
<glyph unicode="&#x42b;&#x308;" horiz-adv-x="1710" d="M850 553q-2 106 -60.5 156.5t-189.5 50.5q-17 0 -39.5 -1.5t-43.5 -3.5q-25 -3 -50 -5l-127 -648q15 -1 32 -2q14 -1 32 -1.5t38 -0.5q108 0 177.5 21t112.5 61.5t66 99.5t38 134q8 40 11 74t3 65zM1075 514q0 -23 -2.5 -47.5t-7.5 -52.5q-21 -108 -64 -186t-117 -128.5 t-184 -75t-266 -24.5h-479v88l133 8q22 2 35.5 16.5t15.5 26.5l217 1096q3 12 -5 26t-29 17l-107 8v88h541v-88l-142 -8q-21 -2 -34.5 -16.5t-16.5 -26.5l-76 -387q27 2 54 5q23 2 49 3.5t49 1.5q100 0 180.5 -22t137.5 -65.5t88 -108t30 -148.5zM1681 1276 q-21 -2 -35.5 -15t-17.5 -28l-215 -1092q-3 -15 5 -29t30 -16l115 -8v-88h-539v88l129 8q23 2 36.5 16t16.5 29l215 1092q3 15 -4 28t-28 15l-121 8v90h549v-90zM966 1713q0 -23 -9 -44t-24.5 -37t-36 -25t-43.5 -9q-22 0 -42 9t-35 25t-24 36t-9 43q0 22 9 42.5t24 36.5 t35 25.5t42 9.5q23 0 43.5 -9t36 -24t24.5 -35.5t9 -43.5zM1390 1713q0 -23 -8.5 -44t-23.5 -37t-35.5 -25t-43.5 -9t-43.5 9t-35.5 25t-24 37t-9 44q0 21 9.5 41.5t25 36t36 25t41.5 9.5q23 0 43.5 -9t35.5 -24t23.5 -35.5t8.5 -43.5z" />
<glyph unicode="&#x44b;&#x308;" horiz-adv-x="1358" d="M627 358q0 45 -9 78t-30 55t-56.5 33t-87.5 11q-10 0 -25.5 -4t-32 -9.5t-31.5 -12t-23 -11.5l-45 -236q-6 -30 -6 -53q0 -45 17 -74.5t42 -46t52 -23t48 -6.5q39 0 73 23.5t59.5 64t40 95t14.5 116.5zM823 354q0 -101 -37.5 -173t-98.5 -118t-137 -67t-153 -21 q-49 0 -103 14t-99 43.5t-74 74t-29 106.5q0 12 1 25.5t3 27.5l117 604l-174 19v59l309 64h82l-82 -424q13 6 29 12t32.5 11.5t32.5 8.5t29 3q78 0 143 -17.5t111.5 -51t72 -84t25.5 -116.5zM1354 59q-12 -5 -45 -19t-76 -28.5t-90.5 -25.5t-89.5 -11q-53 0 -84 18t-46 47 t-16.5 65t4.5 71l131 694l-174 19v59l310 64h82l-154 -819q-5 -21 -0.5 -40t15 -33.5t27.5 -23t38 -8.5q18 0 42.5 6.5t49 15t45.5 16.5t31 11v-78zM760 1313q0 -23 -9 -44t-24.5 -37t-36 -25t-43.5 -9q-22 0 -42 9t-35 25t-24 36t-9 43q0 22 9 42.5t24 36.5t35 25.5t42 9.5 q23 0 43.5 -9t36 -24t24.5 -35.5t9 -43.5zM1184 1313q0 -23 -8.5 -44t-23.5 -37t-35.5 -25t-43.5 -9t-43.5 9t-35.5 25t-24 37t-9 44q0 21 9.5 41.5t25 36t36 25t41.5 9.5q23 0 43.5 -9t35.5 -24t23.5 -35.5t8.5 -43.5z" />
<glyph unicode="A&#x325;" horiz-adv-x="1378" d="M766 1155l-303 -532h391zM801 0v86l94 10q45 6 39 39l-62 391h-464l-209 -391q-11 -20 -0.5 -28t39.5 -11l94 -10v-86h-441v86l115 12l756 1309h164l221 -1272q3 -20 11 -28.5t30 -10.5l94 -10v-86h-481zM636 -338q0 24 -9 43.5t-24 34t-35 22t-43 7.5q-32 0 -61.5 -13.5 t-53 -36t-37.5 -52t-14 -60.5q0 -48 31 -77.5t78 -29.5q31 0 61.5 13.5t54 36t38 51.5t14.5 61zM453 -604q-43 0 -79.5 14.5t-63.5 40.5t-42 62t-15 79q0 56 24 107.5t64 90.5t92 62t108 23q42 0 78.5 -14.5t63.5 -41t42 -62.5t15 -79q0 -57 -24 -108t-63.5 -89.5 t-91.5 -61.5t-108 -23z" />
<glyph unicode="a&#x325;" d="M760 803q1 5 -7.5 23t-20.5 37.5t-25.5 34.5t-22.5 15q-78 0 -139.5 -25.5t-107.5 -69t-78.5 -100.5t-52.5 -119t-29 -125t-9 -120q0 -43 7 -86t24.5 -78t48 -57t78.5 -22q36 0 72 16t67 37t54 42t34 32zM1061 55q-12 -5 -44 -18.5t-71.5 -27t-80 -24t-70.5 -10.5 q-37 0 -62.5 9t-42 27t-25.5 44t-12 60q-23 -22 -54 -46.5t-68.5 -45.5t-80 -34.5t-88.5 -13.5q-60 0 -105.5 17t-78.5 45.5t-54.5 66t-34.5 78t-18 82t-5 78.5q0 79 17 159.5t50.5 155t83.5 139.5t115.5 113t146 75.5t176.5 27.5q28 0 55.5 -6.5t51.5 -17t44 -23.5t34 -27 l30 49h140q-5 -12 -11 -28.5t-12 -33.5t-10.5 -32t-5.5 -23q-7 -27 -20 -81.5t-27.5 -122.5t-30 -142.5t-27.5 -141t-20 -118t-8 -74.5q0 -54 23 -74t65 -20q10 0 29.5 4.5t40.5 10.5t39 11t26 7v-74zM546 -338q0 24 -9 43.5t-24 34t-35 22t-43 7.5q-32 0 -61.5 -13.5 t-53 -36t-37.5 -52t-14 -60.5q0 -48 31 -77.5t78 -29.5q31 0 61.5 13.5t54 36t38 51.5t14.5 61zM363 -604q-43 0 -79.5 14.5t-63.5 40.5t-42 62t-15 79q0 56 24 107.5t64 90.5t92 62t108 23q42 0 78.5 -14.5t63.5 -41t42 -62.5t15 -79q0 -57 -24 -108t-63.5 -89.5 t-91.5 -61.5t-108 -23z" />
<glyph unicode="B&#x307;" horiz-adv-x="1243" d="M1176 1112q0 -79 -27 -140t-73.5 -106.5t-109 -78.5t-132.5 -56q67 -9 122 -27.5t95 -50.5t62 -79.5t22 -114.5q0 -126 -46 -213.5t-127.5 -142t-192 -79t-239.5 -24.5h-561v86l129 10q19 2 27.5 11.5t11.5 27.5l213 1102q3 17 -5 28t-36 13l-114 10v86h575 q111 0 188.5 -18.5t126 -53t70 -83t21.5 -107.5zM911 438q0 63 -22 106.5t-62.5 70.5t-98.5 39t-130 12q-38 0 -79 -3t-75 -8l-108 -557q12 -1 28.5 -2t34 -2t34.5 -1.5t30 -0.5q220 0 334 91.5t114 254.5zM948 1098q0 97 -73.5 142.5t-204.5 45.5q-32 0 -60 -2t-45 -4 l-100 -520q12 -1 25 -2l27 -1q14 0 25.5 -0.5t18.5 -0.5q96 0 168.5 27.5t121 74t73 109t24.5 131.5zM922 1713q0 -24 -9 -45t-24.5 -36.5t-36.5 -24.5t-45 -9t-44.5 9t-36 24.5t-24.5 36.5t-9 45t8.5 45t24 37t36.5 25.5t45 9.5t45 -9t36.5 -25t24.5 -37.5t9 -45.5z" />
<glyph unicode="b&#x307;" horiz-adv-x="1008" d="M739 627q0 69 -16 116.5t-39 77.5t-48.5 43t-43.5 13q-25 0 -55 -8t-61.5 -22.5t-62.5 -33.5t-57 -41l-114 -620q10 -15 27 -29t39 -25.5t48 -18.5t54 -7q47 0 89.5 24t79 65t66.5 96t50.5 116.5t32 127t11.5 126.5zM942 635q0 -64 -14 -137.5t-43.5 -146.5t-75.5 -141 t-110 -120t-147 -83.5t-187 -31.5q-87 0 -171.5 24t-156.5 71l242 1298l-183 18v62l320 61h80l-117 -620q28 25 61.5 47.5t69.5 39t74 26.5t75 10q79 0 133 -35t87.5 -90t48 -121.5t14.5 -130.5zM820 1753q0 -24 -9 -45t-24.5 -36.5t-36.5 -24.5t-45 -9t-44.5 9t-36 24.5 t-24.5 36.5t-9 45t8.5 45t24 37t36.5 25.5t45 9.5t45 -9t36.5 -25t24.5 -37.5t9 -45.5z" />
<glyph unicode="B&#x323;" horiz-adv-x="1243" d="M1176 1112q0 -79 -27 -140t-73.5 -106.5t-109 -78.5t-132.5 -56q67 -9 122 -27.5t95 -50.5t62 -79.5t22 -114.5q0 -126 -46 -213.5t-127.5 -142t-192 -79t-239.5 -24.5h-561v86l129 10q19 2 27.5 11.5t11.5 27.5l213 1102q3 17 -5 28t-36 13l-114 10v86h575 q111 0 188.5 -18.5t126 -53t70 -83t21.5 -107.5zM911 438q0 63 -22 106.5t-62.5 70.5t-98.5 39t-130 12q-38 0 -79 -3t-75 -8l-108 -557q12 -1 28.5 -2t34 -2t34.5 -1.5t30 -0.5q220 0 334 91.5t114 254.5zM948 1098q0 97 -73.5 142.5t-204.5 45.5q-32 0 -60 -2t-45 -4 l-100 -520q12 -1 25 -2l27 -1q14 0 25.5 -0.5t18.5 -0.5q96 0 168.5 27.5t121 74t73 109t24.5 131.5zM551 -293q0 -24 -9 -44.5t-24.5 -36.5t-36 -25t-44.5 -9t-45 9t-36.5 25t-24.5 36.5t-9 44.5t8.5 45.5t24 38t36.5 26t46 9.5q24 0 44.5 -9.5t36 -25.5t24.5 -37.5 t9 -46.5z" />
<glyph unicode="b&#x323;" horiz-adv-x="1008" d="M739 627q0 69 -16 116.5t-39 77.5t-48.5 43t-43.5 13q-25 0 -55 -8t-61.5 -22.5t-62.5 -33.5t-57 -41l-114 -620q10 -15 27 -29t39 -25.5t48 -18.5t54 -7q47 0 89.5 24t79 65t66.5 96t50.5 116.5t32 127t11.5 126.5zM942 635q0 -64 -14 -137.5t-43.5 -146.5t-75.5 -141 t-110 -120t-147 -83.5t-187 -31.5q-87 0 -171.5 24t-156.5 71l242 1298l-183 18v62l320 61h80l-117 -620q28 25 61.5 47.5t69.5 39t74 26.5t75 10q79 0 133 -35t87.5 -90t48 -121.5t14.5 -130.5zM421 -293q0 -24 -9 -44.5t-24.5 -36.5t-36 -25t-44.5 -9t-45 9t-36.5 25 t-24.5 36.5t-9 44.5t8.5 45.5t24 38t36.5 26t46 9.5q24 0 44.5 -9.5t36 -25.5t24.5 -37.5t9 -46.5z" />
<glyph unicode="B&#x331;" horiz-adv-x="1243" d="M1176 1112q0 -79 -27 -140t-73.5 -106.5t-109 -78.5t-132.5 -56q67 -9 122 -27.5t95 -50.5t62 -79.5t22 -114.5q0 -126 -46 -213.5t-127.5 -142t-192 -79t-239.5 -24.5h-561v86l129 10q19 2 27.5 11.5t11.5 27.5l213 1102q3 17 -5 28t-36 13l-114 10v86h575 q111 0 188.5 -18.5t126 -53t70 -83t21.5 -107.5zM911 438q0 63 -22 106.5t-62.5 70.5t-98.5 39t-130 12q-38 0 -79 -3t-75 -8l-108 -557q12 -1 28.5 -2t34 -2t34.5 -1.5t30 -0.5q220 0 334 91.5t114 254.5zM948 1098q0 97 -73.5 142.5t-204.5 45.5q-32 0 -60 -2t-45 -4 l-100 -520q12 -1 25 -2l27 -1q14 0 25.5 -0.5t18.5 -0.5q96 0 168.5 27.5t121 74t73 109t24.5 131.5zM741 -315h-620l29 135h617z" />
<glyph unicode="b&#x331;" horiz-adv-x="1008" d="M739 627q0 69 -16 116.5t-39 77.5t-48.5 43t-43.5 13q-25 0 -55 -8t-61.5 -22.5t-62.5 -33.5t-57 -41l-114 -620q10 -15 27 -29t39 -25.5t48 -18.5t54 -7q47 0 89.5 24t79 65t66.5 96t50.5 116.5t32 127t11.5 126.5zM942 635q0 -64 -14 -137.5t-43.5 -146.5t-75.5 -141 t-110 -120t-147 -83.5t-187 -31.5q-87 0 -171.5 24t-156.5 71l242 1298l-183 18v62l320 61h80l-117 -620q28 25 61.5 47.5t69.5 39t74 26.5t75 10q79 0 133 -35t87.5 -90t48 -121.5t14.5 -130.5zM611 -315h-620l29 135h617z" />
<glyph unicode="D&#x307;" horiz-adv-x="1374" d="M1116 868q0 128 -39 206t-105 121t-153 58.5t-182 18.5h-74l-225 -1166h149q155 2 273 66.5t197 170.5t119 242.5t40 282.5zM1337 850q0 -126 -29 -238t-84 -206.5t-133.5 -169.5t-177 -127.5t-215 -80.5t-247.5 -28h-482v86l127 10q20 2 28 11.5t13 27.5l213 1102 q3 17 -5 28t-36 13l-114 10v86h489q140 0 259.5 -27t207 -89t137 -162t49.5 -246zM973 1713q0 -24 -9 -45t-24.5 -36.5t-36.5 -24.5t-45 -9t-44.5 9t-36 24.5t-24.5 36.5t-9 45t8.5 45t24 37t36.5 25.5t45 9.5t45 -9t36.5 -25t24.5 -37.5t9 -45.5z" />
<glyph unicode="d&#x307;" horiz-adv-x="1077" d="M850 176q-5 -29 3 -47t21.5 -28.5t28 -14.5t21.5 -4t28.5 5.5t45.5 12.5t45 13l28 8v-76q-12 -5 -44 -16.5t-71 -23.5t-80.5 -21t-72.5 -9q-47 0 -77 11.5t-47 32t-23.5 48.5t-6.5 62q-27 -29 -59.5 -56.5t-69.5 -49t-78 -35t-84 -13.5q-86 0 -142.5 33t-89.5 86 t-46.5 118t-13.5 130q0 81 17.5 162.5t52 156t84.5 138.5t114 111.5t142.5 74.5t168.5 27q23 0 45 -4.5t42 -10.5t37 -13t30 -11l69 395l-186 18v62l317 61h84zM770 807q1 4 -11.5 22.5t-32 38.5t-42.5 36t-43 16q-75 0 -143 -43.5t-120 -119.5t-83 -179.5t-31 -223.5 q0 -66 13.5 -114t36 -79t51.5 -46t59 -15q28 0 60.5 14t65.5 37.5t65.5 54t60.5 62.5zM975 1753q0 -24 -9 -45t-24.5 -36.5t-36.5 -24.5t-45 -9t-44.5 9t-36 24.5t-24.5 36.5t-9 45t8.5 45t24 37t36.5 25.5t45 9.5t45 -9t36.5 -25t24.5 -37.5t9 -45.5z" />
<glyph unicode="D&#x323;" horiz-adv-x="1374" d="M1116 868q0 128 -39 206t-105 121t-153 58.5t-182 18.5h-74l-225 -1166h149q155 2 273 66.5t197 170.5t119 242.5t40 282.5zM1337 850q0 -126 -29 -238t-84 -206.5t-133.5 -169.5t-177 -127.5t-215 -80.5t-247.5 -28h-482v86l127 10q20 2 28 11.5t13 27.5l213 1102 q3 17 -5 28t-36 13l-114 10v86h489q140 0 259.5 -27t207 -89t137 -162t49.5 -246zM602 -293q0 -24 -9 -44.5t-24.5 -36.5t-36 -25t-44.5 -9t-45 9t-36.5 25t-24.5 36.5t-9 44.5t8.5 45.5t24 38t36.5 26t46 9.5q24 0 44.5 -9.5t36 -25.5t24.5 -37.5t9 -46.5z" />
<glyph unicode="d&#x323;" horiz-adv-x="1077" d="M850 176q-5 -29 3 -47t21.5 -28.5t28 -14.5t21.5 -4t28.5 5.5t45.5 12.5t45 13l28 8v-76q-12 -5 -44 -16.5t-71 -23.5t-80.5 -21t-72.5 -9q-47 0 -77 11.5t-47 32t-23.5 48.5t-6.5 62q-27 -29 -59.5 -56.5t-69.5 -49t-78 -35t-84 -13.5q-86 0 -142.5 33t-89.5 86 t-46.5 118t-13.5 130q0 81 17.5 162.5t52 156t84.5 138.5t114 111.5t142.5 74.5t168.5 27q23 0 45 -4.5t42 -10.5t37 -13t30 -11l69 395l-186 18v62l317 61h84zM770 807q1 4 -11.5 22.5t-32 38.5t-42.5 36t-43 16q-75 0 -143 -43.5t-120 -119.5t-83 -179.5t-31 -223.5 q0 -66 13.5 -114t36 -79t51.5 -46t59 -15q28 0 60.5 14t65.5 37.5t65.5 54t60.5 62.5zM576 -293q0 -24 -9 -44.5t-24.5 -36.5t-36 -25t-44.5 -9t-45 9t-36.5 25t-24.5 36.5t-9 44.5t8.5 45.5t24 38t36.5 26t46 9.5q24 0 44.5 -9.5t36 -25.5t24.5 -37.5t9 -46.5z" />
<glyph unicode="D&#x331;" horiz-adv-x="1374" d="M1116 868q0 128 -39 206t-105 121t-153 58.5t-182 18.5h-74l-225 -1166h149q155 2 273 66.5t197 170.5t119 242.5t40 282.5zM1337 850q0 -126 -29 -238t-84 -206.5t-133.5 -169.5t-177 -127.5t-215 -80.5t-247.5 -28h-482v86l127 10q20 2 28 11.5t13 27.5l213 1102 q3 17 -5 28t-36 13l-114 10v86h489q140 0 259.5 -27t207 -89t137 -162t49.5 -246zM792 -315h-620l29 135h617z" />
<glyph unicode="d&#x331;" horiz-adv-x="1077" d="M850 176q-5 -29 3 -47t21.5 -28.5t28 -14.5t21.5 -4t28.5 5.5t45.5 12.5t45 13l28 8v-76q-12 -5 -44 -16.5t-71 -23.5t-80.5 -21t-72.5 -9q-47 0 -77 11.5t-47 32t-23.5 48.5t-6.5 62q-27 -29 -59.5 -56.5t-69.5 -49t-78 -35t-84 -13.5q-86 0 -142.5 33t-89.5 86 t-46.5 118t-13.5 130q0 81 17.5 162.5t52 156t84.5 138.5t114 111.5t142.5 74.5t168.5 27q23 0 45 -4.5t42 -10.5t37 -13t30 -11l69 395l-186 18v62l317 61h84zM770 807q1 4 -11.5 22.5t-32 38.5t-42.5 36t-43 16q-75 0 -143 -43.5t-120 -119.5t-83 -179.5t-31 -223.5 q0 -66 13.5 -114t36 -79t51.5 -46t59 -15q28 0 60.5 14t65.5 37.5t65.5 54t60.5 62.5zM766 -315h-620l29 135h617z" />
<glyph unicode="D&#x327;" horiz-adv-x="1374" d="M1116 868q0 128 -39 206t-105 121t-153 58.5t-182 18.5h-74l-225 -1166h149q155 2 273 66.5t197 170.5t119 242.5t40 282.5zM1337 850q0 -126 -29 -238t-84 -206.5t-133.5 -169.5t-177 -127.5t-215 -80.5t-247.5 -28h-482v86l127 10q20 2 28 11.5t13 27.5l213 1102 q3 17 -5 28t-36 13l-114 10v86h489q140 0 259.5 -27t207 -89t137 -162t49.5 -246zM615 -248q0 -64 -25.5 -114t-67.5 -87t-96 -61t-112 -35l12 70q42 12 71 25t49.5 32.5t33 48t20.5 72.5h-108q-10 11 -13.5 26t-3.5 29q0 26 10.5 47.5t27.5 37t40 24t47 8.5q57 0 86 -33.5 t29 -89.5z" />
<glyph unicode="d&#x327;" horiz-adv-x="1077" d="M850 176q-5 -29 3 -47t21.5 -28.5t28 -14.5t21.5 -4t28.5 5.5t45.5 12.5t45 13l28 8v-76q-12 -5 -44 -16.5t-71 -23.5t-80.5 -21t-72.5 -9q-47 0 -77 11.5t-47 32t-23.5 48.5t-6.5 62q-27 -29 -59.5 -56.5t-69.5 -49t-78 -35t-84 -13.5q-86 0 -142.5 33t-89.5 86 t-46.5 118t-13.5 130q0 81 17.5 162.5t52 156t84.5 138.5t114 111.5t142.5 74.5t168.5 27q23 0 45 -4.5t42 -10.5t37 -13t30 -11l69 395l-186 18v62l317 61h84zM770 807q1 4 -11.5 22.5t-32 38.5t-42.5 36t-43 16q-75 0 -143 -43.5t-120 -119.5t-83 -179.5t-31 -223.5 q0 -66 13.5 -114t36 -79t51.5 -46t59 -15q28 0 60.5 14t65.5 37.5t65.5 54t60.5 62.5zM589 -248q0 -64 -25.5 -114t-67.5 -87t-96 -61t-112 -35l12 70q42 12 71 25t49.5 32.5t33 48t20.5 72.5h-108q-10 11 -13.5 26t-3.5 29q0 26 10.5 47.5t27.5 37t40 24t47 8.5 q57 0 86 -33.5t29 -89.5z" />
<glyph unicode="D&#x32d;" horiz-adv-x="1374" d="M1116 868q0 128 -39 206t-105 121t-153 58.5t-182 18.5h-74l-225 -1166h149q155 2 273 66.5t197 170.5t119 242.5t40 282.5zM1337 850q0 -126 -29 -238t-84 -206.5t-133.5 -169.5t-177 -127.5t-215 -80.5t-247.5 -28h-482v86l127 10q20 2 28 11.5t13 27.5l213 1102 q3 17 -5 28t-36 13l-114 10v86h489q140 0 259.5 -27t207 -89t137 -162t49.5 -246zM652 -496l-168 189l-246 -189h-143l338 347h161l201 -347h-143z" />
<glyph unicode="d&#x32d;" horiz-adv-x="1077" d="M850 176q-5 -29 3 -47t21.5 -28.5t28 -14.5t21.5 -4t28.5 5.5t45.5 12.5t45 13l28 8v-76q-12 -5 -44 -16.5t-71 -23.5t-80.5 -21t-72.5 -9q-47 0 -77 11.5t-47 32t-23.5 48.5t-6.5 62q-27 -29 -59.5 -56.5t-69.5 -49t-78 -35t-84 -13.5q-86 0 -142.5 33t-89.5 86 t-46.5 118t-13.5 130q0 81 17.5 162.5t52 156t84.5 138.5t114 111.5t142.5 74.5t168.5 27q23 0 45 -4.5t42 -10.5t37 -13t30 -11l69 395l-186 18v62l317 61h84zM770 807q1 4 -11.5 22.5t-32 38.5t-42.5 36t-43 16q-75 0 -143 -43.5t-120 -119.5t-83 -179.5t-31 -223.5 q0 -66 13.5 -114t36 -79t51.5 -46t59 -15q28 0 60.5 14t65.5 37.5t65.5 54t60.5 62.5zM626 -496l-168 189l-246 -189h-143l338 347h161l201 -347h-143z" />
<glyph unicode="E&#x32d;" horiz-adv-x="1143" d="M1126 1067h-131v166q0 22 -8 30.5t-31 8.5h-393l-94 -504h274q22 0 33.5 8.5t18.5 30.5l39 137h114l-90 -469h-117l21 146q6 41 -39 41h-277l-106 -560h481q22 0 33.5 11.5t17.5 29.5l64 197h125l-68 -340h-1024v86l119 10q43 3 49 39l213 1102q3 17 -5 28t-34 13 l-114 10v86h991zM571 -496l-168 189l-246 -189h-143l338 347h161l201 -347h-143z" />
<glyph unicode="e&#x32d;" horiz-adv-x="889" d="M672 807q0 20 -8 39.5t-22 34.5t-35 24.5t-46 9.5q-34 0 -65 -18t-59.5 -48t-53 -69t-44 -82t-34.5 -87t-24 -83q65 6 134.5 30t126.5 61.5t93.5 85.5t36.5 102zM854 805q0 -56 -26 -103t-70.5 -85t-103 -67.5t-123 -50t-131.5 -33t-128 -15.5q-3 -20 -5.5 -48t-2.5 -47 q0 -56 13.5 -103t39 -81.5t61.5 -54t81 -19.5q69 0 152 50t196 149v-129q-29 -28 -71 -61.5t-95.5 -63t-116.5 -49t-133 -19.5q-31 0 -67.5 6t-72.5 21.5t-69.5 42.5t-59 68.5t-41 99t-15.5 135.5q0 81 19.5 161.5t55 154t85.5 137t110 110t128.5 73t141.5 26.5 q71 0 118.5 -23.5t76.5 -56.5t41 -68t12 -57zM521 -496l-168 189l-246 -189h-143l338 347h161l201 -347h-143z" />
<glyph unicode="E&#x330;" horiz-adv-x="1143" d="M1126 1067h-131v166q0 22 -8 30.5t-31 8.5h-393l-94 -504h274q22 0 33.5 8.5t18.5 30.5l39 137h114l-90 -469h-117l21 146q6 41 -39 41h-277l-106 -560h481q22 0 33.5 11.5t17.5 29.5l64 197h125l-68 -340h-1024v86l119 10q43 3 49 39l213 1102q3 17 -5 28t-34 13 l-114 10v86h991zM801 -174q-21 -45 -49.5 -84.5t-65 -69t-82 -46.5t-100.5 -17q-40 0 -71.5 12.5t-63.5 34.5q-12 8 -25 16t-28 14.5t-33.5 10.5t-42.5 4q-14 0 -30.5 -6.5t-33 -18.5t-30.5 -29t-23 -38h-108q21 44 49.5 83.5t65 69t81.5 47t100 17.5q42 0 73 -14t65 -35 q24 -17 53.5 -31t77.5 -14q13 0 29 6.5t32 19t29.5 30t21.5 38.5h109z" />
<glyph unicode="e&#x330;" horiz-adv-x="889" d="M672 807q0 20 -8 39.5t-22 34.5t-35 24.5t-46 9.5q-34 0 -65 -18t-59.5 -48t-53 -69t-44 -82t-34.5 -87t-24 -83q65 6 134.5 30t126.5 61.5t93.5 85.5t36.5 102zM854 805q0 -56 -26 -103t-70.5 -85t-103 -67.5t-123 -50t-131.5 -33t-128 -15.5q-3 -20 -5.5 -48t-2.5 -47 q0 -56 13.5 -103t39 -81.5t61.5 -54t81 -19.5q69 0 152 50t196 149v-129q-29 -28 -71 -61.5t-95.5 -63t-116.5 -49t-133 -19.5q-31 0 -67.5 6t-72.5 21.5t-69.5 42.5t-59 68.5t-41 99t-15.5 135.5q0 81 19.5 161.5t55 154t85.5 137t110 110t128.5 73t141.5 26.5 q71 0 118.5 -23.5t76.5 -56.5t41 -68t12 -57zM751 -174q-21 -45 -49.5 -84.5t-65 -69t-82 -46.5t-100.5 -17q-40 0 -71.5 12.5t-63.5 34.5q-12 8 -25 16t-28 14.5t-33.5 10.5t-42.5 4q-14 0 -30.5 -6.5t-33 -18.5t-30.5 -29t-23 -38h-108q21 44 49.5 83.5t65 69t81.5 47 t100 17.5q42 0 73 -14t65 -35q24 -17 53.5 -31t77.5 -14q13 0 29 6.5t32 19t29.5 30t21.5 38.5h109z" />
<glyph unicode="F&#x307;" horiz-adv-x="1053" d="M1102 1044h-131v189q0 22 -9 30.5t-32 8.5h-367l-100 -527h262q22 0 33 9t16 30l39 140h117l-90 -467h-117l20 143q4 20 -7.5 30.5t-33.5 10.5h-260l-98 -506q-3 -15 5 -26t34 -13l133 -10v-86h-547v86l117 10q42 3 51 39l213 1102q3 17 -5 28t-36 13l-114 10v86h970z M844 1713q0 -24 -9 -45t-24.5 -36.5t-36.5 -24.5t-45 -9t-44.5 9t-36 24.5t-24.5 36.5t-9 45t8.5 45t24 37t36.5 25.5t45 9.5t45 -9t36.5 -25t24.5 -37.5t9 -45.5z" />
<glyph unicode="f&#x307;" horiz-adv-x="659" d="M903 1382q0 -49 -36 -75.5t-93 -34.5l-160 129q-22 -18 -41 -52t-35 -77t-29.5 -91.5t-23.5 -94t-17 -85t-11 -65.5h250v-102h-269q-3 -23 -10.5 -80t-18.5 -132t-23.5 -160.5t-25 -165t-24.5 -146.5t-21 -105q-14 -57 -38.5 -117.5t-58 -117.5t-74 -108t-86 -89t-95 -60 t-100.5 -22q-39 0 -64.5 13t-39.5 30.5t-19.5 34t-5.5 24.5q0 39 15 60.5t38 38.5l209 -54q27 33 49.5 81t41 106t33.5 124.5t27 137.5q26 145 48 323.5t53 380.5l-158 -16l2 80l178 59q10 54 27.5 116.5t43.5 124t61.5 118.5t81.5 100.5t103.5 69.5t127.5 26q52 0 88 -13 t58 -32.5t32 -41.5t10 -40zM744 1693q0 -24 -9 -45t-24.5 -36.5t-36.5 -24.5t-45 -9t-44.5 9t-36 24.5t-24.5 36.5t-9 45t8.5 45t24 37t36.5 25.5t45 9.5t45 -9t36.5 -25t24.5 -37.5t9 -45.5z" />
<glyph unicode="G&#x304;" horiz-adv-x="1409" d="M1266 567q-20 -2 -33.5 -10.5t-18.5 -28.5l-92 -481q-10 -3 -35 -9.5t-60 -15.5t-77.5 -18.5t-88.5 -18t-92.5 -13.5t-88.5 -5q-117 0 -205.5 27t-153 72.5t-107.5 105t-69 124.5t-36.5 130.5t-10.5 122.5q0 131 35 245.5t96.5 210t145 170t182 126.5t206.5 79t218 27 q50 0 93.5 -4t87.5 -12.5t92.5 -22t107.5 -31.5l-64 -329h-139l6 188q2 23 -9 37.5t-30 19.5q-4 1 -17 8t-34.5 15t-51.5 14t-67 6q-77 0 -153.5 -25t-147 -72t-131 -115.5t-105 -155t-70 -190.5t-25.5 -222q0 -83 19 -147.5t51 -113.5t73 -83t85 -55.5t88 -31t81 -9.5 q31 0 62.5 4t59.5 10t50.5 12t34.5 9l80 417q3 17 -5 27t-36 12l-113 11v86h528v-86zM1262 1600h-620l29 135h617z" />
<glyph unicode="g&#x304;" horiz-adv-x="901" d="M657 -180q0 37 -22 68t-82 59l-256 116q-49 -12 -81.5 -33t-51.5 -47.5t-27 -56.5t-8 -61q0 -35 15 -77t46.5 -78t79.5 -60.5t113 -24.5q74 0 126 21t85 51t48 63.5t15 59.5zM635 735q0 38 -7 72.5t-21.5 61t-37 42t-53.5 15.5q-37 0 -76 -27t-71.5 -74t-53 -110 t-20.5 -135q0 -37 8 -68.5t23.5 -54t37 -35t48.5 -12.5q51 0 92.5 32.5t70.5 81.5t44.5 106t15.5 105zM805 862q9 -23 17.5 -59t8.5 -78q0 -98 -36 -171t-97 -122t-141.5 -73.5t-169.5 -24.5q-7 -15 -12 -33t-8 -35.5t-4 -32t2 -22.5l274 -125q47 -21 85.5 -42.5t66 -47 t42.5 -58t15 -77.5q0 -44 -20.5 -85.5t-56 -78t-85 -67.5t-107 -53t-121 -34t-128.5 -12q-101 0 -175 25t-122.5 66t-72 95t-23.5 113q0 52 21.5 96t58.5 79t86.5 62t105.5 46q-5 24 -0.5 56.5t15 66t27.5 64.5t38 52q-41 18 -76 41.5t-60.5 54t-40 70t-14.5 88.5 q0 75 28 147.5t81.5 130t130 93t174.5 35.5q37 0 69.5 -6.5t59 -15t46 -17.5t28.5 -15h278v-96h-188zM905 1200h-620l29 135h617z" />
<glyph unicode="H&#x307;" horiz-adv-x="1485" d="M1452 1278q-19 -2 -31.5 -11.5t-17.5 -29.5l-213 -1102q-3 -15 5 -26t36 -13l115 -10v-86h-535v86l123 10q18 2 32 11.5t17 27.5l102 533h-639l-102 -533q-3 -15 5 -26t34 -13l119 -10v-86h-533v86l117 10q42 3 51 39l213 1102q3 17 -5 28t-36 13l-114 10v86h532v-86 l-121 -10q-18 -2 -32 -11.5t-17 -29.5l-90 -467h639l90 467q3 17 -5 28t-36 13l-117 10v86h533v-86zM1066 1713q0 -24 -9 -45t-24.5 -36.5t-36.5 -24.5t-45 -9t-44.5 9t-36 24.5t-24.5 36.5t-9 45t8.5 45t24 37t36.5 25.5t45 9.5t45 -9t36.5 -25t24.5 -37.5t9 -45.5z" />
<glyph unicode="h&#x307;" horiz-adv-x="1073" d="M1069 51q-13 -5 -45.5 -17t-72.5 -25.5t-82 -23.5t-74 -10q-19 0 -48 5.5t-54.5 20t-40.5 40.5t-7 68l125 604q9 40 -1.5 71t-29.5 51.5t-42 31t-40 10.5q-24 0 -58.5 -12t-73 -33t-77.5 -50.5t-73 -64.5l-150 -717h-188l282 1368l-182 18v62l320 61h82l-138 -661 q31 34 73.5 64t91 52.5t101 35t103.5 12.5q56 0 99 -17.5t69.5 -52t34 -86.5t-7.5 -121l-113 -551q-6 -29 3 -48.5t24.5 -31t32.5 -16t26 -4.5q28 0 61 14t68 25zM905 1753q0 -24 -9 -45t-24.5 -36.5t-36.5 -24.5t-45 -9t-44.5 9t-36 24.5t-24.5 36.5t-9 45t8.5 45t24 37 t36.5 25.5t45 9.5t45 -9t36.5 -25t24.5 -37.5t9 -45.5z" />
<glyph unicode="H&#x323;" horiz-adv-x="1485" d="M1452 1278q-19 -2 -31.5 -11.5t-17.5 -29.5l-213 -1102q-3 -15 5 -26t36 -13l115 -10v-86h-535v86l123 10q18 2 32 11.5t17 27.5l102 533h-639l-102 -533q-3 -15 5 -26t34 -13l119 -10v-86h-533v86l117 10q42 3 51 39l213 1102q3 17 -5 28t-36 13l-114 10v86h532v-86 l-121 -10q-18 -2 -32 -11.5t-17 -29.5l-90 -467h639l90 467q3 17 -5 28t-36 13l-117 10v86h533v-86zM695 -293q0 -24 -9 -44.5t-24.5 -36.5t-36 -25t-44.5 -9t-45 9t-36.5 25t-24.5 36.5t-9 44.5t8.5 45.5t24 38t36.5 26t46 9.5q24 0 44.5 -9.5t36 -25.5t24.5 -37.5t9 -46.5 z" />
</font>
</defs>
</svg>
